<?xml version="1.0" encoding="UTF-8"?>
<svg version="1.1" xmlns="http://www.w3.org/2000/svg" width="160" height="166">
<path d="M0 0 C1.22493164 -0.01836914 1.22493164 -0.01836914 2.47460938 -0.03710938 C7.88181365 -0.05003496 12.49377644 0.67540327 17.6875 2.1875 C19.6875 8.8125 19.6875 8.8125 19.6875 12.1875 C20.780625 12.001875 21.87375 11.81625 23 11.625 C28.23399615 10.96958009 33.50678323 11.18449928 38.6875 12.1875 C40.6875 14.1875 40.6875 14.1875 40.8828125 16.1328125 C40.81770833 18.15104167 40.75260417 20.16927083 40.6875 22.1875 C42.605625 22.125625 42.605625 22.125625 44.5625 22.0625 C46.7421875 21.9921875 46.7421875 21.9921875 48.6875 22.1875 C51.69367269 25.19367269 51.28335316 28.01131598 51.6875 32.1875 C54.3275 32.5175 56.9675 32.8475 59.6875 33.1875 C61.38879289 37.63216594 61.93991556 41.31414463 61.94628906 46.06323242 C61.9497937 46.7225325 61.95329834 47.38183258 61.95690918 48.06111145 C61.96565134 50.22184031 61.95990632 52.38223706 61.953125 54.54296875 C61.95447333 56.05178388 61.95641527 57.56059858 61.95892334 59.06941223 C61.96186399 62.22234254 61.95760936 65.37515913 61.94824219 68.52807617 C61.93681875 72.57003616 61.94343194 76.61173136 61.95538712 80.65368176 C61.96260932 83.76518251 61.96031665 86.87662031 61.95513153 89.98812294 C61.95379755 91.47887516 61.95543395 92.9696331 61.96009064 94.46037865 C61.9651651 96.54039076 61.95743447 98.61997125 61.94628906 100.69995117 C61.94469788 101.8832048 61.94310669 103.06645844 61.94146729 104.28556824 C61.6875 107.1875 61.6875 107.1875 59.6875 110.1875 C56.64883201 110.59887202 53.76590297 110.31943156 50.6875 110.1875 C50.6875 113.1575 50.6875 116.1275 50.6875 119.1875 C46.81065913 120.38037411 43.77128077 121.1875 39.6875 121.1875 C39.72875 122.46625 39.77 123.745 39.8125 125.0625 C39.8828125 127.2421875 39.8828125 127.2421875 39.6875 129.1875 C37.33391749 131.54108251 36.75781606 131.46621904 33.5546875 131.6015625 C32.74902344 131.64023438 31.94335938 131.67890625 31.11328125 131.71875 C29.85064453 131.76515625 29.85064453 131.76515625 28.5625 131.8125 C27.28826172 131.87050781 27.28826172 131.87050781 25.98828125 131.9296875 C23.88838316 132.02406494 21.78797109 132.10687586 19.6875 132.1875 C19.501875 134.105625 19.501875 134.105625 19.3125 136.0625 C18.9375 139.9375 18.9375 139.9375 16.6875 142.1875 C13.73828125 142.44628906 13.73828125 142.44628906 10 142.453125 C9.34169189 142.45503845 8.68338379 142.4569519 8.00512695 142.45892334 C6.6131146 142.4602845 5.22108953 142.45659283 3.82910156 142.44824219 C1.69567411 142.437541 -0.43691131 142.44813906 -2.5703125 142.4609375 C-3.92187686 142.45961589 -5.2734407 142.45705347 -6.625 142.453125 C-7.85863281 142.45086914 -9.09226563 142.44861328 -10.36328125 142.44628906 C-13.3125 142.1875 -13.3125 142.1875 -15.3125 140.1875 C-15.5078125 138.0234375 -15.5078125 138.0234375 -15.4375 135.5625 C-15.41945312 134.74523437 -15.40140625 133.92796875 -15.3828125 133.0859375 C-15.35960937 132.45945313 -15.33640625 131.83296875 -15.3125 131.1875 C-15.91312256 131.19273682 -16.51374512 131.19797363 -17.13256836 131.20336914 C-19.83836838 131.22408014 -22.54415177 131.23714125 -25.25 131.25 C-26.19552734 131.25837891 -27.14105469 131.26675781 -28.11523438 131.27539062 C-29.01435547 131.27861328 -29.91347656 131.28183594 -30.83984375 131.28515625 C-31.67249756 131.29039307 -32.50515137 131.29562988 -33.36303711 131.30102539 C-35.3125 131.1875 -35.3125 131.1875 -36.3125 130.1875 C-36.38429964 128.66821962 -36.39642007 127.14582518 -36.375 125.625 C-36.36597656 124.79871094 -36.35695313 123.97242187 -36.34765625 123.12109375 C-36.33605469 122.48300781 -36.32445313 121.84492187 -36.3125 121.1875 C-37.25222656 121.11402344 -37.25222656 121.11402344 -38.2109375 121.0390625 C-39.02820313 120.96429688 -39.84546875 120.88953125 -40.6875 120.8125 C-41.49960937 120.74289063 -42.31171875 120.67328125 -43.1484375 120.6015625 C-45.3125 120.1875 -45.3125 120.1875 -47.3125 118.1875 C-47.71297444 115.86474823 -48.0522104 113.53010643 -48.3125 111.1875 C-48.95058594 111.07792969 -49.58867188 110.96835938 -50.24609375 110.85546875 C-51.48552734 110.61763672 -51.48552734 110.61763672 -52.75 110.375 C-53.98556641 110.14876953 -53.98556641 110.14876953 -55.24609375 109.91796875 C-55.92800781 109.67691406 -56.60992187 109.43585938 -57.3125 109.1875 C-58.46872493 105.7188252 -58.43956236 103.02121351 -58.44189453 99.36108398 C-58.44364685 98.67135498 -58.44539917 97.98162598 -58.44720459 97.27099609 C-58.45160485 94.99183637 -58.44869186 92.71275426 -58.4453125 90.43359375 C-58.44598599 88.85083501 -58.44695639 87.26807638 -58.44821167 85.68531799 C-58.4496861 82.36905939 -58.44754196 79.05282773 -58.44287109 75.73657227 C-58.4371693 71.48038563 -58.44045726 67.22426199 -58.44644356 62.96807766 C-58.45005206 59.70050072 -58.44890933 56.43293879 -58.44631577 53.1653614 C-58.44564754 51.59563248 -58.4464713 50.0259022 -58.44879532 48.45617485 C-58.45132706 46.26558683 -58.44747408 44.07510181 -58.44189453 41.88452148 C-58.44109894 40.63670395 -58.44030334 39.38888641 -58.43948364 38.10325623 C-58.3125 35.1875 -58.3125 35.1875 -57.3125 33.1875 C-55.24609375 32.7734375 -55.24609375 32.7734375 -52.75 32.5625 C-51.92371094 32.48773438 -51.09742188 32.41296875 -50.24609375 32.3359375 C-49.60800781 32.28695312 -48.96992187 32.23796875 -48.3125 32.1875 C-48.18875 30.90875 -48.065 29.63 -47.9375 28.3125 C-47.5625 24.4375 -47.5625 24.4375 -45.3125 22.1875 C-41.6875 22.0625 -41.6875 22.0625 -38.3125 22.1875 C-37.6525 18.8875 -36.9925 15.5875 -36.3125 12.1875 C-32.12519376 11.14067344 -28.33393069 11.07594647 -24.0625 11.125 C-23.31742188 11.12951172 -22.57234375 11.13402344 -21.8046875 11.13867188 C-19.9739236 11.15040754 -18.14320127 11.1683415 -16.3125 11.1875 C-16.35375 10.094375 -16.395 9.00125 -16.4375 7.875 C-16.3125 4.1875 -16.3125 4.1875 -14.3125 1.1875 C-9.75158473 -0.32117752 -4.75817078 0.00370286 0 0 Z " fill="#FBEC24" transform="translate(81.3125,3.8125)"/>
<path d="M0 0 C10.75 -0.125 10.75 -0.125 13 1 C13.495 2.485 13.495 2.485 14 4 C16.00121175 6.36506843 16.96799661 6.9893322 20 8 C20.33 7.34 20.66 6.68 21 6 C21 7.65 21 9.3 21 11 C22.0725 10.95875 23.145 10.9175 24.25 10.875 C27.65747485 10.9885825 29.20739631 11.21273364 32 13 C31 16 31 16 29 17 C28.34444881 19.52733235 28.34444881 19.52733235 28 22 C24.37501666 22.02893932 20.75006287 22.04677792 17.125 22.0625 C15.57619141 22.07506836 15.57619141 22.07506836 13.99609375 22.08789062 C13.00996094 22.09111328 12.02382812 22.09433594 11.0078125 22.09765625 C9.64100342 22.10551147 9.64100342 22.10551147 8.24658203 22.11352539 C6 22 6 22 4 21 C4 22.65 4 24.3 4 26 C2.576875 26.12375 2.576875 26.12375 1.125 26.25 C-2.10461791 26.65074923 -2.10461791 26.65074923 -3.375 29.0625 C-3.684375 30.0215625 -3.684375 30.0215625 -4 31 C-4.66 31 -5.32 31 -6 31 C-6.33 31.66 -6.66 32.32 -7 33 C-8.485 32.505 -8.485 32.505 -10 32 C-10 36.95 -10 41.9 -10 47 C-12.475 47.495 -12.475 47.495 -15 48 C-15 46.35 -15 44.7 -15 43 C-16.485 43.495 -16.485 43.495 -18 44 C-18.99 41.36 -19.98 38.72 -21 36 C-23.64 36.33 -26.28 36.66 -29 37 C-28.43260132 41.12973628 -28.43260132 41.12973628 -27 45 C-25.68 45.66 -24.36 46.32 -23 47 C-23 61.19 -23 75.38 -23 90 C-22.34 90 -21.68 90 -21 90 C-21 88.68 -21 87.36 -21 86 C-18.03 86 -15.06 86 -12 86 C-12 86.66 -12 87.32 -12 88 C-11.34 88 -10.68 88 -10 88 C-10 88.66 -10 89.32 -10 90 C-10.66 90 -11.32 90 -12 90 C-12 91.65 -12 93.3 -12 95 C-11.34 95 -10.68 95 -10 95 C-9.67 94.34 -9.34 93.68 -9 93 C-8.34 93.66 -7.68 94.32 -7 95 C-5.68 95 -4.36 95 -3 95 C-0.64046906 92.64046906 -0.50858587 91.22104383 0 88 C3.3 88 6.6 88 10 88 C10 87.34 10 86.68 10 86 C9.36191406 86.01160156 8.72382812 86.02320312 8.06640625 86.03515625 C7.24011719 86.04417969 6.41382813 86.05320312 5.5625 86.0625 C4.73878906 86.07410156 3.91507813 86.08570312 3.06640625 86.09765625 C1 86 1 86 0 85 C-0.09346915 83.34261557 -0.11744977 81.68125356 -0.11352539 80.02124023 C-0.11344986 78.96021591 -0.11337433 77.89919159 -0.11329651 76.80601501 C-0.10813522 75.651866 -0.10297394 74.49771698 -0.09765625 73.30859375 C-0.0962413 72.13361832 -0.09482635 70.95864288 -0.09336853 69.74806213 C-0.08774992 65.97784936 -0.07519426 62.20769496 -0.0625 58.4375 C-0.0574874 55.88867273 -0.05292408 53.33984453 -0.04882812 50.79101562 C-0.03862331 44.52730291 -0.01905152 38.26371716 0 32 C10.89 32 21.78 32 33 32 C33.99 33.98 33.99 33.98 35 36 C36.485 36.495 36.485 36.495 38 37 C37.99214478 37.83192871 37.99214478 37.83192871 37.98413086 38.68066406 C37.96328969 41.20376443 37.95031718 43.72684664 37.9375 46.25 C37.92493164 47.55904297 37.92493164 47.55904297 37.91210938 48.89453125 C37.90727539 50.16103516 37.90727539 50.16103516 37.90234375 51.453125 C37.89448853 52.61569824 37.89448853 52.61569824 37.88647461 53.80175781 C37.92265187 56.00751414 37.92265187 56.00751414 38.56860352 58.09667969 C39 60 39 60 38 63 C37.95635078 64.70777561 37.96016632 66.41713114 38 68.125 C38.03767103 69.74956329 38.04657584 71.37566762 38 73 C37.67 73.33 37.34 73.66 37 74 C36.75480036 75.87297077 36.52901952 77.74849749 36.3125 79.625 C35.4843133 84.59412023 34.55430448 88.10866591 30.9765625 91.73046875 C25.71640262 95.10902994 19.07312162 95.09883923 13 95 C13 94.01 13 93.02 13 92 C11.68 92 10.36 92 9 92 C9.66 93.32 10.32 94.64 11 96 C8.36 96 5.72 96 3 96 C1.91527455 98.8075247 1 101.22004051 1 104.25 C1.96250212 106.35171354 1.96250212 106.35171354 5.0625 107.25 C6.5165625 107.62125 6.5165625 107.62125 8 108 C8 108.66 8 109.32 8 110 C14.93 110.33 21.86 110.66 29 111 C29 109.35 29 107.7 29 106 C29.99 106.33 30.98 106.66 32 107 C32 106.34 32 105.68 32 105 C38.6 105 45.2 105 52 105 C52 102.03 52 99.06 52 96 C52.66 96 53.32 96 54 96 C54 99.63 54 103.26 54 107 C47.07 107 40.14 107 33 107 C33 109.97 33 112.94 33 116 C32.67 116.66 32.34 117.32 32 118 C21.44 118 10.88 118 0 118 C0 114.37 0 110.74 0 107 C-6.93 107 -13.86 107 -21 107 C-21 103.37 -21 99.74 -21 96 C-24.63 96 -28.26 96 -32 96 C-32.02312465 86.36887288 -32.04091571 76.73775526 -32.05181217 67.10660648 C-32.05704074 62.63494451 -32.06413789 58.16330147 -32.07543945 53.69165039 C-32.08626929 49.37988027 -32.09227704 45.06812841 -32.09487724 40.75634575 C-32.09673132 39.10763702 -32.1003516 37.45892934 -32.10573006 35.81022835 C-32.11294178 33.50896128 -32.11399089 31.2077706 -32.11352539 28.90649414 C-32.115746 27.5941127 -32.11796661 26.28173126 -32.12025452 24.92958069 C-32 22 -32 22 -31 21 C-28.32941149 20.85884839 -25.67567762 20.95752893 -23 21 C-23 17.7 -23 14.4 -23 11 C-15.41 11 -7.82 11 0 11 C0 7.37 0 3.74 0 0 Z " fill="#F4E321" transform="translate(67,17)"/>
<path d="M0 0 C1.22493164 -0.01836914 1.22493164 -0.01836914 2.47460938 -0.03710938 C7.88181365 -0.05003496 12.49377644 0.67540327 17.6875 2.1875 C19.6875 8.8125 19.6875 8.8125 19.6875 12.1875 C20.780625 12.001875 21.87375 11.81625 23 11.625 C28.23399615 10.96958009 33.50678323 11.18449928 38.6875 12.1875 C40.6875 14.1875 40.6875 14.1875 40.8828125 16.1328125 C40.81770833 18.15104167 40.75260417 20.16927083 40.6875 22.1875 C42.605625 22.125625 42.605625 22.125625 44.5625 22.0625 C46.7421875 21.9921875 46.7421875 21.9921875 48.6875 22.1875 C51.69367269 25.19367269 51.28335316 28.01131598 51.6875 32.1875 C54.3275 32.5175 56.9675 32.8475 59.6875 33.1875 C61.38879289 37.63216594 61.93991556 41.31414463 61.94628906 46.06323242 C61.9497937 46.7225325 61.95329834 47.38183258 61.95690918 48.06111145 C61.96565134 50.22184031 61.95990632 52.38223706 61.953125 54.54296875 C61.95447333 56.05178388 61.95641527 57.56059858 61.95892334 59.06941223 C61.96186399 62.22234254 61.95760936 65.37515913 61.94824219 68.52807617 C61.93681875 72.57003616 61.94343194 76.61173136 61.95538712 80.65368176 C61.96260932 83.76518251 61.96031665 86.87662031 61.95513153 89.98812294 C61.95379755 91.47887516 61.95543395 92.9696331 61.96009064 94.46037865 C61.9651651 96.54039076 61.95743447 98.61997125 61.94628906 100.69995117 C61.94469788 101.8832048 61.94310669 103.06645844 61.94146729 104.28556824 C61.6875 107.1875 61.6875 107.1875 59.6875 110.1875 C56.64883201 110.59887202 53.76590297 110.31943156 50.6875 110.1875 C50.6875 113.1575 50.6875 116.1275 50.6875 119.1875 C46.81065913 120.38037411 43.77128077 121.1875 39.6875 121.1875 C39.72875 122.46625 39.77 123.745 39.8125 125.0625 C39.8828125 127.2421875 39.8828125 127.2421875 39.6875 129.1875 C37.33391749 131.54108251 36.75781606 131.46621904 33.5546875 131.6015625 C32.74902344 131.64023438 31.94335938 131.67890625 31.11328125 131.71875 C29.85064453 131.76515625 29.85064453 131.76515625 28.5625 131.8125 C27.28826172 131.87050781 27.28826172 131.87050781 25.98828125 131.9296875 C23.88838316 132.02406494 21.78797109 132.10687586 19.6875 132.1875 C19.501875 134.105625 19.501875 134.105625 19.3125 136.0625 C18.9375 139.9375 18.9375 139.9375 16.6875 142.1875 C13.73828125 142.44628906 13.73828125 142.44628906 10 142.453125 C9.34169189 142.45503845 8.68338379 142.4569519 8.00512695 142.45892334 C6.6131146 142.4602845 5.22108953 142.45659283 3.82910156 142.44824219 C1.69567411 142.437541 -0.43691131 142.44813906 -2.5703125 142.4609375 C-3.92187686 142.45961589 -5.2734407 142.45705347 -6.625 142.453125 C-7.85863281 142.45086914 -9.09226563 142.44861328 -10.36328125 142.44628906 C-13.3125 142.1875 -13.3125 142.1875 -15.3125 140.1875 C-15.5078125 138.0234375 -15.5078125 138.0234375 -15.4375 135.5625 C-15.41945312 134.74523437 -15.40140625 133.92796875 -15.3828125 133.0859375 C-15.35960937 132.45945313 -15.33640625 131.83296875 -15.3125 131.1875 C-15.91312256 131.19273682 -16.51374512 131.19797363 -17.13256836 131.20336914 C-19.83836838 131.22408014 -22.54415177 131.23714125 -25.25 131.25 C-26.19552734 131.25837891 -27.14105469 131.26675781 -28.11523438 131.27539062 C-29.01435547 131.27861328 -29.91347656 131.28183594 -30.83984375 131.28515625 C-31.67249756 131.29039307 -32.50515137 131.29562988 -33.36303711 131.30102539 C-35.3125 131.1875 -35.3125 131.1875 -36.3125 130.1875 C-36.38429964 128.66821962 -36.39642007 127.14582518 -36.375 125.625 C-36.36597656 124.79871094 -36.35695313 123.97242187 -36.34765625 123.12109375 C-36.33605469 122.48300781 -36.32445313 121.84492187 -36.3125 121.1875 C-37.25222656 121.11402344 -37.25222656 121.11402344 -38.2109375 121.0390625 C-39.02820313 120.96429688 -39.84546875 120.88953125 -40.6875 120.8125 C-41.49960937 120.74289063 -42.31171875 120.67328125 -43.1484375 120.6015625 C-45.3125 120.1875 -45.3125 120.1875 -47.3125 118.1875 C-47.71297444 115.86474823 -48.0522104 113.53010643 -48.3125 111.1875 C-48.95058594 111.07792969 -49.58867188 110.96835938 -50.24609375 110.85546875 C-51.48552734 110.61763672 -51.48552734 110.61763672 -52.75 110.375 C-53.98556641 110.14876953 -53.98556641 110.14876953 -55.24609375 109.91796875 C-55.92800781 109.67691406 -56.60992187 109.43585938 -57.3125 109.1875 C-58.46872493 105.7188252 -58.43956236 103.02121351 -58.44189453 99.36108398 C-58.44364685 98.67135498 -58.44539917 97.98162598 -58.44720459 97.27099609 C-58.45160485 94.99183637 -58.44869186 92.71275426 -58.4453125 90.43359375 C-58.44598599 88.85083501 -58.44695639 87.26807638 -58.44821167 85.68531799 C-58.4496861 82.36905939 -58.44754196 79.05282773 -58.44287109 75.73657227 C-58.4371693 71.48038563 -58.44045726 67.22426199 -58.44644356 62.96807766 C-58.45005206 59.70050072 -58.44890933 56.43293879 -58.44631577 53.1653614 C-58.44564754 51.59563248 -58.4464713 50.0259022 -58.44879532 48.45617485 C-58.45132706 46.26558683 -58.44747408 44.07510181 -58.44189453 41.88452148 C-58.44109894 40.63670395 -58.44030334 39.38888641 -58.43948364 38.10325623 C-58.3125 35.1875 -58.3125 35.1875 -57.3125 33.1875 C-55.24609375 32.7734375 -55.24609375 32.7734375 -52.75 32.5625 C-51.92371094 32.48773438 -51.09742188 32.41296875 -50.24609375 32.3359375 C-49.60800781 32.28695312 -48.96992187 32.23796875 -48.3125 32.1875 C-48.18875 30.90875 -48.065 29.63 -47.9375 28.3125 C-47.5625 24.4375 -47.5625 24.4375 -45.3125 22.1875 C-41.6875 22.0625 -41.6875 22.0625 -38.3125 22.1875 C-37.6525 18.8875 -36.9925 15.5875 -36.3125 12.1875 C-32.12519376 11.14067344 -28.33393069 11.07594647 -24.0625 11.125 C-23.31742188 11.12951172 -22.57234375 11.13402344 -21.8046875 11.13867188 C-19.9739236 11.15040754 -18.14320127 11.1683415 -16.3125 11.1875 C-16.35375 10.094375 -16.395 9.00125 -16.4375 7.875 C-16.3125 4.1875 -16.3125 4.1875 -14.3125 1.1875 C-9.75158473 -0.32117752 -4.75817078 0.00370286 0 0 Z M-14.3125 13.1875 C-14.3125 16.8175 -14.3125 20.4475 -14.3125 24.1875 C-21.9025 24.1875 -29.4925 24.1875 -37.3125 24.1875 C-37.3125 27.4875 -37.3125 30.7875 -37.3125 34.1875 C-38.611875 34.166875 -39.91125 34.14625 -41.25 34.125 C-42.60415633 34.10350546 -43.96006083 34.11601801 -45.3125 34.1875 C-46.64837809 35.29754121 -46.64837809 35.29754121 -46.43275452 38.11708069 C-46.4294236 40.08565285 -46.4294236 40.08565285 -46.42602539 42.09399414 C-46.42617142 42.81590439 -46.42631744 43.53781464 -46.4264679 44.28160095 C-46.42576869 46.67864947 -46.41797595 49.07562123 -46.41015625 51.47265625 C-46.4082921 53.13032489 -46.40686818 54.78799407 -46.40586853 56.44566345 C-46.40204312 60.81704214 -46.39221265 65.18838781 -46.38116455 69.55975342 C-46.37095092 74.01704461 -46.36637101 78.47434111 -46.36132812 82.93164062 C-46.3505904 91.68360893 -46.33351371 100.43555036 -46.3125 109.1875 C-42.6825 109.1875 -39.0525 109.1875 -35.3125 109.1875 C-35.3125 112.8175 -35.3125 116.4475 -35.3125 120.1875 C-28.3825 120.1875 -21.4525 120.1875 -14.3125 120.1875 C-14.3125 123.8175 -14.3125 127.4475 -14.3125 131.1875 C-3.7525 131.1875 6.8075 131.1875 17.6875 131.1875 C19.35832039 128.21853721 19.35832039 128.21853721 18.6875 120.1875 C25.6175 120.1875 32.5475 120.1875 39.6875 120.1875 C39.6875 116.5575 39.6875 112.9275 39.6875 109.1875 C42.9875 109.1875 46.2875 109.1875 49.6875 109.1875 C49.6875 84.7675 49.6875 60.3475 49.6875 35.1875 C49.0275 35.1875 48.3675 35.1875 47.6875 35.1875 C47.6875 34.5275 47.6875 33.8675 47.6875 33.1875 C45.0475 33.1875 42.4075 33.1875 39.6875 33.1875 C39.6875 30.2175 39.6875 27.2475 39.6875 24.1875 C32.4275 24.1875 25.1675 24.1875 17.6875 24.1875 C17.6875 20.5575 17.6875 16.9275 17.6875 13.1875 C7.1275 13.1875 -3.4325 13.1875 -14.3125 13.1875 Z " fill="#663D12" transform="translate(81.3125,3.8125)"/>
<path d="M0 0 C10.75 -0.125 10.75 -0.125 13 1 C13.495 2.485 13.495 2.485 14 4 C16.00121175 6.36506843 16.96799661 6.9893322 20 8 C20.33 7.34 20.66 6.68 21 6 C21 7.65 21 9.3 21 11 C22.0725 10.95875 23.145 10.9175 24.25 10.875 C27.65747485 10.9885825 29.20739631 11.21273364 32 13 C31 16 31 16 29 17 C28.34444881 19.52733235 28.34444881 19.52733235 28 22 C24.37501666 22.02893932 20.75006287 22.04677792 17.125 22.0625 C15.57619141 22.07506836 15.57619141 22.07506836 13.99609375 22.08789062 C13.00996094 22.09111328 12.02382812 22.09433594 11.0078125 22.09765625 C9.64100342 22.10551147 9.64100342 22.10551147 8.24658203 22.11352539 C6 22 6 22 4 21 C4 22.65 4 24.3 4 26 C2.576875 26.12375 2.576875 26.12375 1.125 26.25 C-2.10461791 26.65074923 -2.10461791 26.65074923 -3.375 29.0625 C-3.684375 30.0215625 -3.684375 30.0215625 -4 31 C-4.66 31 -5.32 31 -6 31 C-6.33 31.66 -6.66 32.32 -7 33 C-8.485 32.505 -8.485 32.505 -10 32 C-10 36.95 -10 41.9 -10 47 C-12.475 47.495 -12.475 47.495 -15 48 C-15 46.35 -15 44.7 -15 43 C-16.485 43.495 -16.485 43.495 -18 44 C-18.99 41.36 -19.98 38.72 -21 36 C-22.093125 36.020625 -23.18625 36.04125 -24.3125 36.0625 C-28 36 -28 36 -31 35 C-31.99293628 32.02119115 -32.13406411 29.98398802 -32.125 26.875 C-32.12757812 25.98554687 -32.13015625 25.09609375 -32.1328125 24.1796875 C-32 22 -32 22 -31 21 C-28.32941149 20.85884839 -25.67567762 20.95752893 -23 21 C-23 17.7 -23 14.4 -23 11 C-15.41 11 -7.82 11 0 11 C0 7.37 0 3.74 0 0 Z " fill="#FCF921" transform="translate(67,17)"/>
<path d="M0 0 C7.26 0 14.52 0 22 0 C22.02290595 5.9631823 22.04283396 11.92621311 22.05493164 17.8894043 C22.05997278 19.91968298 22.06680557 21.94995802 22.07543945 23.98022461 C22.08751467 26.89177347 22.09323034 29.8032745 22.09765625 32.71484375 C22.10281754 33.6283812 22.10797882 34.54191864 22.11329651 35.48313904 C22.11349168 37.65575427 22.06211805 39.82827296 22 42 C21.67 42.33 21.34 42.66 21 43 C14.07 43 7.14 43 0 43 C0 28.81 0 14.62 0 0 Z " fill="#FDF7A7" transform="translate(78,60)"/>
<path d="M0 0 C0.66 0 1.32 0 2 0 C2 24.42 2 48.84 2 74 C-1.96 74 -5.92 74 -10 74 C-10 76.97 -10 79.94 -10 83 C-16.6 83 -23.2 83 -30 83 C-30.495 83.99 -30.495 83.99 -31 85 C-30.67 83.35 -30.34 81.7 -30 80 C-26.79074369 78.9569917 -24.74548967 79.08722617 -21.5 79.9375 C-18.40991351 80.73647784 -16.28070186 81 -13 81 C-12.67 79.68 -12.34 78.36 -12 77 C-13.98 77 -15.96 77 -18 77 C-19.27832408 72.61142284 -19.06690432 68.54949399 -19 64 C-14.05 63.505 -14.05 63.505 -9 63 C-8.67 61.35 -8.34 59.7 -8 58 C-8.66 58 -9.32 58 -10 58 C-10 57.34 -10 56.68 -10 56 C-9.34 56 -8.68 56 -8 56 C-8.0721875 55.27554688 -8.144375 54.55109375 -8.21875 53.8046875 C-8.69407922 48.85334145 -9.13461998 43.98093926 -9 39 C-9.33 39 -9.66 39 -10 39 C-9.99476318 38.37955811 -9.98952637 37.75911621 -9.98413086 37.11987305 C-9.96334534 34.30909233 -9.95033483 31.49832779 -9.9375 28.6875 C-9.92912109 27.71103516 -9.92074219 26.73457031 -9.91210938 25.72851562 C-9.90888672 24.79072266 -9.90566406 23.85292969 -9.90234375 22.88671875 C-9.89710693 22.02264404 -9.89187012 21.15856934 -9.88647461 20.26831055 C-9.90664477 17.83271286 -9.90664477 17.83271286 -11 15 C-10.67 14.01 -10.34 13.02 -10 12 C-11.32 12 -12.64 12 -14 12 C-14 11.34 -14 10.68 -14 10 C-9.38 10 -4.76 10 0 10 C0 6.7 0 3.4 0 0 Z " fill="#F6E722" transform="translate(129,39)"/>
<path d="M0 0 C1.22493164 -0.01836914 1.22493164 -0.01836914 2.47460938 -0.03710938 C7.88181365 -0.05003496 12.49377644 0.67540327 17.6875 2.1875 C19.6875 8.8125 19.6875 8.8125 19.6875 12.1875 C20.780625 12.001875 21.87375 11.81625 23 11.625 C28.23399615 10.96958009 33.50678323 11.18449928 38.6875 12.1875 C40.6875 14.1875 40.6875 14.1875 40.8828125 16.1328125 C40.81770833 18.15104167 40.75260417 20.16927083 40.6875 22.1875 C42.605625 22.125625 42.605625 22.125625 44.5625 22.0625 C46.7421875 21.9921875 46.7421875 21.9921875 48.6875 22.1875 C51.69367269 25.19367269 51.28335316 28.01131598 51.6875 32.1875 C54.3275 32.5175 56.9675 32.8475 59.6875 33.1875 C61.39462388 37.64118864 61.93612566 41.31974967 61.93041992 46.07910156 C61.93231827 46.74000793 61.93421661 47.40091431 61.93617249 48.08184814 C61.93985133 50.24739778 61.92922123 52.41260564 61.91796875 54.578125 C61.91677562 56.08933472 61.91632407 57.6005452 61.9165802 59.11175537 C61.91502056 62.26888717 61.90676783 65.42590473 61.89331055 68.58300781 C61.87626309 72.63397391 61.87249816 76.68481537 61.87325573 80.73581314 C61.87298425 83.8515543 61.86750755 86.96726811 61.86025429 90.08300018 C61.85706901 91.57736759 61.85510054 93.07173809 61.85436058 94.5661087 C61.85219882 96.64861882 61.84345992 98.73099509 61.83276367 100.81347656 C61.82895187 101.99895081 61.82514008 103.18442505 61.82121277 104.40582275 C61.6875 107.1875 61.6875 107.1875 60.6875 109.1875 C57.3875 109.1875 54.0875 109.1875 50.6875 109.1875 C54.6875 107.1875 54.6875 107.1875 58.6875 107.1875 C58.6875 83.4275 58.6875 59.6675 58.6875 35.1875 C55.0575 35.1875 51.4275 35.1875 47.6875 35.1875 C47.6875 34.5275 47.6875 33.8675 47.6875 33.1875 C45.0475 33.1875 42.4075 33.1875 39.6875 33.1875 C39.6875 30.2175 39.6875 27.2475 39.6875 24.1875 C32.4275 24.1875 25.1675 24.1875 17.6875 24.1875 C17.6875 19.8975 17.6875 15.6075 17.6875 11.1875 C17.0275 11.1875 16.3675 11.1875 15.6875 11.1875 C15.6875 10.5275 15.6875 9.8675 15.6875 9.1875 C14.945 9.22875 14.2025 9.27 13.4375 9.3125 C10.6875 9.1875 10.6875 9.1875 8.90625 8.21875 C6.05307866 6.89262811 3.56816556 6.76667384 0.4375 6.5625 C-0.64015625 6.48773437 -1.7178125 6.41296875 -2.828125 6.3359375 C-3.64796875 6.28695313 -4.4678125 6.23796875 -5.3125 6.1875 C-5.3125 5.8575 -5.3125 5.5275 -5.3125 5.1875 C1.6175 5.1875 8.5475 5.1875 15.6875 5.1875 C15.6875 4.5275 15.6875 3.8675 15.6875 3.1875 C5.7875 3.1875 -4.1125 3.1875 -14.3125 3.1875 C-14.3125 5.8275 -14.3125 8.4675 -14.3125 11.1875 C-14.9725 11.1875 -15.6325 11.1875 -16.3125 11.1875 C-16.5625 4.5625 -16.5625 4.5625 -14.3125 1.1875 C-9.75158473 -0.32117752 -4.75817078 0.00370286 0 0 Z " fill="#B98505" transform="translate(81.3125,3.8125)"/>
<path d="M0 0 C10.89 0 21.78 0 33 0 C32.67 2.97 32.34 5.94 32 9 C28.7 9 25.4 9 22 9 C22 9.66 22 10.32 22 11 C18.37 11 14.74 11 11 11 C11 20.9 11 30.8 11 41 C10.34 41 9.68 41 9 41 C9 45.29 9 49.58 9 54 C2.84765625 54.09765625 2.84765625 54.09765625 1 54 C0 53 0 53 -0.12025452 50.86766052 C-0.11803391 49.92834183 -0.11581329 48.98902313 -0.11352539 48.02124023 C-0.11344986 46.96021591 -0.11337433 45.89919159 -0.11329651 44.80601501 C-0.10813522 43.651866 -0.10297394 42.49771698 -0.09765625 41.30859375 C-0.0962413 40.13361832 -0.09482635 38.95864288 -0.09336853 37.74806213 C-0.08774992 33.97784936 -0.07519426 30.20769496 -0.0625 26.4375 C-0.0574874 23.88867273 -0.05292408 21.33984453 -0.04882812 18.79101562 C-0.03862331 12.52730291 -0.01905152 6.26371716 0 0 Z " fill="#E5980B" transform="translate(67,49)"/>
<path d="M0 0 C1.33333333 2.66666667 2.66666667 5.33333333 4 8 C4.66 8 5.32 8 6 8 C6 9.65 6 11.3 6 13 C7.65 12.67 9.3 12.34 11 12 C11.01458252 12.94842773 11.02916504 13.89685547 11.04418945 14.87402344 C11.10532564 18.4004794 11.1794913 21.92616443 11.26245117 25.45214844 C11.2956588 26.9767834 11.32370378 28.50154006 11.34643555 30.02636719 C11.38005958 32.22122954 11.43237542 34.41498088 11.48828125 36.609375 C11.51446533 37.92905273 11.54064941 39.24873047 11.56762695 40.60839844 C12.0157326 44.12340898 12.48016192 45.56377253 15 48 C16.485 48.495 16.485 48.495 18 49 C19.9510914 51.6014552 20.92406146 53.45577377 21.375 56.6875 C21.25125 57.450625 21.1275 58.21375 21 59 C18 61 18 61 15.5625 60.625 C14.716875 60.41875 13.87125 60.2125 13 60 C11.68 60 10.36 60 9 60 C9 58.35 9 56.7 9 55 C9.66 55 10.32 55 11 55 C11 54.34 11 53.68 11 53 C10.34 53 9.68 53 9 53 C9 52.34 9 51.68 9 51 C6.03 51 3.06 51 0 51 C0 52.32 0 53.64 0 55 C-0.66 55 -1.32 55 -2 55 C-2.33 40.81 -2.66 26.62 -3 12 C-4.32 11.34 -5.64 10.68 -7 10 C-8.84035353 7.45855941 -9.05332214 6.39102902 -8.625 3.25 C-8.41875 2.5075 -8.2125 1.765 -8 1 C-5.36 0.67 -2.72 0.34 0 0 Z " fill="#FDFA1C" transform="translate(46,52)"/>
<path d="M0 0 C3.3 0 6.6 0 10 0 C10 23.76 10 47.52 10 72 C6.7 72 3.4 72 0 72 C0 48.24 0 24.48 0 0 Z " fill="#B17905" transform="translate(25,39)"/>
<path d="M0 0 C2.97 0 5.94 0 9 0 C9 23.76 9 47.52 9 72 C4.545 72.99 4.545 72.99 0 74 C0 49.58 0 25.16 0 0 Z " fill="#BB8012" transform="translate(131,39)"/>
<path d="M0 0 C10.75 -0.125 10.75 -0.125 13 1 C13.36666894 4.2083532 13.10141219 5.81040329 11.5625 8.6875 C8.02587563 11.87908784 4.68370938 12.57935598 0 13 C-3.5625 12.625 -3.5625 12.625 -6 12 C-6.09796875 12.61488281 -6.1959375 13.22976562 -6.296875 13.86328125 C-7.50972233 20.41893017 -7.50972233 20.41893017 -9.6875 23 C-12.75350686 24.3258408 -15.68994193 24.68172519 -19 25 C-18.97679687 25.62648438 -18.95359375 26.25296875 -18.9296875 26.8984375 C-18.90261719 28.12433594 -18.90261719 28.12433594 -18.875 29.375 C-18.85179687 30.18710937 -18.82859375 30.99921875 -18.8046875 31.8359375 C-19 34 -19 34 -21 36 C-24.693507 36.20146402 -27.47940432 36.17353189 -31 35 C-31.99293628 32.02119115 -32.13406411 29.98398802 -32.125 26.875 C-32.12757812 25.98554687 -32.13015625 25.09609375 -32.1328125 24.1796875 C-32 22 -32 22 -31 21 C-28.32941149 20.85884839 -25.67567762 20.95752893 -23 21 C-23 17.7 -23 14.4 -23 11 C-15.41 11 -7.82 11 0 11 C0 7.37 0 3.74 0 0 Z " fill="#E9DE8A" transform="translate(67,17)"/>
<path d="M0 0 C9.9 0 19.8 0 30 0 C30 0.66 30 1.32 30 2 C25.545 2.495 25.545 2.495 21 3 C23.97 3.99 26.94 4.98 30 6 C30 6.66 30 7.32 30 8 C30.66 8 31.32 8 32 8 C32 8.66 32 9.32 32 10 C21.44 10 10.88 10 0 10 C0 13.63 0 17.26 0 21 C-6.93 21 -13.86 21 -21 21 C-21 17.37 -21 13.74 -21 10 C-14.73 10 -8.46 10 -2 10 C-2 9.34 -2 8.68 -2 8 C-1.34 8 -0.68 8 0 8 C0 5.36 0 2.72 0 0 Z " fill="#B18533" transform="translate(67,7)"/>
<path d="M0 0 C0.66 0 1.32 0 2 0 C2 24.42 2 48.84 2 74 C-1.3 74 -4.6 74 -8 74 C-7.505 73.01 -7.505 73.01 -7 72 C-4.36 72 -1.72 72 1 72 C0.67 71.34 0.34 70.68 0 70 C-0.15344209 68.11527141 -0.24959571 66.22572126 -0.31640625 64.3359375 C-0.35830078 63.21445313 -0.40019531 62.09296875 -0.44335938 60.9375 C-0.48267578 59.761875 -0.52199219 58.58625 -0.5625 57.375 C-0.60568359 56.19164062 -0.64886719 55.00828125 -0.69335938 53.7890625 C-0.79967426 50.85949672 -0.90170642 47.92984412 -1 45 C-1.45375 45.66 -1.9075 46.32 -2.375 47 C-2.91125 47.66 -3.4475 48.32 -4 49 C-4.66 49 -5.32 49 -6 49 C-6.38063221 46.6739143 -6.71269945 44.33944736 -7 42 C-6.505 41.505 -6.505 41.505 -6 41 C-5.92820036 39.48071962 -5.91607993 37.95832518 -5.9375 36.4375 C-5.95103516 35.19806641 -5.95103516 35.19806641 -5.96484375 33.93359375 C-5.97644531 33.29550781 -5.98804687 32.65742187 -6 32 C-6.66 32 -7.32 32 -8 32 C-8 25.07 -8 18.14 -8 11 C-5.29120665 9.64560332 -2.99066732 9.93498549 0 10 C0 6.7 0 3.4 0 0 Z " fill="#F1D429" transform="translate(129,39)"/>
<path d="M0 0 C0.99 0.33 1.98 0.66 3 1 C2.79375 1.7425 2.5875 2.485 2.375 3.25 C1.94667786 6.39102902 2.15964647 7.45855941 4 10 C5.32 10.66 6.64 11.32 8 12 C8 26.19 8 40.38 8 55 C8.66 55 9.32 55 10 55 C10.33 56.32 10.66 57.64 11 59 C7.37 59 3.74 59 0 59 C0 39.53 0 20.06 0 0 Z " fill="#F8DE2A" transform="translate(36,52)"/>
<path d="M0 0 C6.93 0 13.86 0 21 0 C21 3.63 21 7.26 21 11 C28.26 11 35.52 11 43 11 C43 13.97 43 16.94 43 20 C45.64 20 48.28 20 51 20 C51 20.66 51 21.32 51 22 C49.35 22 47.7 22 46 22 C46 22.66 46 23.32 46 24 C45.01 24 44.02 24 43 24 C43.04125 24.78375 43.0825 25.5675 43.125 26.375 C43 29 43 29 41 31 C38.375 31.125 38.375 31.125 36 31 C36.66 30.67 37.32 30.34 38 30 C38 27.69 38 25.38 38 23 C36.02 22.34 34.04 21.68 32 21 C32 18.36 32 15.72 32 13 C30.51793505 13.254496 29.03931385 13.52911762 27.5625 13.8125 C26.73878906 13.96332031 25.91507813 14.11414062 25.06640625 14.26953125 C24.38449219 14.51058594 23.70257813 14.75164063 23 15 C22.67 15.99 22.34 16.98 22 18 C21.34 18 20.68 18 20 18 C19.67 18.99 19.34 19.98 19 21 C18.34 20.67 17.68 20.34 17 20 C17.375 18.0625 17.375 18.0625 18 16 C18.66 15.67 19.32 15.34 20 15 C20 14.34 20 13.68 20 13 C16.7 12.34 13.4 11.68 10 11 C9.67 10.01 9.34 9.02 9 8 C6.98491642 7.26676204 6.98491642 7.26676204 5 7 C5 6.34 5 5.68 5 5 C4.01 4.67 3.02 4.34 2 4 C2 3.01 2 2.02 2 1 C1.34 0.67 0.68 0.34 0 0 Z " fill="#F3DE2F" transform="translate(78,17)"/>
<path d="M0 0 C2.64 0 5.28 0 8 0 C8.02486762 4.42911406 8.04293889 8.85819025 8.05493164 13.28735352 C8.05993555 14.7915925 8.06674073 16.29582668 8.07543945 17.80004883 C8.08767884 19.97218009 8.09326786 22.14424659 8.09765625 24.31640625 C8.10551147 26.27235718 8.10551147 26.27235718 8.11352539 28.26782227 C8 32 8 32 7 39 C1.39 39 -4.22 39 -10 39 C-10 31 -10 31 -9 30 C-6.66702567 29.95907063 -4.33294775 29.95758277 -2 30 C-0.99841931 26.6210018 -0.80421884 23.43723472 -0.68359375 19.921875 C-0.64169922 18.76171875 -0.59980469 17.6015625 -0.55664062 16.40625 C-0.49766602 14.59640625 -0.49766602 14.59640625 -0.4375 12.75 C-0.39431641 11.52796875 -0.35113281 10.3059375 -0.30664062 9.046875 C-0.20062645 6.0313608 -0.09856064 3.01576552 0 0 Z " fill="#FDFDDE" transform="translate(89,62)"/>
<path d="M0 0 C0.33 0 0.66 0 1 0 C1 2.64 1 5.28 1 8 C2.918125 7.938125 2.918125 7.938125 4.875 7.875 C7.0546875 7.8046875 7.0546875 7.8046875 9 8 C12.00617269 11.00617269 11.59585316 13.82381598 12 18 C14.64 18.33 17.28 18.66 20 19 C21.70712388 23.45368864 22.24862566 27.13224967 22.24291992 31.89160156 C22.24481827 32.55250793 22.24671661 33.21341431 22.24867249 33.89434814 C22.25235133 36.05989778 22.24172123 38.22510564 22.23046875 40.390625 C22.22927562 41.90183472 22.22882407 43.4130452 22.2290802 44.92425537 C22.22752056 48.08138717 22.21926783 51.23840473 22.20581055 54.39550781 C22.18876309 58.44647391 22.18499816 62.49731537 22.18575573 66.54831314 C22.18548425 69.6640543 22.18000755 72.77976811 22.17275429 75.89550018 C22.16956901 77.38986759 22.16760054 78.88423809 22.16686058 80.3786087 C22.16469882 82.46111882 22.15595992 84.54349509 22.14526367 86.62597656 C22.13954597 88.40418793 22.13954597 88.40418793 22.13371277 90.21832275 C22 93 22 93 21 95 C17.7 95 14.4 95 11 95 C15 93 15 93 19 93 C19 69.24 19 45.48 19 21 C15.37 21 11.74 21 8 21 C8 20.34 8 19.68 8 19 C5.36 19 2.72 19 0 19 C0 12.73 0 6.46 0 0 Z " fill="#633817" transform="translate(121,18)"/>
<path d="M0 0 C0.74507812 0.00451172 1.49015625 0.00902344 2.2578125 0.01367188 C4.0885764 0.02540754 5.91929873 0.0433415 7.75 0.0625 C7.75 0.7225 7.75 1.3825 7.75 2.0625 C1.48 2.0625 -4.79 2.0625 -11.25 2.0625 C-11.25 5.6925 -11.25 9.3225 -11.25 13.0625 C-11.91 13.0625 -12.57 13.0625 -13.25 13.0625 C-13.25 16.3625 -13.25 19.6625 -13.25 23.0625 C-19.78138599 24.04836958 -25.47645857 24.0625 -32.25 24.0625 C-32.25 47.8225 -32.25 71.5825 -32.25 96.0625 C-28.95 96.0625 -25.65 96.0625 -22.25 96.0625 C-22.25 96.7225 -22.25 97.3825 -22.25 98.0625 C-25.88 98.0625 -29.51 98.0625 -33.25 98.0625 C-34.40622493 94.5938252 -34.37706236 91.89621351 -34.37939453 88.23608398 C-34.38114685 87.54635498 -34.38289917 86.85662598 -34.38470459 86.14599609 C-34.38910485 83.86683637 -34.38619186 81.58775426 -34.3828125 79.30859375 C-34.38348599 77.72583501 -34.38445639 76.14307638 -34.38571167 74.56031799 C-34.3871861 71.24405939 -34.38504196 67.92782773 -34.38037109 64.61157227 C-34.3746693 60.35538563 -34.37795726 56.09926199 -34.38394356 51.84307766 C-34.38755206 48.57550072 -34.38640933 45.30793879 -34.38381577 42.0403614 C-34.38314754 40.47063248 -34.3839713 38.9009022 -34.38629532 37.33117485 C-34.38882706 35.14058683 -34.38497408 32.95010181 -34.37939453 30.75952148 C-34.37859894 29.51170395 -34.37780334 28.26388641 -34.37698364 26.97825623 C-34.25 24.0625 -34.25 24.0625 -33.25 22.0625 C-31.18359375 21.6484375 -31.18359375 21.6484375 -28.6875 21.4375 C-27.86121094 21.36273438 -27.03492188 21.28796875 -26.18359375 21.2109375 C-25.22646484 21.13746094 -25.22646484 21.13746094 -24.25 21.0625 C-24.12625 19.78375 -24.0025 18.505 -23.875 17.1875 C-23.5 13.3125 -23.5 13.3125 -21.25 11.0625 C-17.625 10.9375 -17.625 10.9375 -14.25 11.0625 C-13.59 7.7625 -12.93 4.4625 -12.25 1.0625 C-8.06269376 0.01567344 -4.27143069 -0.04905353 0 0 Z " fill="#5E3107" transform="translate(57.25,14.9375)"/>
<path d="M0 0 C1.98 0.66 3.96 1.32 6 2 C5.99476318 2.55461914 5.98952637 3.10923828 5.98413086 3.68066406 C5.96328969 6.20376443 5.95031718 8.72684664 5.9375 11.25 C5.92912109 12.12269531 5.92074219 12.99539062 5.91210938 13.89453125 C5.90888672 14.73886719 5.90566406 15.58320312 5.90234375 16.453125 C5.89710693 17.22817383 5.89187012 18.00322266 5.88647461 18.80175781 C5.92265187 21.00751414 5.92265187 21.00751414 6.56860352 23.09667969 C7 25 7 25 6 28 C5.95635078 29.70777561 5.96016632 31.41713114 6 33.125 C6.03767103 34.74956329 6.04657584 36.37566762 6 38 C5.67 38.33 5.34 38.66 5 39 C4.46178999 42.03025802 4.03443179 45.07076988 3.59765625 48.1171875 C3 51 3 51 1 54 C-5.02643172 57.12481645 -5.02643172 57.12481645 -8.4375 56.6875 C-8.953125 56.460625 -9.46875 56.23375 -10 56 C-9.67 55.01 -9.34 54.02 -9 53 C-13.29 53 -17.58 53 -22 53 C-23.44207941 50.11584117 -23.09394887 47.58278472 -23.0625 44.375 C-23.05347656 43.18648437 -23.04445313 41.99796875 -23.03515625 40.7734375 C-23.02355469 39.85820313 -23.01195313 38.94296875 -23 38 C-22.34 38 -21.68 38 -21 38 C-21 42.29 -21 46.58 -21 51 C-10.605 50.505 -10.605 50.505 0 50 C0.33 36.14 0.66 22.28 1 8 C-2.63 8 -6.26 8 -10 8 C-10 7.34 -10 6.68 -10 6 C-6.7 6 -3.4 6 0 6 C0 4.02 0 2.04 0 0 Z " fill="#EDDB44" transform="translate(99,52)"/>
<path d="M0 0 C0.99 0.495 0.99 0.495 2 1 C2.37890625 2.8125 2.37890625 2.8125 2.5625 5 C2.62665408 7.78932058 2.62665408 7.78932058 4 10 C4.08767112 12.07262076 4.10695873 14.14820294 4.09765625 16.22265625 C4.09443359 17.48271484 4.09121094 18.74277344 4.08789062 20.04101562 C4.07953403 21.38151109 4.07106907 22.72200588 4.0625 24.0625 C4.0574866 25.40689942 4.05292342 26.7513006 4.04882812 28.09570312 C4.03699488 31.39717941 4.02050971 34.69856803 4 38 C4.4125 37.505 4.825 37.01 5.25 36.5 C7 35 7 35 11 35 C11 25.76 11 16.52 11 7 C11.66 7 12.32 7 13 7 C13.01458252 7.73637695 13.02916504 8.47275391 13.04418945 9.23144531 C13.11871111 12.57149004 13.21535873 15.91053981 13.3125 19.25 C13.33505859 20.40886719 13.35761719 21.56773438 13.38085938 22.76171875 C13.41630859 23.87675781 13.45175781 24.99179688 13.48828125 26.140625 C13.51446533 27.16704102 13.54064941 28.19345703 13.56762695 29.25097656 C14.05770561 32.36689166 14.81070391 33.75678672 17 36 C18.485 36.495 18.485 36.495 20 37 C21.9510914 39.6014552 22.92406146 41.45577377 23.375 44.6875 C23.25125 45.450625 23.1275 46.21375 23 47 C20 49 20 49 17.5625 48.625 C16.716875 48.41875 15.87125 48.2125 15 48 C13.68 48 12.36 48 11 48 C11 46.35 11 44.7 11 43 C11.66 43 12.32 43 13 43 C13 42.34 13 41.68 13 41 C12.34 41 11.68 41 11 41 C11 40.34 11 39.68 11 39 C8.03 39 5.06 39 2 39 C2 40.32 2 41.64 2 43 C1.34 43 0.68 43 0 43 C0 28.81 0 14.62 0 0 Z " fill="#F9EF25" transform="translate(44,64)"/>
<path d="M0 0 C3.3 0 6.6 0 10 0 C10 3.3 10 6.6 10 10 C9.01 10 8.02 10 7 10 C6.67 12.97 6.34 15.94 6 19 C5.34 19 4.68 19 4 19 C4 35.83 4 52.66 4 70 C5.32 70 6.64 70 8 70 C8 70.66 8 71.32 8 72 C5.36 72 2.72 72 0 72 C0 48.24 0 24.48 0 0 Z " fill="#AA6D10" transform="translate(25,39)"/>
<path d="M0 0 C0.33 0.66 0.66 1.32 1 2 C3.52733235 2.65555119 3.52733235 2.65555119 6 3 C5.01 3.495 5.01 3.495 4 4 C4 4.66 4 5.32 4 6 C4.66 6 5.32 6 6 6 C6 6.66 6 7.32 6 8 C4.68 8 3.36 8 2 8 C2.33 15.59 2.66 23.18 3 31 C3.33 24.4 3.66 17.8 4 11 C4.66 10.67 5.32 10.34 6 10 C6.05083907 16.99256271 6.08579201 23.98507748 6.10986328 30.9777832 C6.11990158 33.35507997 6.13353504 35.73236445 6.15087891 38.10961914 C6.17522241 41.53274576 6.18650505 44.95570866 6.1953125 48.37890625 C6.20563507 49.43646622 6.21595764 50.49402618 6.22659302 51.58363342 C6.22851948 64.34291908 6.22851948 64.34291908 2.375 68.9375 C1.92125 69.288125 1.4675 69.63875 1 70 C1.99 70.33 2.98 70.66 4 71 C1.525 71.495 1.525 71.495 -1 72 C-0.67 48.24 -0.34 24.48 0 0 Z " fill="#AD6C04" transform="translate(132,41)"/>
<path d="M0 0 C2.64 0 5.28 0 8 0 C9.40912096 2.81824192 9.11183553 5.17251282 9.09765625 8.3203125 C9.09443359 9.57714844 9.09121094 10.83398438 9.08789062 12.12890625 C9.07951172 13.44761719 9.07113281 14.76632813 9.0625 16.125 C9.05748489 17.46484211 9.05292201 18.804686 9.04882812 20.14453125 C9.03701086 23.42973206 9.02053617 26.71484397 9 30 C6.03 30 3.06 30 0 30 C0 20.1 0 10.2 0 0 Z " fill="#FDF12A" transform="translate(78,60)"/>
<path d="M0 0 C10.75 -0.125 10.75 -0.125 13 1 C13.36666894 4.2083532 13.10141219 5.81040329 11.5625 8.6875 C8.02587563 11.87908784 4.68370938 12.57935598 0 13 C-3.5625 12.625 -3.5625 12.625 -6 12 C-6.09796875 12.61488281 -6.1959375 13.22976562 -6.296875 13.86328125 C-7.50972233 20.41893017 -7.50972233 20.41893017 -9.6875 23 C-12.75350686 24.3258408 -15.68994193 24.68172519 -19 25 C-18.97679687 25.62648438 -18.95359375 26.25296875 -18.9296875 26.8984375 C-18.90261719 28.12433594 -18.90261719 28.12433594 -18.875 29.375 C-18.85179687 30.18710937 -18.82859375 30.99921875 -18.8046875 31.8359375 C-19 34 -19 34 -21 36 C-24.693507 36.20146402 -27.47940432 36.17353189 -31 35 C-31 34.01 -31 33.02 -31 32 C-28.03 31.67 -25.06 31.34 -22 31 C-21.690625 29.88625 -21.38125 28.7725 -21.0625 27.625 C-20 24 -20 24 -19 22 C-16.36 22 -13.72 22 -11 22 C-10.67 18.37 -10.34 14.74 -10 11 C-6.7 11 -3.4 11 0 11 C0 7.37 0 3.74 0 0 Z " fill="#F6F64A" transform="translate(67,17)"/>
<path d="M0 0 C0.33 0 0.66 0 1 0 C1 20.46 1 40.92 1 62 C9.87268146 61.71199066 9.87268146 61.71199066 13 60 C13.66 60.66 14.32 61.32 15 62 C15.66 60.68 16.32 59.36 17 58 C18 59 18 59 18.09765625 61.50390625 C18.08605469 62.51324219 18.07445313 63.52257812 18.0625 64.5625 C18.05347656 65.57441406 18.04445313 66.58632812 18.03515625 67.62890625 C18.02355469 68.41136719 18.01195313 69.19382812 18 70 C19.485 69.505 19.485 69.505 21 69 C21.495 69.495 21.495 69.495 22 70 C23.27875 69.95875 24.5575 69.9175 25.875 69.875 C29.74095683 69.80571762 29.74095683 69.80571762 32 71.5 C32.33 71.995 32.66 72.49 33 73 C32.67 73.66 32.34 74.32 32 75 C25.07 75 18.14 75 11 75 C11 71.37 11 67.74 11 64 C7.37 64 3.74 64 0 64 C0 42.88 0 21.76 0 0 Z " fill="#EEC930" transform="translate(35,49)"/>
<path d="M0 0 C1.32 0.33 2.64 0.66 4 1 C4 2.65 4 4.3 4 6 C3.34 6 2.68 6 2 6 C2.33 8.97 2.66 11.94 3 15 C3.66 15 4.32 15 5 15 C5.33 14.34 5.66 13.68 6 13 C8.40246386 15.40246386 7.85411759 20.76705753 8 24 C7.84705627 25.99572912 7.57358841 27.93062636 7.2578125 29.90625 C6.76377751 33.91841292 6.92557589 37.96455931 7 42 C6.21625 42.2475 5.4325 42.495 4.625 42.75 C1.54375423 43.88704012 1.54375423 43.88704012 0 48 C0 32.16 0 16.32 0 0 Z " fill="#F7E02A" transform="translate(57,49)"/>
<path d="M0 0 C9.57 0 19.14 0 29 0 C29 2.64 29 5.28 29 8 C19.43 8 9.86 8 0 8 C0 5.36 0 2.72 0 0 Z " fill="#AA6D09" transform="translate(68,135)"/>
<path d="M0 0 C1.22493164 -0.01836914 1.22493164 -0.01836914 2.47460938 -0.03710938 C7.88181365 -0.05003496 12.49377644 0.67540327 17.6875 2.1875 C19.6875 8.8125 19.6875 8.8125 19.6875 12.1875 C20.780625 12.001875 21.87375 11.81625 23 11.625 C28.29445693 10.94061778 33.41231308 11.55719274 38.6875 12.1875 C38.6875 12.5175 38.6875 12.8475 38.6875 13.1875 C31.7575 13.1875 24.8275 13.1875 17.6875 13.1875 C17.6875 12.5275 17.6875 11.8675 17.6875 11.1875 C17.0275 11.1875 16.3675 11.1875 15.6875 11.1875 C15.6875 10.5275 15.6875 9.8675 15.6875 9.1875 C14.945 9.22875 14.2025 9.27 13.4375 9.3125 C10.6875 9.1875 10.6875 9.1875 8.90625 8.21875 C6.05307866 6.89262811 3.56816556 6.76667384 0.4375 6.5625 C-0.64015625 6.48773437 -1.7178125 6.41296875 -2.828125 6.3359375 C-3.64796875 6.28695313 -4.4678125 6.23796875 -5.3125 6.1875 C-5.3125 5.8575 -5.3125 5.5275 -5.3125 5.1875 C1.6175 5.1875 8.5475 5.1875 15.6875 5.1875 C15.6875 4.5275 15.6875 3.8675 15.6875 3.1875 C5.7875 3.1875 -4.1125 3.1875 -14.3125 3.1875 C-14.3125 5.8275 -14.3125 8.4675 -14.3125 11.1875 C-14.9725 11.1875 -15.6325 11.1875 -16.3125 11.1875 C-16.5625 4.5625 -16.5625 4.5625 -14.3125 1.1875 C-9.75158473 -0.32117752 -4.75817078 0.00370286 0 0 Z " fill="#6B3E12" transform="translate(81.3125,3.8125)"/>
<path d="M0 0 C6.93 0 13.86 0 21 0 C21 2.97 21 5.94 21 9 C14.07 9 7.14 9 0 9 C0 6.03 0 3.06 0 0 Z " fill="#9C6F31" transform="translate(46,124)"/>
<path d="M0 0 C0.66 0 1.32 0 2 0 C2 3.63 2 7.26 2 11 C-4.93 11 -11.86 11 -19 11 C-19 13.97 -19 16.94 -19 20 C-19.33 20.66 -19.66 21.32 -20 22 C-30.56 22 -41.12 22 -52 22 C-52 18.37 -52 14.74 -52 11 C-51.67 11 -51.34 11 -51 11 C-51 13.97 -51 16.94 -51 20 C-50.34 19.67 -49.68 19.34 -49 19 C-46.89471067 18.91456105 -44.78668843 18.89285275 -42.6796875 18.90234375 C-41.42285156 18.90556641 -40.16601562 18.90878906 -38.87109375 18.91210938 C-37.55238281 18.92048828 -36.23367187 18.92886719 -34.875 18.9375 C-33.53515789 18.94251511 -32.195314 18.94707799 -30.85546875 18.95117188 C-27.57026794 18.96298914 -24.28515603 18.97946383 -21 19 C-21.33 16.36 -21.66 13.72 -22 11 C-21.34 11 -20.68 11 -20 11 C-20 10.34 -20 9.68 -20 9 C-13.4 9 -6.8 9 0 9 C0 6.03 0 3.06 0 0 Z " fill="#E3BB35" transform="translate(119,113)"/>
<path d="M0 0 C9.57 0 19.14 0 29 0 C29 2.31 29 4.62 29 7 C27 4 27 4 27 2 C25.39504433 2.11442461 23.79101881 2.24194694 22.1875 2.375 C21.29417969 2.44460937 20.40085937 2.51421875 19.48046875 2.5859375 C16.75601501 2.86645036 16.75601501 2.86645036 14 5 C14 4.34 14 3.68 14 3 C12.56344146 2.91868537 11.1255517 2.86066441 9.6875 2.8125 C8.88699219 2.77769531 8.08648437 2.74289063 7.26171875 2.70703125 C4.43002731 3.07383066 3.75636949 3.79491971 2 6 C1.56919115 7.9095567 1.56919115 7.9095567 1.65942383 10.01245117 C1.65965042 10.81305466 1.65987701 11.61365814 1.66011047 12.43852234 C1.67559433 13.29798965 1.69107819 14.15745697 1.70703125 15.04296875 C1.71127609 15.9265657 1.71552094 16.81016266 1.71989441 17.72053528 C1.73668957 20.54316661 1.77434303 23.36508441 1.8125 26.1875 C1.82754577 28.10090115 1.84123436 30.01431349 1.85351562 31.92773438 C1.88659581 36.61876459 1.9383837 41.30926131 2 46 C3.65 46.33 5.3 46.66 7 47 C7 47.99 7 48.98 7 50 C5.35 50 3.7 50 2 50 C2 50.66 2 51.32 2 52 C1.34 52 0.68 52 0 52 C0 34.84 0 17.68 0 0 Z " fill="#DA9001" transform="translate(68,50)"/>
<path d="M0 0 C6.27 0 12.54 0 19 0 C19 2.97 19 5.94 19 9 C12.73 9 6.46 9 0 9 C0 6.03 0 3.06 0 0 Z " fill="#AD6D15" transform="translate(100,124)"/>
<path d="M0 0 C0.33 0 0.66 0 1 0 C1.33 9.9 1.66 19.8 2 30 C-1.96 30.495 -1.96 30.495 -6 31 C-6.99 31.33 -7.98 31.66 -9 32 C-9 34.97 -9 37.94 -9 41 C-15.6 41 -22.2 41 -29 41 C-29.33 41.66 -29.66 42.32 -30 43 C-29.67 41.35 -29.34 39.7 -29 38 C-25.79074369 36.9569917 -23.74548967 37.08722617 -20.5 37.9375 C-17.40991351 38.73647784 -15.28070186 39 -12 39 C-11.67 37.68 -11.34 36.36 -11 35 C-12.98 35 -14.96 35 -17 35 C-16.67 34.01 -16.34 33.02 -16 32 C-14.02 32.33 -12.04 32.66 -10 33 C-10.495 30.525 -10.495 30.525 -11 28 C-8.24921116 27.08307039 -6.64051087 26.89113917 -3.8125 26.9375 C-1.9253125 26.9684375 -1.9253125 26.9684375 0 27 C-0.16242188 26.19949219 -0.32484375 25.39898437 -0.4921875 24.57421875 C-1.10116516 20.28795292 -1.14603142 16.13445602 -1.125 11.8125 C-1.13080078 10.60303711 -1.13080078 10.60303711 -1.13671875 9.36914062 C-1.13542969 8.59376953 -1.13414063 7.81839844 -1.1328125 7.01953125 C-1.13168457 6.31932861 -1.13055664 5.61912598 -1.12939453 4.89770508 C-1 3 -1 3 0 0 Z " fill="#FDE736" transform="translate(128,81)"/>
<path d="M0 0 C0.74507812 0.00451172 1.49015625 0.00902344 2.2578125 0.01367188 C4.0885764 0.02540754 5.91929873 0.0433415 7.75 0.0625 C7.75 0.7225 7.75 1.3825 7.75 2.0625 C1.48 2.0625 -4.79 2.0625 -11.25 2.0625 C-11.25 5.6925 -11.25 9.3225 -11.25 13.0625 C-11.91 13.0625 -12.57 13.0625 -13.25 13.0625 C-13.25 16.3625 -13.25 19.6625 -13.25 23.0625 C-16.22 23.3925 -19.19 23.7225 -22.25 24.0625 C-22.27686553 22.08340602 -22.29633375 20.10421029 -22.3125 18.125 C-22.32410156 17.02285156 -22.33570313 15.92070312 -22.34765625 14.78515625 C-22.25 12.0625 -22.25 12.0625 -21.25 11.0625 C-18.91702567 11.02157063 -16.58294775 11.02008277 -14.25 11.0625 C-13.59 7.7625 -12.93 4.4625 -12.25 1.0625 C-8.06269376 0.01567344 -4.27143069 -0.04905353 0 0 Z " fill="#967310" transform="translate(57.25,14.9375)"/>
<path d="M0 0 C1.32 0.33 2.64 0.66 4 1 C4 1.99 4 2.98 4 4 C5.98 4.66 7.96 5.32 10 6 C10 6.66 10 7.32 10 8 C16.93 8.33 23.86 8.66 31 9 C31 7.35 31 5.7 31 4 C31.33 4 31.66 4 32 4 C32.495 8.455 32.495 8.455 33 13 C23.1 13.33 13.2 13.66 3 14 C2.67 10.04 2.34 6.08 2 2 C1.34 1.34 0.68 0.68 0 0 Z " fill="#FADF2C" transform="translate(65,119)"/>
<path d="M0 0 C2.64 0 5.28 0 8 0 C8.02486762 4.42911406 8.04293889 8.85819025 8.05493164 13.28735352 C8.05993555 14.7915925 8.06674073 16.29582668 8.07543945 17.80004883 C8.08767884 19.97218009 8.09326786 22.14424659 8.09765625 24.31640625 C8.10551147 26.27235718 8.10551147 26.27235718 8.11352539 28.26782227 C8 32 8 32 7 39 C1.39 39 -4.22 39 -10 39 C-10 31 -10 31 -9 30 C-6.66702567 29.95907063 -4.33294775 29.95758277 -2 30 C-0.99841931 26.6210018 -0.80421884 23.43723472 -0.68359375 19.921875 C-0.64169922 18.76171875 -0.59980469 17.6015625 -0.55664062 16.40625 C-0.49766602 14.59640625 -0.49766602 14.59640625 -0.4375 12.75 C-0.39431641 11.52796875 -0.35113281 10.3059375 -0.30664062 9.046875 C-0.20062645 6.0313608 -0.09856064 3.01576552 0 0 Z M3.46508789 2.21923828 C1.62905784 4.45086688 1.60731076 5.63042782 1.55859375 8.4921875 C1.53216797 9.36230469 1.50574219 10.23242188 1.47851562 11.12890625 C1.46498047 12.03511719 1.45144531 12.94132812 1.4375 13.875 C1.29980535 20.98412377 1.03852612 25.94221083 -3 32 C-6.125 33.1875 -6.125 33.1875 -9 34 C-9 35.32 -9 36.64 -9 38 C-7.25008666 38.02715383 -5.50005055 38.04646551 -3.75 38.0625 C-2.77546875 38.07410156 -1.8009375 38.08570313 -0.796875 38.09765625 C1.65758678 38.01195577 3.66168914 37.70706066 6 37 C7.14535961 30.61871077 7.14853112 24.34605903 7.125 17.875 C7.12886719 16.80378906 7.13273437 15.73257813 7.13671875 14.62890625 C7.13542969 13.59378906 7.13414063 12.55867188 7.1328125 11.4921875 C7.13168457 10.55745605 7.13055664 9.62272461 7.12939453 8.65966797 C7.00063534 6.01305925 6.58820414 3.58003743 6 1 C4.80379969 0.89633538 4.80379969 0.89633538 3.46508789 2.21923828 Z " fill="#FDFCBD" transform="translate(89,62)"/>
<path d="M0 0 C0.99 0.33 1.98 0.66 3 1 C3.33 1.99 3.66 2.98 4 4 C-1.0940919 9.88183807 -1.0940919 9.88183807 -4.875 10.375 C-5.57625 10.25125 -6.2775 10.1275 -7 10 C-6.938125 11.3303125 -6.938125 11.3303125 -6.875 12.6875 C-6.99937657 15.98347917 -7.64419382 18.03417399 -9 21 C-9 21.33 -9 21.66 -9 22 C-11.31 22.33 -13.62 22.66 -16 23 C-16.25 17.375 -16.25 17.375 -14 14 C-14.33 14 -14.66 14 -15 14 C-15 12.35 -15 10.7 -15 9 C-16.32 8.67 -17.64 8.34 -19 8 C-18.41992188 8.02320313 -17.83984375 8.04640625 -17.2421875 8.0703125 C-12.46341128 8.18071327 -8.34916082 8.22515205 -4 6 C-1.61384998 3.00628895 -1.61384998 3.00628895 0 0 Z " fill="#F7F52A" transform="translate(80,21)"/>
<path d="M0 0 C0.66 0.33 1.32 0.66 2 1 C3.64665997 8.02160667 3.1556688 15.81367803 3.25 23 C3.27143066 23.93231445 3.29286133 24.86462891 3.31494141 25.82519531 C3.31929199 26.70788086 3.32364258 27.59056641 3.328125 28.5 C3.3374707 29.2940625 3.34681641 30.088125 3.35644531 30.90625 C2.91690677 33.48808738 1.98776045 34.36255773 0 36 C-4.13504287 31.86495713 -2.14464355 18.64934665 -2.1875 13 C-2.20695679 11.60152832 -2.20695679 11.60152832 -2.22680664 10.17480469 C-2.22801514 9.29211914 -2.22922363 8.40943359 -2.23046875 7.5 C-2.23457764 6.7059375 -2.23868652 5.911875 -2.24291992 5.09375 C-2 3 -2 3 0 0 Z " fill="#EA8B0F" transform="translate(71,53)"/>
<path d="M0 0 C0.66 0.33 1.32 0.66 2 1 C1.67 1.66 1.34 2.32 1 3 C0.34 3 -0.32 3 -1 3 C-0.80528889 4.94999129 -0.80528889 4.94999129 0 7 C1.32467746 7.6837045 2.65863633 8.34964186 4 9 C6.02057911 12.12591333 6.22169958 14.57541584 6.125 18.25 C6.10695313 19.14203125 6.08890625 20.0340625 6.0703125 20.953125 C6.03550781 21.96632813 6.03550781 21.96632813 6 23 C4.35 23.33 2.7 23.66 1 24 C1 22.35 1 20.7 1 19 C0.01 19.33 -0.98 19.66 -2 20 C-3.82855428 15.40767665 -4.12514462 12.02641732 -3.625 7.125 C-3.51414063 5.97257812 -3.40328125 4.82015625 -3.2890625 3.6328125 C-3.19367187 2.76398437 -3.09828125 1.89515625 -3 1 C-2.01 0.67 -1.02 0.34 0 0 Z " fill="#FCF72A" transform="translate(51,41)"/>
<path d="M0 0 C3.3 0 6.6 0 10 0 C10 3.3 10 6.6 10 10 C9.34 9.67 8.68 9.34 8 9 C8 6.69 8 4.38 8 2 C6.02 2 4.04 2 2 2 C1.67 24.44 1.34 46.88 1 70 C3.31 70 5.62 70 8 70 C8 70.66 8 71.32 8 72 C5.36 72 2.72 72 0 72 C0 48.24 0 24.48 0 0 Z " fill="#AA7436" transform="translate(25,39)"/>
<path d="M0 0 C19.00455581 0.59453303 19.00455581 0.59453303 27 4 C27 4.66 27 5.32 27 6 C18.09 6 9.18 6 0 6 C0 4.02 0 2.04 0 0 Z " fill="#A86D13" transform="translate(70,9)"/>
<path d="M0 0 C1.47668858 0.0133035 2.95331108 0.03716415 4.4296875 0.0703125 C5.18378906 0.07933594 5.93789063 0.08835937 6.71484375 0.09765625 C8.57826004 0.1212438 10.44151343 0.15711531 12.3046875 0.1953125 C12.3046875 2.5053125 12.3046875 4.8153125 12.3046875 7.1953125 C6.6946875 7.1953125 1.0846875 7.1953125 -4.6953125 7.1953125 C-5.0253125 5.5453125 -5.3553125 3.8953125 -5.6953125 2.1953125 C-3.6953125 0.1953125 -3.6953125 0.1953125 0 0 Z " fill="#A77212" transform="translate(52.6953125,18.8046875)"/>
<path d="M0 0 C0.99 0.33 1.98 0.66 3 1 C2.8246875 1.69996094 2.649375 2.39992187 2.46875 3.12109375 C1.95474197 6.27795972 2.14696952 8.88923735 2.5 12.0625 C3.11481859 17.6028539 3.11481859 17.6028539 2.51586914 19.67456055 C1.7527661 23.11448317 1.87805968 26.54191375 1.90234375 30.046875 C1.9037587 30.81807678 1.90517365 31.58927856 1.90663147 32.3838501 C1.91221466 34.83927338 1.92476405 37.29460442 1.9375 39.75 C1.94251717 41.41796743 1.9470797 43.08593629 1.95117188 44.75390625 C1.96217859 48.83597287 1.97943164 52.91797081 2 57 C4.64 57 7.28 57 10 57 C10.33 57.66 10.66 58.32 11 59 C7.37 59 3.74 59 0 59 C0 39.53 0 20.06 0 0 Z " fill="#FEDD40" transform="translate(36,52)"/>
<path d="M0 0 C12.87 0.495 12.87 0.495 26 1 C26.33 2.32 26.66 3.64 27 5 C18.09 5 9.18 5 0 5 C-0.33 4.01 -0.66 3.02 -1 2 C-0.67 1.34 -0.34 0.68 0 0 Z " fill="#F2E21B" transform="translate(71,38)"/>
<path d="M0 0 C0.33 0 0.66 0 1 0 C2.19709534 6.32252299 3.24193278 12.61057629 4 19 C4.2475 20.093125 4.495 21.18625 4.75 22.3125 C5 25 5 25 3.5625 26.875 C3.046875 27.24625 2.53125 27.6175 2 28 C-0.475 27.01 -0.475 27.01 -3 26 C-2.85879286 24.06215735 -2.71187127 22.12473045 -2.5625 20.1875 C-2.48128906 19.10855469 -2.40007812 18.02960938 -2.31640625 16.91796875 C-2 14 -2 14 -1 11 C-1 9.68 -1 8.36 -1 7 C-1 3 -1 3 0 0 Z " fill="#F5E32B" transform="translate(105,77)"/>
<path d="M0 0 C0.99 0.33 1.98 0.66 3 1 C3 10.24 3 19.48 3 29 C0.03 29 -2.94 29 -6 29 C-5.67 27.68 -5.34 26.36 -5 25 C-1.9375 23.75 -1.9375 23.75 1 23 C0.84402344 21.92621094 0.68804687 20.85242188 0.52734375 19.74609375 C0.33022798 18.30996454 0.13364159 16.87376259 -0.0625 15.4375 C-0.16626953 14.73302734 -0.27003906 14.02855469 -0.37695312 13.30273438 C-1.0046656 8.60571341 -0.87579081 4.66067698 0 0 Z " fill="#F6F63E" transform="translate(84,61)"/>
<path d="M0 0 C7.26 0 14.52 0 22 0 C22 3.63 22 7.26 22 11 C20 11 20 11 17.875 9.125 C16 7 16 7 16 5 C15.09636719 4.86722656 14.19273438 4.73445313 13.26171875 4.59765625 C12.08222656 4.42105469 10.90273437 4.24445312 9.6875 4.0625 C8.51574219 3.88847656 7.34398438 3.71445312 6.13671875 3.53515625 C3 3 3 3 0 2 C0 1.34 0 0.68 0 0 Z " fill="#976528" transform="translate(99,17)"/>
<path d="M0 0 C0.33 0 0.66 0 1 0 C1.02464574 5.96313166 1.042834 11.92623395 1.05493164 17.8894043 C1.05997278 19.91968298 1.06680557 21.94995802 1.07543945 23.98022461 C1.08751467 26.89177347 1.09323034 29.8032745 1.09765625 32.71484375 C1.10281754 33.6283812 1.10797882 34.54191864 1.11329651 35.48313904 C1.11349168 37.65575427 1.06211805 39.82827296 1 42 C0 43 0 43 -2.04125977 43.11352539 C-3.35308228 43.10567017 -3.35308228 43.10567017 -4.69140625 43.09765625 C-5.63564453 43.09443359 -6.57988281 43.09121094 -7.55273438 43.08789062 C-8.54595703 43.07951172 -9.53917969 43.07113281 -10.5625 43.0625 C-11.55958984 43.05798828 -12.55667969 43.05347656 -13.58398438 43.04882812 C-16.05601487 43.03700023 -18.52801472 43.01906415 -21 43 C-21 38.71 -21 34.42 -21 30 C-18.03 30 -15.06 30 -12 30 C-12 30.66 -12 31.32 -12 32 C-15.465 32.495 -15.465 32.495 -19 33 C-19.33 35.97 -19.66 38.94 -20 42 C-14.06 42 -8.12 42 -2 42 C-0.8274514 33.33890569 -0.66593792 24.66196363 -0.4375 15.9375 C-0.39422008 14.38866234 -0.35060308 12.83983406 -0.30664062 11.29101562 C-0.20053934 7.52744068 -0.09900464 3.76376805 0 0 Z " fill="#F4ED80" transform="translate(99,60)"/>
<path d="M0 0 C1.77049689 -0.05410687 3.54146849 -0.09284119 5.3125 -0.125 C6.29863281 -0.14820313 7.28476563 -0.17140625 8.30078125 -0.1953125 C11 0 11 0 14 2 C14.22022374 4.89185011 14.25457545 7.55356823 14.14453125 10.4375 C14.12283371 11.27337646 14.10113617 12.10925293 14.07878113 12.97045898 C14.02946397 14.7393136 13.97264269 16.50797237 13.90893555 18.27636719 C13.81289906 20.98872927 13.74347277 23.700815 13.67773438 26.4140625 C13.62658137 28.1302562 13.57389838 29.84640512 13.51953125 31.5625 C13.49856888 32.37710693 13.47760651 33.19171387 13.45600891 34.03100586 C13.23117127 39.76882873 13.23117127 39.76882873 11 42 C11 28.8 11 15.6 11 2 C7.37 2 3.74 2 0 2 C0 1.34 0 0.68 0 0 Z " fill="#E7D456" transform="translate(89,58)"/>
<path d="M0 0 C10.89 0 21.78 0 33 0 C32.67 2.97 32.34 5.94 32 9 C31.34 9 30.68 9 30 9 C30 6.36 30 3.72 30 1 C20.43 1 10.86 1 1 1 C1 18.16 1 35.32 1 53 C0.67 53 0.34 53 0 53 C0 35.51 0 18.02 0 0 Z " fill="#E5A70F" transform="translate(67,49)"/>
<path d="M0 0 C1.65 0 3.3 0 5 0 C5 3.3 5 6.6 5 10 C0.02936879 10.91297308 -4.02936879 10.91297308 -9 10 C-9.33 10.99 -9.66 11.98 -10 13 C-12.0625 13.6875 -12.0625 13.6875 -14 14 C-13.6875 12.125 -13.6875 12.125 -13 10 C-9.77208445 7.8480563 -8.71599191 7.79913557 -5 8 C-4.34 6.02 -3.68 4.04 -3 2 C-2.01 2 -1.02 2 0 2 C0 1.34 0 0.68 0 0 Z " fill="#FAF42A" transform="translate(124,39)"/>
<path d="M0 0 C3.3 0 6.6 0 10 0 C10.33 1.65 10.66 3.3 11 5 C9.68 5.33 8.36 5.66 7 6 C7.33 7.65 7.66 9.3 8 11 C1.125 10.125 1.125 10.125 0 9 C-0.14193337 5.99668982 -0.04236378 3.00782866 0 0 Z " fill="#F5E51C" transform="translate(110,103)"/>
<path d="M0 0 C3.3 0 6.6 0 10 0 C10 3.63 10 7.26 10 11 C9.34 11 8.68 11 8 11 C8 10.34 8 9.68 8 9 C5.36 9 2.72 9 0 9 C0 6.03 0 3.06 0 0 Z " fill="#B0820A" transform="translate(36,113)"/>
<path d="M0 0 C1.98 0 3.96 0 6 0 C6 23.76 6 47.52 6 72 C4.68 72 3.36 72 2 72 C2 71.34 2 70.68 2 70 C2.66 70 3.32 70 4 70 C4.33 47.56 4.66 25.12 5 2 C3.35 2 1.7 2 0 2 C0 1.34 0 0.68 0 0 Z " fill="#AB722F" transform="translate(134,39)"/>
<path d="M0 0 C0 2.64 0 5.28 0 8 C2.31 8.33 4.62 8.66 7 9 C6.67 11.64 6.34 14.28 6 17 C4.02 17 2.04 17 0 17 C0 16.34 0 15.68 0 15 C1.65 15 3.3 15 5 15 C5 13.68 5 12.36 5 11 C3.948125 11.061875 3.948125 11.061875 2.875 11.125 C-0.4756284 10.9793205 -2.93442452 10.36247799 -6 9 C-7.7474262 6.72074843 -8.07552471 5.66084118 -7.75 2.8125 C-6.27065435 -0.76258533 -3.41086236 -0.08975954 0 0 Z " fill="#EEE51D" transform="translate(110,30)"/>
<path d="M0 0 C3.3 0 6.6 0 10 0 C10 2.97 10 5.94 10 9 C6.7 9 3.4 9 0 9 C0 6.03 0 3.06 0 0 Z " fill="#9F730A" transform="translate(121,113)"/>
<path d="M0 0 C0 16.83 0 33.66 0 51 C-0.66 51 -1.32 51 -2 51 C-2 40.77 -2 30.54 -2 20 C-2.33 20 -2.66 20 -3 20 C-3.33 14.39 -3.66 8.78 -4 3 C-4.99 2.67 -5.98 2.34 -7 2 C-1.125 0 -1.125 0 0 0 Z " fill="#F5E810" transform="translate(110,48)"/>
<path d="M0 0 C1.37478516 0.01740234 1.37478516 0.01740234 2.77734375 0.03515625 C3.69644531 0.04417969 4.61554688 0.05320313 5.5625 0.0625 C6.27277344 0.07410156 6.98304687 0.08570313 7.71484375 0.09765625 C8.37484375 2.07765625 9.03484375 4.05765625 9.71484375 6.09765625 C7.07484375 6.09765625 4.43484375 6.09765625 1.71484375 6.09765625 C1.71484375 6.75765625 1.71484375 7.41765625 1.71484375 8.09765625 C-1.91515625 8.09765625 -5.54515625 8.09765625 -9.28515625 8.09765625 C-9.28515625 7.43765625 -9.28515625 6.77765625 -9.28515625 6.09765625 C-6.64515625 5.76765625 -4.00515625 5.43765625 -1.28515625 5.09765625 C-1.94515625 3.77765625 -2.60515625 2.45765625 -3.28515625 1.09765625 C-2.28515625 0.09765625 -2.28515625 0.09765625 0 0 Z " fill="#E29C20" transform="translate(87.28515625,51.90234375)"/>
<path d="M0 0 C2.64 0 5.28 0 8 0 C8.66 3.63 9.32 7.26 10 11 C9.34 11 8.68 11 8 11 C8 10.34 8 9.68 8 9 C5.36 9 2.72 9 0 9 C0 6.03 0 3.06 0 0 Z " fill="#9C7A07" transform="translate(121,28)"/>
<path d="M0 0 C2.875 -0.1875 2.875 -0.1875 6 0 C8.29013653 3.4352048 8.17842973 4.985331 8 9 C5.625 9.625 5.625 9.625 3 10 C2.34 9.34 1.68 8.68 1 8 C0.01 8.33 -0.98 8.66 -2 9 C-2 7.35 -2 5.7 -2 4 C-1.34 4 -0.68 4 0 4 C0 2.68 0 1.36 0 0 Z " fill="#FDF72A" transform="translate(57,103)"/>
<path d="M0 0 C0.74507812 0.00451172 1.49015625 0.00902344 2.2578125 0.01367188 C4.0885764 0.02540754 5.91929873 0.0433415 7.75 0.0625 C7.75 0.7225 7.75 1.3825 7.75 2.0625 C1.48 2.0625 -4.79 2.0625 -11.25 2.0625 C-11.25 5.6925 -11.25 9.3225 -11.25 13.0625 C-14.88 13.0625 -18.51 13.0625 -22.25 13.0625 C-21.92 12.4025 -21.59 11.7425 -21.25 11.0625 C-18.94 11.0625 -16.63 11.0625 -14.25 11.0625 C-13.59 7.7625 -12.93 4.4625 -12.25 1.0625 C-8.06269376 0.01567344 -4.27143069 -0.04905353 0 0 Z " fill="#482502" transform="translate(57.25,14.9375)"/>
<path d="M0 0 C4.62 0 9.24 0 14 0 C14 1.98 14 3.96 14 6 C10.04 6 6.08 6 2 6 C1.34 4.02 0.68 2.04 0 0 Z " fill="#AB7805" transform="translate(53,124)"/>
<path d="M0 0 C0.99 0.99 1.98 1.98 3 3 C2.69558716 4.90689087 2.69558716 4.90689087 2 7 C1.91168554 8.49459649 1.87214755 9.99254346 1.87060547 11.48974609 C1.86745331 12.37101166 1.86430115 13.25227722 1.86105347 14.1602478 C1.8630777 15.1051004 1.86510193 16.049953 1.8671875 17.0234375 C1.86623077 18.00236969 1.86527405 18.98130188 1.86428833 19.98989868 C1.86360832 22.05934717 1.86545016 24.12879781 1.86962891 26.19824219 C1.87496816 29.35616894 1.86968377 32.51395273 1.86328125 35.671875 C1.86394229 37.68489615 1.86522398 39.6979172 1.8671875 41.7109375 C1.86516327 42.65174164 1.86313904 43.59254578 1.86105347 44.56185913 C1.87736855 49.15577973 2.05710187 53.48026886 3 58 C2.01 58 1.02 58 0 58 C0 38.86 0 19.72 0 0 Z " fill="#AE7127" transform="translate(26,51)"/>
<path d="M0 0 C2.97 0 5.94 0 9 0 C8.67 2.97 8.34 5.94 8 9 C3.25 10.125 3.25 10.125 1 9 C0.40227901 6.0170339 0.25662185 3.03669195 0 0 Z " fill="#FDEF2D" transform="translate(109,29)"/>
<path d="M0 0 C0.33 0 0.66 0 1 0 C1 2.64 1 5.28 1 8 C2.918125 7.938125 2.918125 7.938125 4.875 7.875 C7.0546875 7.8046875 7.0546875 7.8046875 9 8 C12.00617269 11.00617269 11.59585316 13.82381598 12 18 C13.299375 18.12375 14.59875 18.2475 15.9375 18.375 C18.15234375 18.5859375 18.15234375 18.5859375 20 19 C20.33 19.66 20.66 20.32 21 21 C17.37 21 13.74 21 10 21 C8.22002971 16.55007426 7.78777281 14.56288469 8 10 C5.36 10 2.72 10 0 10 C0 6.7 0 3.4 0 0 Z " fill="#562E0B" transform="translate(121,18)"/>
<path d="M0 0 C0.66 0 1.32 0 2 0 C2 3.63 2 7.26 2 11 C-4.93 11 -11.86 11 -19 11 C-19 13.97 -19 16.94 -19 20 C-19.33 20 -19.66 20 -20 20 C-20 16.37 -20 12.74 -20 9 C-13.4 9 -6.8 9 0 9 C0 6.03 0 3.06 0 0 Z " fill="#DBB724" transform="translate(119,113)"/>
<path d="M0 0 C2.875 -0.125 2.875 -0.125 6 0 C8 2 8 2 8.125 5.625 C8.08375 6.73875 8.0425 7.8525 8 9 C5.36 9 2.72 9 0 9 C0 6.03 0 3.06 0 0 Z " fill="#FEF7BB" transform="translate(36,39)"/>
<path d="M0 0 C2.33294775 -0.04241723 4.66702567 -0.04092937 7 0 C7.33 0.33 7.66 0.66 8 1 C7.28 7.72 7.28 7.72 6 9 C4.00041636 9.04080783 1.99954746 9.04254356 0 9 C0 6.03 0 3.06 0 0 Z " fill="#F4E7AA" transform="translate(67,17)"/>
<path d="M0 0 C0.99 0.33 1.98 0.66 3 1 C3.33 1.99 3.66 2.98 4 4 C0.63073751 8.16724571 -1.51398473 10.3458661 -6.9375 11 C-11.3757789 11.20814924 -14.8505077 10.53350802 -19 9 C-19 8.67 -19 8.34 -19 8 C-18.41992188 8.02320313 -17.83984375 8.04640625 -17.2421875 8.0703125 C-12.46341128 8.18071327 -8.34916082 8.22515205 -4 6 C-1.61384998 3.00628895 -1.61384998 3.00628895 0 0 Z " fill="#F3FA3D" transform="translate(80,21)"/>
<path d="M0 0 C5.61 0 11.22 0 17 0 C16.34 1.65 15.68 3.3 15 5 C13.7315625 4.5359375 13.7315625 4.5359375 12.4375 4.0625 C8.9502146 2.98461179 5.61822465 2.43418696 2 2 C2.33 3.65 2.66 5.3 3 7 C2.01 7.33 1.02 7.66 0 8 C0 5.36 0 2.72 0 0 Z " fill="#B26F02" transform="translate(100,124)"/>
<path d="M0 0 C2.875 -0.125 2.875 -0.125 6 0 C6.66 0.66 7.32 1.32 8 2 C7.67028521 5.29714793 7.3773161 6.6226839 5 9 C2.375 9.125 2.375 9.125 0 9 C0 6.03 0 3.06 0 0 Z " fill="#FDF2D0" transform="translate(46,28)"/>
<path d="M0 0 C0.66 1.32 1.32 2.64 2 4 C10.25 4 18.5 4 27 4 C27 2.68 27 1.36 27 0 C27.66 0 28.32 0 29 0 C29 1.98 29 3.96 29 6 C19.43 6 9.86 6 0 6 C0 4.02 0 2.04 0 0 Z " fill="#A8762F" transform="translate(68,137)"/>
<path d="M0 0 C1.32 0 2.64 0 4 0 C3.90651593 3.95141222 3.80043512 7.9022637 3.68261719 11.85302734 C3.62545964 13.85886971 3.57831404 15.86498918 3.53125 17.87109375 C3.49257812 19.12792969 3.45390625 20.38476562 3.4140625 21.6796875 C3.3826416 22.84226074 3.3512207 24.00483398 3.31884766 25.20263672 C3 28 3 28 1 30 C0.67 20.1 0.34 10.2 0 0 Z " fill="#F9F87E" transform="translate(86,60)"/>
<path d="M0 0 C2.97 0.495 2.97 0.495 6 1 C6.37534065 4.28423071 6.07462392 5.86008015 4.5 8.8125 C1.75646801 11.21309049 1.20874593 11.3125 -2.25 11.3125 C-3.4875 11.209375 -4.725 11.10625 -6 11 C-6 10.34 -6 9.68 -6 9 C-4.35 8.67 -2.7 8.34 -1 8 C-0.30903529 4.01600042 -0.30903529 4.01600042 0 0 Z " fill="#F8F56F" transform="translate(74,17)"/>
<path d="M0 0 C0.33 0 0.66 0 1 0 C1.02467609 5.51757479 1.04284856 11.03511761 1.05493164 16.55273438 C1.05996763 18.43066975 1.06679671 20.3086012 1.07543945 22.18652344 C1.08753713 24.88217132 1.09323557 27.57776747 1.09765625 30.2734375 C1.10281754 31.11619232 1.10797882 31.95894714 1.11329651 32.82723999 C1.11387171 38.77225659 1.11387171 38.77225659 0 41 C-0.66 41 -1.32 41 -2 41 C-2 41.66 -2 42.32 -2 43 C-2.99 43 -3.98 43 -5 43 C-4.67 42.01 -4.34 41.02 -4 40 C-3.34 40 -2.68 40 -2 40 C-1.20483958 35.02246557 -0.80646952 30.13919093 -0.68359375 25.09765625 C-0.66281265 24.3750914 -0.64203156 23.65252655 -0.62062073 22.9080658 C-0.55584574 20.6262963 -0.4965797 18.34442333 -0.4375 16.0625 C-0.39424603 14.50454709 -0.35062969 12.9466042 -0.30664062 11.38867188 C-0.20023961 7.59255078 -0.09877501 3.79632686 0 0 Z " fill="#AE711C" transform="translate(138,68)"/>
<path d="M0 0 C0.33 0 0.66 0 1 0 C1.05805933 4.24994263 1.09361654 8.49978324 1.125 12.75 C1.14175781 13.9565625 1.15851563 15.163125 1.17578125 16.40625 C1.18222656 17.56640625 1.18867187 18.7265625 1.1953125 19.921875 C1.20578613 20.99018555 1.21625977 22.05849609 1.22705078 23.15917969 C1.00161519 25.97979105 0.45848994 27.60787463 -1 30 C-1.19224376 26.0495047 -1.37096681 22.09865416 -1.53710938 18.14697266 C-1.59555475 16.80240434 -1.65771076 15.45799202 -1.72363281 14.11376953 C-1.81767443 12.18306663 -1.89732692 10.2516797 -1.9765625 8.3203125 C-2.05511475 6.57645264 -2.05511475 6.57645264 -2.13525391 4.79736328 C-2 2 -2 2 0 0 Z " fill="#DD8D01" transform="translate(75,60)"/>
<path d="M0 0 C5.61 0 11.22 0 17 0 C17 2.31 17 4.62 17 7 C15 6 15 6 14 3 C13.1028125 3.2784375 13.1028125 3.2784375 12.1875 3.5625 C10 4 10 4 7 3 C4.66700175 2.96045766 2.33291811 2.95598268 0 3 C0 2.01 0 1.02 0 0 Z " fill="#FBDD45" transform="translate(80,18)"/>
<path d="M0 0 C6.76594019 -0.11381955 13.28837062 0.11978631 20 1 C20 1.66 20 2.32 20 3 C13.07 3 6.14 3 -1 3 C-0.67 2.01 -0.34 1.02 0 0 Z " fill="#A96D01" transform="translate(77,12)"/>
<path d="M0 0 C0.66 0 1.32 0 2 0 C2 1.65 2 3.3 2 5 C-4.27 5 -10.54 5 -17 5 C-11.94384275 2.47192138 -8.79597187 1.72966202 -3.21484375 1.28125 C-1.02929332 1.2334259 -1.02929332 1.2334259 0 0 Z " fill="#A16F2E" transform="translate(117,128)"/>
<path d="M0 0 C0.66 0 1.32 0 2 0 C2 0.66 2 1.32 2 2 C5.96 2 9.92 2 14 2 C13.67 3.32 13.34 4.64 13 6 C11.56260487 6.02712066 10.12506137 6.04645067 8.6875 6.0625 C7.48673828 6.07990234 7.48673828 6.07990234 6.26171875 6.09765625 C4 6 4 6 1 5 C0.67 3.35 0.34 1.7 0 0 Z " fill="#EFE617" transform="translate(74,122)"/>
<path d="M0 0 C0.33 0 0.66 0 1 0 C1 9.24 1 18.48 1 28 C-1.97 28 -4.94 28 -8 28 C-7.67 27.34 -7.34 26.68 -7 26 C-5.68 26 -4.36 26 -3 26 C-3 25.34 -3 24.68 -3 24 C-2.34 23.67 -1.68 23.34 -1 23 C-0.67 15.41 -0.34 7.82 0 0 Z " fill="#F3F654" transform="translate(86,62)"/>
<path d="M0 0 C1.32 0.33 2.64 0.66 4 1 C4 2.65 4 4.3 4 6 C3.34 6 2.68 6 2 6 C2 10.62 2 15.24 2 20 C1.34 20.33 0.68 20.66 0 21 C0 14.07 0 7.14 0 0 Z " fill="#EEE315" transform="translate(57,49)"/>
<path d="M0 0 C1.4370809 -0.05422947 2.87475462 -0.09289723 4.3125 -0.125 C5.11300781 -0.14820312 5.91351563 -0.17140625 6.73828125 -0.1953125 C9 0 9 0 12 2 C12 2.66 12 3.32 12 4 C6.66176471 6.18382353 6.66176471 6.18382353 3.75 5.375 C1.72237102 3.78186294 1.07499898 2.31030481 0 0 Z " fill="#F8FC17" transform="translate(79,118)"/>
<path d="M0 0 C1.98 0.66 3.96 1.32 6 2 C6 5.3 6 8.6 6 12 C5.34 12 4.68 12 4 12 C4 10.68 4 9.36 4 8 C2.68 7.34 1.36 6.68 0 6 C0 4.02 0 2.04 0 0 Z " fill="#FCD53D" transform="translate(99,52)"/>
<path d="M0 0 C0.33 0 0.66 0 1 0 C1.33 2.97 1.66 5.94 2 9 C3.093125 8.814375 4.18625 8.62875 5.3125 8.4375 C10.60695693 7.75311778 15.72481308 8.36969274 21 9 C21 9.33 21 9.66 21 10 C14.07 10 7.14 10 0 10 C0 9.34 0 8.68 0 8 C-0.66 8 -1.32 8 -2 8 C-1.34 5.36 -0.68 2.72 0 0 Z " fill="#4A1804" transform="translate(99,7)"/>
<path d="M0 0 C0.66 0 1.32 0 2 0 C2 1.32 2 2.64 2 4 C5.96 4 9.92 4 14 4 C14 4.99 14 5.98 14 7 C11.70774565 6.88628503 9.41617612 6.75869036 7.125 6.625 C5.84882812 6.55539063 4.57265625 6.48578125 3.2578125 6.4140625 C0 6 0 6 -2 4 C-1.34 2.68 -0.68 1.36 0 0 Z " fill="#AB7925" transform="translate(53,126)"/>
<path d="M0 0 C0.33 0 0.66 0 1 0 C1.33 2.97 1.66 5.94 2 9 C-5.75 9.125 -5.75 9.125 -8 8 C-8 7.01 -8 6.02 -8 5 C-5.36 5 -2.72 5 0 5 C0 3.35 0 1.7 0 0 Z " fill="#FBF037" transform="translate(96,123)"/>
<path d="M0 0 C0.99 0.495 0.99 0.495 2 1 C2 1.99 2 2.98 2 4 C4.01822917 3.90234375 6.03645833 3.8046875 8.0546875 3.70703125 C8.69664063 3.80371094 9.33859375 3.90039062 10 4 C10.99 5.485 10.99 5.485 12 7 C6.06 7.495 6.06 7.495 0 8 C0 5.36 0 2.72 0 0 Z " fill="#FDD740" transform="translate(68,125)"/>
<path d="M0 0 C3.3 0 6.6 0 10 0 C10 0.33 10 0.66 10 1 C7.03 1 4.06 1 1 1 C1 3.97 1 6.94 1 10 C-2.87684087 11.19287411 -5.91621923 12 -10 12 C-10 11.01 -10 10.02 -10 9 C-6.7 9 -3.4 9 0 9 C0 6.03 0 3.06 0 0 Z " fill="#523409" transform="translate(131,113)"/>
<path d="M0 0 C1.32 0 2.64 0 4 0 C4 0.99 4 1.98 4 3 C9.28 2.34 14.56 1.68 20 1 C20 1.66 20 2.32 20 3 C16.38132441 4.2062252 13.07493749 4.10816918 9.3125 4.0625 C8.61060547 4.05798828 7.90871094 4.05347656 7.18554688 4.04882812 C5.45699462 4.03706927 3.72848635 4.01913454 2 4 C1.34 2.68 0.68 1.36 0 0 Z " fill="#F3E818" transform="translate(76,109)"/>
<path d="M0 0 C1.4540625 0.0309375 1.4540625 0.0309375 2.9375 0.0625 C2.9375 2.0425 2.9375 4.0225 2.9375 6.0625 C0.6275 6.0625 -1.6825 6.0625 -4.0625 6.0625 C-4.105221 4.39638095 -4.10313832 2.72867115 -4.0625 1.0625 C-3.0625 0.0625 -3.0625 0.0625 0 0 Z " fill="#FCEF1C" transform="translate(125.0625,101.9375)"/>
<path d="M0 0 C3.3 0 6.6 0 10 0 C9.67 1.32 9.34 2.64 9 4 C6.03 4 3.06 4 0 4 C0 2.68 0 1.36 0 0 Z " fill="#E18C1B" transform="translate(85,52)"/>
<path d="M0 0 C0 1.98 0 3.96 0 6 C-6.75 6.125 -6.75 6.125 -9 5 C-8.67 4.01 -8.34 3.02 -8 2 C-2.10526316 0 -2.10526316 0 0 0 Z " fill="#EBE71A" transform="translate(110,113)"/>
<path d="M0 0 C3.3 0 6.6 0 10 0 C10 3.3 10 6.6 10 10 C9.34 9.67 8.68 9.34 8 9 C8 6.69 8 4.38 8 2 C5.36 2.66 2.72 3.32 0 4 C0 2.68 0 1.36 0 0 Z " fill="#AF864C" transform="translate(25,39)"/>
<path d="M0 0 C0.66 0 1.32 0 2 0 C2 2.97 2 5.94 2 9 C4.64 9 7.28 9 10 9 C10 9.66 10 10.32 10 11 C6.7 11 3.4 11 0 11 C0 7.37 0 3.74 0 0 Z " fill="#D8BA22" transform="translate(119,28)"/>
<path d="M0 0 C2.64 0 5.28 0 8 0 C8 1.98 8 3.96 8 6 C6.35 6 4.7 6 3 6 C2.01 4.02 1.02 2.04 0 0 Z " fill="#A0752A" transform="translate(121,28)"/>
<path d="M0 0 C0.33 0 0.66 0 1 0 C1 2.64 1 5.28 1 8 C-1.64 8 -4.28 8 -7 8 C-7 7.34 -7 6.68 -7 6 C-6.34 6 -5.68 6 -5 6 C-5 5.34 -5 4.68 -5 4 C-4.01 4 -3.02 4 -2 4 C-1.67 3.01 -1.34 2.02 -1 1 C-0.67 0.67 -0.34 0.34 0 0 Z " fill="#926D2A" transform="translate(130,114)"/>
<path d="M0 0 C-0.33 0.66 -0.66 1.32 -1 2 C-1.66 2 -2.32 2 -3 2 C-3.33 3.65 -3.66 5.3 -4 7 C-4.66 7 -5.32 7 -6 7 C-6.33 7.66 -6.66 8.32 -7 9 C-7 6.03 -7 3.06 -7 0 C-4.3333581 -1.33332095 -2.83319697 -0.67102033 0 0 Z " fill="#F3E513" transform="translate(128,50)"/>
<path d="M0 0 C0.99 0 1.98 0 3 0 C3 0.99 3 1.98 3 3 C4.65 3.33 6.3 3.66 8 4 C7.67 4.66 7.34 5.32 7 6 C6.01 5.67 5.02 5.34 4 5 C4 6.65 4 8.3 4 10 C-0.60921053 4.64736842 -0.60921053 4.64736842 -1 1 C-0.67 0.67 -0.34 0.34 0 0 Z " fill="#FBF414" transform="translate(53,44)"/>
<path d="M0 0 C1.22589844 0.29197266 1.22589844 0.29197266 2.4765625 0.58984375 C3.41628906 0.82380859 3.41628906 0.82380859 4.375 1.0625 C4.375 0.4025 4.375 -0.2575 4.375 -0.9375 C5.365 -0.6075 6.355 -0.2775 7.375 0.0625 C7.045 0.7225 6.715 1.3825 6.375 2.0625 C5.04166667 2.39583333 3.70833333 2.72916667 2.375 3.0625 C2.045 3.7225 1.715 4.3825 1.375 5.0625 C-1.55379371 4.43490135 -3.98595629 3.47627341 -6.625 2.0625 C-6.625 1.4025 -6.625 0.7425 -6.625 0.0625 C-3.99249612 -1.25375194 -2.82320944 -0.68563658 0 0 Z " fill="#FDFA11" transform="translate(90.625,29.9375)"/>
<path d="M0 0 C0.33 0 0.66 0 1 0 C1 3.96 1 7.92 1 12 C1.99 12 2.98 12 4 12 C4 13.32 4 14.64 4 16 C3.34 16.33 2.68 16.66 2 17 C1.34227572 20.02934491 1.34227572 20.02934491 1 23 C0.67 23 0.34 23 0 23 C0 15.41 0 7.82 0 0 Z " fill="#F1E21D" transform="translate(57,74)"/>
<path d="M0 0 C0.33 0.99 0.66 1.98 1 3 C3.01508358 3.73323796 3.01508358 3.73323796 5 4 C4.01 4.495 4.01 4.495 3 5 C3 5.66 3 6.32 3 7 C3.66 7 4.32 7 5 7 C4.67 8.32 4.34 9.64 4 11 C0.07699505 8.64619703 -0.83857315 6.35535069 -2 2 C-1.34 1.34 -0.68 0.68 0 0 Z " fill="#FDF419" transform="translate(69,115)"/>
<path d="M0 0 C6.27 0 12.54 0 19 0 C19 0.33 19 0.66 19 1 C17.55367187 1.19916016 17.55367187 1.19916016 16.078125 1.40234375 C14.18320313 1.66724609 14.18320313 1.66724609 12.25 1.9375 C10.99703125 2.11152344 9.7440625 2.28554688 8.453125 2.46484375 C5.90017407 2.86049338 3.4813709 3.30446422 1 4 C0.67 2.68 0.34 1.36 0 0 Z " fill="#FAE340" transform="translate(100,28)"/>
<path d="M0 0 C2.69082872 0.17635452 5.32851446 0.61835921 8 1 C8 1.99 8 2.98 8 4 C5.03 4 2.06 4 -1 4 C-1.33 4.66 -1.66 5.32 -2 6 C-1.125 1.125 -1.125 1.125 0 0 Z " fill="#F6E430" transform="translate(100,118)"/>
<path d="M0 0 C1.65 0 3.3 0 5 0 C5 3.3 5 6.6 5 10 C4.34 9.67 3.68 9.34 3 9 C3.33 7.35 3.66 5.7 4 4 C1.69 4 -0.62 4 -3 4 C-3 3.34 -3 2.68 -3 2 C-2.01 2 -1.02 2 0 2 C0 1.34 0 0.68 0 0 Z " fill="#FEF342" transform="translate(124,39)"/>
<path d="M0 0 C2 0.6875 2 0.6875 4 2.6875 C0.5980513 4.78100689 -2.05272412 4.86692163 -6 4.6875 C-3.62711864 -0.56673729 -3.62711864 -0.56673729 0 0 Z " fill="#B26D02" transform="translate(86,136.3125)"/>
<path d="M0 0 C0.33 0 0.66 0 1 0 C1 2.31 1 4.62 1 7 C-1.97 6.505 -1.97 6.505 -5 6 C-5 4.35 -5 2.7 -5 1 C-2.525 1.495 -2.525 1.495 0 2 C0 1.34 0 0.68 0 0 Z " fill="#FDF910" transform="translate(108,105)"/>
<path d="M0 0 C2.97 0 5.94 0 9 0 C9.33 0.99 9.66 1.98 10 3 C8.375 4.1875 8.375 4.1875 6 5 C2.75 3.625 2.75 3.625 0 2 C0 1.34 0 0.68 0 0 Z " fill="#F5EB11" transform="translate(39,60)"/>
<path d="M0 0 C0.66 0.33 1.32 0.66 2 1 C2 2.98 2 4.96 2 7 C-1.63 7 -5.26 7 -9 7 C-8.67 6.34 -8.34 5.68 -8 5 C-5.69 5 -3.38 5 -1 5 C-0.67 3.35 -0.34 1.7 0 0 Z " fill="#572B0D" transform="translate(44,21)"/>
<path d="M0 0 C1.4606285 2.64738916 2 3.89448334 2 7 C-0.31 6.67 -2.62 6.34 -5 6 C-5 4.35 -5 2.7 -5 1 C-3.35 0.67 -1.7 0.34 0 0 Z " fill="#F3DF2F" transform="translate(94,20)"/>
<path d="M0 0 C0.66 0.33 1.32 0.66 2 1 C2.125 8.625 2.125 8.625 1 12 C0.34 12 -0.32 12 -1 12 C-1.02687279 10.18757948 -1.04633715 8.37504767 -1.0625 6.5625 C-1.07410156 5.55316406 -1.08570312 4.54382812 -1.09765625 3.50390625 C-1 1 -1 1 0 0 Z " fill="#EB8B1A" transform="translate(71,53)"/>
<path d="M0 0 C0.99 0 1.98 0 3 0 C2.690625 0.886875 2.38125 1.77375 2.0625 2.6875 C0.96689427 5.8638245 0.96689427 5.8638245 0.5 8.6875 C0 11 0 11 -2 14 C-3.125 7.25 -3.125 7.25 -2 5 C-1.34 5 -0.68 5 0 5 C0 3.35 0 1.7 0 0 Z " fill="#F3E222" transform="translate(61,50)"/>
<path d="M0 0 C0.66 0.33 1.32 0.66 2 1 C2 2.32 2 3.64 2 5 C2.66 5 3.32 5 4 5 C4 5.66 4 6.32 4 7 C2.35 7.33 0.7 7.66 -1 8 C-2.0625 6.1875 -2.0625 6.1875 -3 4 C-2.67 3.01 -2.34 2.02 -2 1 C-1.34 0.67 -0.68 0.34 0 0 Z " fill="#FBF716" transform="translate(104,42)"/>
<path d="M0 0 C0 0.66 0 1.32 0 2 C-2.29141286 2.05384521 -4.58318188 2.09272087 -6.875 2.125 C-8.78925781 2.15980469 -8.78925781 2.15980469 -10.7421875 2.1953125 C-14 2 -14 2 -16 0 C-13.7089095 -0.19441368 -11.41709663 -0.38033135 -9.125 -0.5625 C-7.21074219 -0.71912109 -7.21074219 -0.71912109 -5.2578125 -0.87890625 C-2 -1 -2 -1 0 0 Z " fill="#9D6F02" transform="translate(65,24)"/>
<path d="M0 0 C5.28 0 10.56 0 16 0 C16 1.65 16 3.3 16 5 C15.01 5 14.02 5 13 5 C13 4.34 13 3.68 13 3 C8.71 2.34 4.42 1.68 0 1 C0 0.67 0 0.34 0 0 Z " fill="#9F6E1F" transform="translate(49,19)"/>
<path d="M0 0 C0.99 0 1.98 0 3 0 C3 2.64 3 5.28 3 8 C2.34 8 1.68 8 1 8 C1 8.66 1 9.32 1 10 C0.01 10 -0.98 10 -2 10 C-2 9.34 -2 8.68 -2 8 C-1.34 8 -0.68 8 0 8 C0 5.36 0 2.72 0 0 Z " fill="#8A6236" transform="translate(67,7)"/>
<path d="M0 0 C0.66 0 1.32 0 2 0 C2.33 0.66 2.66 1.32 3 2 C5.3140622 2.73075648 7.64828869 3.40138258 10 4 C10 4.66 10 5.32 10 6 C7.36 6 4.72 6 2 6 C1.34 4.02 0.68 2.04 0 0 Z " fill="#A46E1C" transform="translate(68,135)"/>
<path d="M0 0 C1.65 0 3.3 0 5 0 C5 3.10551666 4.4606285 4.35261084 3 7 C2.01 6.67 1.02 6.34 0 6 C0 4.02 0 2.04 0 0 Z " fill="#9E710D" transform="translate(48,124)"/>
<path d="M0 0 C0.33 0 0.66 0 1 0 C1 3.63 1 7.26 1 11 C-2.3 11 -5.6 11 -9 11 C-5 9 -5 9 -1 9 C-0.67 6.03 -0.34 3.06 0 0 Z " fill="#6D4824" transform="translate(141,102)"/>
<path d="M0 0 C2.475 0.495 2.475 0.495 5 1 C5 2.65 5 4.3 5 6 C3.35 6 1.7 6 0 6 C0 4.02 0 2.04 0 0 Z " fill="#FDF5DA" transform="translate(37,40)"/>
<path d="M0 0 C1.65 0 3.3 0 5 0 C5 1.65 5 3.3 5 5 C3.35 5.33 1.7 5.66 0 6 C0 4.02 0 2.04 0 0 Z " fill="#FEF4CC" transform="translate(68,18)"/>
<path d="M0 0 C2.97 0 5.94 0 9 0 C9 0.66 9 1.32 9 2 C6.69 2.33 4.38 2.66 2 3 C1.67 5.64 1.34 8.28 1 11 C0.67 11 0.34 11 0 11 C0 7.37 0 3.74 0 0 Z " fill="#FDF195" transform="translate(78,90)"/>
<path d="M0 0 C0.66 0 1.32 0 2 0 C2 1.65 2 3.3 2 5 C3.98 5 5.96 5 8 5 C8 5.66 8 6.32 8 7 C3.545 7.495 3.545 7.495 -1 8 C-0.67 5.36 -0.34 2.72 0 0 Z " fill="#A38A3E" transform="translate(36,31)"/>
<path d="M0 0 C1.98 0 3.96 0 6 0 C6 2.64 6 5.28 6 8 C5.566875 7.360625 5.13375 6.72125 4.6875 6.0625 C3.08760823 3.73253997 3.08760823 3.73253997 0 3 C0 2.01 0 1.02 0 0 Z " fill="#9B6D19" transform="translate(27,41)"/>
<path d="M0 0 C0.99 0.495 0.99 0.495 2 1 C2 2.65 2 4.3 2 6 C4.64 6.33 7.28 6.66 10 7 C10 7.33 10 7.66 10 8 C6.7 8 3.4 8 0 8 C0 5.36 0 2.72 0 0 Z " fill="#FCD747" transform="translate(46,114)"/>
<path d="M0 0 C0.33 0.99 0.66 1.98 1 3 C3.01508358 3.73323796 3.01508358 3.73323796 5 4 C3.68 5.65 2.36 7.3 1 9 C1.99 9.33 2.98 9.66 4 10 C2.35 10.33 0.7 10.66 -1 11 C-0.67 7.37 -0.34 3.74 0 0 Z " fill="#9B6F03" transform="translate(132,102)"/>
<path d="M0 0 C0.66 0.33 1.32 0.66 2 1 C1.67 1.66 1.34 2.32 1 3 C0.34 3 -0.32 3 -1 3 C-0.67 5.31 -0.34 7.62 0 10 C-0.99 10 -1.98 10 -3 10 C-3 7.03 -3 4.06 -3 1 C-2.01 0.67 -1.02 0.34 0 0 Z " fill="#F2F836" transform="translate(51,41)"/>
<path d="M0 0 C0.66 0 1.32 0 2 0 C2.0270043 1.45823212 2.04639787 2.91660675 2.0625 4.375 C2.07410156 5.18710937 2.08570313 5.99921875 2.09765625 6.8359375 C2 9 2 9 1 11 C0.01 11 -0.98 11 -2 11 C-2 10.01 -2 9.02 -2 8 C-1.34 8 -0.68 8 0 8 C0 5.36 0 2.72 0 0 Z " fill="#FBFB7C" transform="translate(55,28)"/>
<path d="M0 0 C2 2 2 2 2.1953125 4.1640625 C2.16050781 5.38222656 2.16050781 5.38222656 2.125 6.625 C2.10695313 7.44226563 2.08890625 8.25953125 2.0703125 9.1015625 C2.04710938 9.72804688 2.02390625 10.35453125 2 11 C1.01 11.495 1.01 11.495 0 12 C-0.92844389 7.66726186 -0.92844389 4.33273814 0 0 Z " fill="#EB8702" transform="translate(72,68)"/>
<path d="M0 0 C2.97 0 5.94 0 9 0 C9 0.66 9 1.32 9 2 C6.04335481 3.4783226 3.25770263 3.06032783 0 3 C0 2.01 0 1.02 0 0 Z " fill="#FEED46" transform="translate(80,18)"/>
<path d="M0 0 C3 2 3 2 3.6875 5.125 C3.8421875 6.548125 3.8421875 6.548125 4 8 C2.68 8 1.36 8 0 8 C0 5.36 0 2.72 0 0 Z " fill="#9E7829" transform="translate(36,114)"/>
<path d="M0 0 C1.65 0.33 3.3 0.66 5 1 C4.125 4.875 4.125 4.875 3 6 C1.33382885 6.04063832 -0.33388095 6.042721 -2 6 C-1.34 5.67 -0.68 5.34 0 5 C0 3.35 0 1.7 0 0 Z " fill="#EFE528" transform="translate(116,42)"/>
<path d="M0 0 C3.3 0 6.6 0 10 0 C9.67 0.66 9.34 1.32 9 2 C7.01014051 2.38932033 5.00800456 2.71887936 3 3 C2.01 3.33 1.02 3.66 0 4 C0 2.68 0 1.36 0 0 Z " fill="#EFE308" transform="translate(110,103)"/>
<path d="M0 0 C0.33 0.66 0.66 1.32 1 2 C-2.61973402 3.31626692 -5.09567131 4 -9 4 C-9 3.01 -9 2.02 -9 1 C-4.545 0.505 -4.545 0.505 0 0 Z " fill="#F7F65A" transform="translate(45,48)"/>
<path d="M0 0 C0.66 0.33 1.32 0.66 2 1 C1.125 7.875 1.125 7.875 0 9 C-2.33297433 9.04092937 -4.66705225 9.04241723 -7 9 C-7 8.67 -7 8.34 -7 8 C-5.35 7.67 -3.7 7.34 -2 7 C-1.34 4.69 -0.68 2.38 0 0 Z " fill="#FBFB94" transform="translate(75,18)"/>
<path d="M0 0 C1.32 0 2.64 0 4 0 C4 0.66 4 1.32 4 2 C5.32 2.33 6.64 2.66 8 3 C7 4 7 4 3.4375 4.0625 C2.303125 4.041875 1.16875 4.02125 0 4 C0 2.68 0 1.36 0 0 Z " fill="#B17311" transform="translate(102,20)"/>
<path d="M0 0 C1.32 0.33 2.64 0.66 4 1 C3.67 1.99 3.34 2.98 3 4 C2.65772583 5.33106622 2.32248257 6.66400079 2 8 C1.34 8 0.68 8 0 8 C0 5.36 0 2.72 0 0 Z " fill="#A17801" transform="translate(100,124)"/>
<path d="M0 0 C3.71599191 -0.20086443 4.77208445 -0.1519437 8 2 C8 2.66 8 3.32 8 4 C6.02 4 4.04 4 2 4 C2 3.34 2 2.68 2 2 C1.34 2 0.68 2 0 2 C0 1.34 0 0.68 0 0 Z " fill="#FAFC07" transform="translate(83,118)"/>
<path d="M0 0 C2.625 -0.1875 2.625 -0.1875 5 0 C5 0.66 5 1.32 5 2 C3.35 2.33 1.7 2.66 0 3 C-0.33 4.98 -0.66 6.96 -1 9 C-1.33 9 -1.66 9 -2 9 C-2.25 3.375 -2.25 3.375 0 0 Z " fill="#F2F461" transform="translate(48,39)"/>
<path d="M0 0 C2.97 0 5.94 0 9 0 C9 0.33 9 0.66 9 1 C6.36 1.66 3.72 2.32 1 3 C1 4.98 1 6.96 1 9 C0.67 9 0.34 9 0 9 C0 6.03 0 3.06 0 0 Z " fill="#8A6333" transform="translate(35,28)"/>
<path d="M0 0 C2.64 0 5.28 0 8 0 C7.34 0.66 6.68 1.32 6 2 C4.68 2 3.36 2 2 2 C1.67 3.32 1.34 4.64 1 6 C0.67 6 0.34 6 0 6 C0 4.02 0 2.04 0 0 Z " fill="#AC8703" transform="translate(121,113)"/>
<path d="M0 0 C1.32 0.33 2.64 0.66 4 1 C3.34 3.31 2.68 5.62 2 8 C1.34 8 0.68 8 0 8 C0 5.36 0 2.72 0 0 Z " fill="#FCEA33" transform="translate(44,99)"/>
<path d="M0 0 C1.65 0.33 3.3 0.66 5 1 C4.34 2.32 3.68 3.64 3 5 C1.68 4.67 0.36 4.34 -1 4 C-0.67 2.68 -0.34 1.36 0 0 Z " fill="#FBFD03" transform="translate(39,54)"/>
<path d="M0 0 C0.99 0 1.98 0 3 0 C2.67 2.97 2.34 5.94 2 9 C1.34 9 0.68 9 0 9 C0 6.03 0 3.06 0 0 Z " fill="#E2B018" transform="translate(97,49)"/>
<path d="M0 0 C0.66 0 1.32 0 2 0 C2 0.66 2 1.32 2 2 C3.65 2 5.3 2 7 2 C6.67 3.32 6.34 4.64 6 6 C3.5625 5.25 3.5625 5.25 1 4 C0.1875 1.875 0.1875 1.875 0 0 Z " fill="#A76B1E" transform="translate(132,39)"/>
<path d="M0 0 C0 0.66 0 1.32 0 2 C-3.96 2 -7.92 2 -12 2 C-12 1.67 -12 1.34 -12 1 C-10.37681021 0.63762737 -8.7513642 0.28534843 -7.125 -0.0625 C-6.22007813 -0.25972656 -5.31515625 -0.45695312 -4.3828125 -0.66015625 C-2 -1 -2 -1 0 0 Z " fill="#FEED4A" transform="translate(130,109)"/>
<path d="M0 0 C1.65 0 3.3 0 5 0 C5 1.32 5 2.64 5 4 C3.35 4 1.7 4 0 4 C0 2.68 0 1.36 0 0 Z " fill="#F4E824" transform="translate(110,41)"/>
<path d="M0 0 C0.66 0 1.32 0 2 0 C2 1.65 2 3.3 2 5 C2.99 5 3.98 5 5 5 C5 5.66 5 6.32 5 7 C3.35 7 1.7 7 0 7 C0 4.69 0 2.38 0 0 Z " fill="#A27500" transform="translate(100,19)"/>
<path d="M0 0 C0.33 0 0.66 0 1 0 C1 2.97 1 5.94 1 9 C-0.32 9 -1.64 9 -3 9 C-3 8.34 -3 7.68 -3 7 C-2.34 7 -1.68 7 -1 7 C-1.020625 6.030625 -1.04125 5.06125 -1.0625 4.0625 C-1 1 -1 1 0 0 Z " fill="#A47A3C" transform="translate(139,102)"/>
<path d="M0 0 C1.65 0 3.3 0 5 0 C5.33 0.99 5.66 1.98 6 3 C3.36 3 0.72 3 -2 3 C-1.34 2.67 -0.68 2.34 0 2 C0 1.34 0 0.68 0 0 Z " fill="#E4AB11" transform="translate(70,100)"/>
<path d="M0 0 C0 0.99 0 1.98 0 3 C-2.97 3 -5.94 3 -9 3 C-8.67 2.34 -8.34 1.68 -8 1 C-5.30114269 0.42577504 -2.76207303 0 0 0 Z " fill="#F4ED6A" transform="translate(87,87)"/>
<path d="M0 0 C0.66 0 1.32 0 2 0 C2 0.66 2 1.32 2 2 C2.66 2 3.32 2 4 2 C4.33 3.98 4.66 5.96 5 8 C4.34 8 3.68 8 3 8 C0 1.125 0 1.125 0 0 Z " fill="#916618" transform="translate(116,20)"/>
<path d="M0 0 C1.65 0 3.3 0 5 0 C4.67 1.65 4.34 3.3 4 5 C2.68 4.34 1.36 3.68 0 3 C0 2.01 0 1.02 0 0 Z " fill="#F3E614" transform="translate(116,104)"/>
<path d="M0 0 C1.32 0.66 2.64 1.32 4 2 C3.67 2.99 3.34 3.98 3 5 C1.68 5 0.36 5 -1 5 C-0.67 3.35 -0.34 1.7 0 0 Z " fill="#FEF728" transform="translate(122,102)"/>
<path d="M0 0 C0.33 0 0.66 0 1 0 C1 3.3 1 6.6 1 10 C0.67 9.34 0.34 8.68 0 8 C-0.66 8 -1.32 8 -2 8 C-1.34 5.36 -0.68 2.72 0 0 Z " fill="#663C0B" transform="translate(99,7)"/>
<path d="M0 0 C0.66 0 1.32 0 2 0 C2.66 2.31 3.32 4.62 4 7 C3.01 7 2.02 7 1 7 C0.67 4.69 0.34 2.38 0 0 Z " fill="#A27613" transform="translate(39,115)"/>
<path d="M0 0 C0.66 0 1.32 0 2 0 C1.67 1.32 1.34 2.64 1 4 C0.34 4 -0.32 4 -1 4 C-1 4.66 -1 5.32 -1 6 C-1.99 6 -2.98 6 -4 6 C-3.67 5.01 -3.34 4.02 -3 3 C-2.34 3 -1.68 3 -1 3 C-0.67 2.01 -0.34 1.02 0 0 Z " fill="#A17521" transform="translate(137,105)"/>
<path d="M0 0 C1.32 0.33 2.64 0.66 4 1 C3.67 1.99 3.34 2.98 3 4 C2.34 4 1.68 4 1 4 C0.67 4.99 0.34 5.98 0 7 C0 4.69 0 2.38 0 0 Z " fill="#F0E601" transform="translate(57,49)"/>
<path d="M0 0 C0.99 0 1.98 0 3 0 C3 0.66 3 1.32 3 2 C3.99 2.33 4.98 2.66 6 3 C5.34 3 4.68 3 4 3 C4 3.66 4 4.32 4 5 C2.68 4.34 1.36 3.68 0 3 C0 2.01 0 1.02 0 0 Z " fill="#FBDB1C" transform="translate(100,49)"/>
<path d="M0 0 C0.99 0 1.98 0 3 0 C3.33 1.32 3.66 2.64 4 4 C3.01 4.495 3.01 4.495 2 5 C1.01 4.67 0.02 4.34 -1 4 C-0.67 2.68 -0.34 1.36 0 0 Z " fill="#FCFD03" transform="translate(53,44)"/>
<path d="M0 0 C1.98 0 3.96 0 6 0 C6 1.32 6 2.64 6 4 C4.68 3.67 3.36 3.34 2 3 C2 2.34 2 1.68 2 1 C1.34 0.67 0.68 0.34 0 0 Z " fill="#FAF932" transform="translate(81,21)"/>
</svg>
