<?xml version="1.0" encoding="UTF-8"?>
<svg version="1.1" xmlns="http://www.w3.org/2000/svg" width="190" height="154">
<path d="M0 0 C2.04169709 -0.00438028 4.08124296 -0.04072914 6.12255859 -0.07861328 C7.40775391 -0.08248047 8.69294922 -0.08634766 10.01708984 -0.09033203 C11.78729492 -0.10265869 11.78729492 -0.10265869 13.59326172 -0.11523438 C16.54833984 0.37060547 16.54833984 0.37060547 18.44873047 2.18066406 C19.54833984 4.37060547 19.54833984 4.37060547 19.67333984 7.87060547 C20.14670975 11.39851431 20.14670975 11.39851431 22.43115234 12.67529297 C24.77355731 13.73440017 27.10029494 14.58958257 29.54833984 15.37060547 C30.43521484 15.70060547 31.32208984 16.03060547 32.23583984 16.37060547 C35.82232913 16.37060547 37.7369012 14.47918445 40.54833984 12.37060547 C41.41458984 11.91685547 42.28083984 11.46310547 43.17333984 10.99560547 C45.78076292 9.44437078 45.78076292 9.44437078 47.42333984 6.37060547 C50.0401088 2.67634342 52.19632625 1.22099893 56.54833984 0.37060547 C74.4747812 -0.89977226 74.4747812 -0.89977226 80.54833984 2.37060547 C82.04736343 4.27107697 83.12021511 6.20113984 84.23583984 8.34716797 C86.15816238 11.31074854 88.67084783 12.53549797 91.70458984 14.22216797 C94.24744129 15.80606273 95.69580482 18.03999689 97.54833984 20.37060547 C99.30840063 21.53480381 99.30840063 21.53480381 101.23583984 22.55810547 C104.54833984 24.37060547 104.54833984 24.37060547 105.54833984 26.37060547 C106.7602192 33.50722836 106.67978297 40.83936635 106.73583984 48.05810547 C106.74881104 48.94860596 106.76178223 49.83910645 106.77514648 50.7565918 C106.7839364 57.05896378 106.41692392 63.07833829 103.23583984 68.68310547 C101.54833984 70.37060547 101.54833984 70.37060547 99.17333984 71.68310547 C96.53939819 73.37635368 95.78559245 74.36622961 94.17333984 76.93310547 C91.60079706 80.85317066 89.00127626 81.11034045 84.54833984 82.37060547 C83.84207745 84.35696845 83.17940413 86.35908805 82.54833984 88.37060547 C80.90132349 89.76257204 79.1573465 90.85827647 77.34130859 92.01904297 C75.39282899 93.48783152 74.35841516 94.88747291 73.04833984 96.93310547 C71.28849219 99.63386177 69.87395854 100.94187584 66.98583984 102.37060547 C63.61515434 104.33173158 63.05756928 104.7800771 61.42333984 107.99560547 C59.54833984 111.37060547 59.54833984 111.37060547 57.11083984 112.30810547 C53.55422023 113.7828014 52.72692748 116.13388342 51.05224609 119.49560547 C48.8149819 122.28492186 47.04862195 122.60782275 43.54833984 123.37060547 C39.85627875 123.66655495 36.18832088 123.69532488 32.48583984 123.68310547 C31.50550781 123.69921875 30.52517578 123.71533203 29.51513672 123.73193359 C20.25580498 123.73821963 20.25580498 123.73821963 16.54833984 120.37060547 C16.23896484 119.19498047 15.92958984 118.01935547 15.61083984 116.80810547 C15.26021484 115.67373047 14.90958984 114.53935547 14.54833984 113.37060547 C11.64409328 112.04140521 11.64409328 112.04140521 8.54833984 111.37060547 C6.98583984 110.05810547 6.98583984 110.05810547 5.54833984 108.37060547 C3.07244762 105.82955819 0.80790458 103.54566076 -2.13916016 101.55810547 C-5.42717375 98.44782234 -5.6440601 95.7756967 -6.45166016 91.37060547 C-7.54478516 91.28810547 -8.63791016 91.20560547 -9.76416016 91.12060547 C-13.45166016 90.37060547 -13.45166016 90.37060547 -15.32666016 88.62060547 C-16.54029543 86.19333492 -17.07935382 84.05121106 -17.45166016 81.37060547 C-18.68916016 81.22623047 -19.92666016 81.08185547 -21.20166016 80.93310547 C-23.43603516 80.40185547 -23.43603516 80.40185547 -25.45166016 79.37060547 C-26.70639856 77.13613981 -27.46520949 74.8946033 -28.31494141 72.47998047 C-29.27570861 70.22856692 -29.27570861 70.22856692 -31.43212891 69.32373047 C-33.60507982 68.65284254 -33.60507982 68.65284254 -35.74462891 68.29638672 C-36.30794922 67.99087891 -36.87126953 67.68537109 -37.45166016 67.37060547 C-38.61724225 62.48890126 -38.58236595 57.67504679 -38.54931641 52.69091797 C-38.54790146 51.87815399 -38.54648651 51.06539001 -38.54502869 50.22799683 C-38.5394635 47.65049446 -38.52691755 45.07308127 -38.51416016 42.49560547 C-38.50914065 40.7403984 -38.50457853 38.98518995 -38.50048828 37.22998047 C-38.48950549 32.94348815 -38.47226507 28.65706189 -38.45166016 24.37060547 C-37.83242676 24.20117432 -37.21319336 24.03174316 -36.57519531 23.85717773 C-31.61861293 22.51294729 -31.61861293 22.51294729 -27.72509766 19.39794922 C-27.42861328 18.70830078 -27.13212891 18.01865234 -26.82666016 17.30810547 C-24.88560043 13.59625441 -24.88560043 13.59625441 -22.59619141 12.40576172 C-20.63916016 11.87060547 -20.63916016 11.87060547 -17.45166016 11.37060547 C-17.28730469 10.43087891 -17.28730469 10.43087891 -17.11962891 9.47216797 C-16.88179687 8.24626953 -16.88179687 8.24626953 -16.63916016 6.99560547 C-16.48833984 6.18349609 -16.33751953 5.37138672 -16.18212891 4.53466797 C-14.02875014 -1.84486057 -5.42541952 -0.00130765 0 0 Z " fill="#CE2423" transform="translate(67.45166015625,13.62939453125)"/>
<path d="M0 0 C2.04169709 -0.00438028 4.08124296 -0.04072914 6.12255859 -0.07861328 C7.40775391 -0.08248047 8.69294922 -0.08634766 10.01708984 -0.09033203 C11.78729492 -0.10265869 11.78729492 -0.10265869 13.59326172 -0.11523438 C16.54833984 0.37060547 16.54833984 0.37060547 18.44873047 2.18066406 C19.54833984 4.37060547 19.54833984 4.37060547 19.67333984 7.87060547 C20.14670975 11.39851431 20.14670975 11.39851431 22.43115234 12.67529297 C24.77355731 13.73440017 27.10029494 14.58958257 29.54833984 15.37060547 C30.43521484 15.70060547 31.32208984 16.03060547 32.23583984 16.37060547 C35.82232913 16.37060547 37.7369012 14.47918445 40.54833984 12.37060547 C41.41458984 11.91685547 42.28083984 11.46310547 43.17333984 10.99560547 C45.78076292 9.44437078 45.78076292 9.44437078 47.42333984 6.37060547 C50.0401088 2.67634342 52.19632625 1.22099893 56.54833984 0.37060547 C74.4747812 -0.89977226 74.4747812 -0.89977226 80.54833984 2.37060547 C82.04736343 4.27107697 83.12021511 6.20113984 84.23583984 8.34716797 C86.15816238 11.31074854 88.67084783 12.53549797 91.70458984 14.22216797 C94.24744129 15.80606273 95.69580482 18.03999689 97.54833984 20.37060547 C99.30840063 21.53480381 99.30840063 21.53480381 101.23583984 22.55810547 C104.54833984 24.37060547 104.54833984 24.37060547 105.54833984 26.37060547 C106.7602192 33.50722836 106.67978297 40.83936635 106.73583984 48.05810547 C106.74881104 48.94860596 106.76178223 49.83910645 106.77514648 50.7565918 C106.7839364 57.05896378 106.41692392 63.07833829 103.23583984 68.68310547 C101.54833984 70.37060547 101.54833984 70.37060547 99.17333984 71.68310547 C96.53939819 73.37635368 95.78559245 74.36622961 94.17333984 76.93310547 C91.60079706 80.85317066 89.00127626 81.11034045 84.54833984 82.37060547 C83.84207745 84.35696845 83.17940413 86.35908805 82.54833984 88.37060547 C80.90132349 89.76257204 79.1573465 90.85827647 77.34130859 92.01904297 C75.39282899 93.48783152 74.35841516 94.88747291 73.04833984 96.93310547 C71.28849219 99.63386177 69.87395854 100.94187584 66.98583984 102.37060547 C63.61515434 104.33173158 63.05756928 104.7800771 61.42333984 107.99560547 C59.54833984 111.37060547 59.54833984 111.37060547 57.11083984 112.30810547 C53.55422023 113.7828014 52.72692748 116.13388342 51.05224609 119.49560547 C48.8149819 122.28492186 47.04862195 122.60782275 43.54833984 123.37060547 C39.85627875 123.66655495 36.18832088 123.69532488 32.48583984 123.68310547 C31.50550781 123.69921875 30.52517578 123.71533203 29.51513672 123.73193359 C20.25580498 123.73821963 20.25580498 123.73821963 16.54833984 120.37060547 C16.23896484 119.19498047 15.92958984 118.01935547 15.61083984 116.80810547 C15.26021484 115.67373047 14.90958984 114.53935547 14.54833984 113.37060547 C11.64409328 112.04140521 11.64409328 112.04140521 8.54833984 111.37060547 C6.98583984 110.05810547 6.98583984 110.05810547 5.54833984 108.37060547 C3.07244762 105.82955819 0.80790458 103.54566076 -2.13916016 101.55810547 C-5.42717375 98.44782234 -5.6440601 95.7756967 -6.45166016 91.37060547 C-7.54478516 91.28810547 -8.63791016 91.20560547 -9.76416016 91.12060547 C-13.45166016 90.37060547 -13.45166016 90.37060547 -15.32666016 88.62060547 C-16.54029543 86.19333492 -17.07935382 84.05121106 -17.45166016 81.37060547 C-18.68916016 81.22623047 -19.92666016 81.08185547 -21.20166016 80.93310547 C-23.43603516 80.40185547 -23.43603516 80.40185547 -25.45166016 79.37060547 C-26.70639856 77.13613981 -27.46520949 74.8946033 -28.31494141 72.47998047 C-29.27570861 70.22856692 -29.27570861 70.22856692 -31.43212891 69.32373047 C-33.60507982 68.65284254 -33.60507982 68.65284254 -35.74462891 68.29638672 C-36.30794922 67.99087891 -36.87126953 67.68537109 -37.45166016 67.37060547 C-38.61724225 62.48890126 -38.58236595 57.67504679 -38.54931641 52.69091797 C-38.54790146 51.87815399 -38.54648651 51.06539001 -38.54502869 50.22799683 C-38.5394635 47.65049446 -38.52691755 45.07308127 -38.51416016 42.49560547 C-38.50914065 40.7403984 -38.50457853 38.98518995 -38.50048828 37.22998047 C-38.48950549 32.94348815 -38.47226507 28.65706189 -38.45166016 24.37060547 C-37.83242676 24.20117432 -37.21319336 24.03174316 -36.57519531 23.85717773 C-31.61861293 22.51294729 -31.61861293 22.51294729 -27.72509766 19.39794922 C-27.42861328 18.70830078 -27.13212891 18.01865234 -26.82666016 17.30810547 C-24.88560043 13.59625441 -24.88560043 13.59625441 -22.59619141 12.40576172 C-20.63916016 11.87060547 -20.63916016 11.87060547 -17.45166016 11.37060547 C-17.28730469 10.43087891 -17.28730469 10.43087891 -17.11962891 9.47216797 C-16.88179687 8.24626953 -16.88179687 8.24626953 -16.63916016 6.99560547 C-16.48833984 6.18349609 -16.33751953 5.37138672 -16.18212891 4.53466797 C-14.02875014 -1.84486057 -5.42541952 -0.00130765 0 0 Z M-14.45166016 13.37060547 C-14.45166016 17.33060547 -14.45166016 21.29060547 -14.45166016 25.37060547 C-17.75166016 25.70060547 -21.05166016 26.03060547 -24.45166016 26.37060547 C-24.45166016 40.23060547 -24.45166016 54.09060547 -24.45166016 68.37060547 C-21.15166016 68.37060547 -17.85166016 68.37060547 -14.45166016 68.37060547 C-14.45166016 72.00060547 -14.45166016 75.63060547 -14.45166016 79.37060547 C-10.82166016 79.37060547 -7.19166016 79.37060547 -3.45166016 79.37060547 C-3.45166016 82.67060547 -3.45166016 85.97060547 -3.45166016 89.37060547 C-0.48166016 89.70060547 2.48833984 90.03060547 5.54833984 90.37060547 C6.20833984 93.67060547 6.86833984 96.97060547 7.54833984 100.37060547 C10.84833984 100.37060547 14.14833984 100.37060547 17.54833984 100.37060547 C17.54833984 104.00060547 17.54833984 107.63060547 17.54833984 111.37060547 C28.10833984 111.37060547 38.66833984 111.37060547 49.54833984 111.37060547 C49.54833984 107.74060547 49.54833984 104.11060547 49.54833984 100.37060547 C53.17833984 100.37060547 56.80833984 100.37060547 60.54833984 100.37060547 C60.54833984 96.74060547 60.54833984 93.11060547 60.54833984 89.37060547 C64.17833984 89.37060547 67.80833984 89.37060547 71.54833984 89.37060547 C71.54833984 86.07060547 71.54833984 82.77060547 71.54833984 79.37060547 C74.84833984 79.37060547 78.14833984 79.37060547 81.54833984 79.37060547 C81.54833984 75.74060547 81.54833984 72.11060547 81.54833984 68.37060547 C85.17833984 68.37060547 88.80833984 68.37060547 92.54833984 68.37060547 C92.54833984 57.81060547 92.54833984 47.25060547 92.54833984 36.37060547 C91.88833984 36.37060547 91.22833984 36.37060547 90.54833984 36.37060547 C90.54833984 32.74060547 90.54833984 29.11060547 90.54833984 25.37060547 C89.29021484 25.22623047 88.03208984 25.08185547 86.73583984 24.93310547 C84.12166862 24.63311861 82.07394092 24.21247249 79.54833984 23.37060547 C79.54833984 20.73060547 79.54833984 18.09060547 79.54833984 15.37060547 C68.98833984 15.37060547 58.42833984 15.37060547 47.54833984 15.37060547 C46.88833984 17.35060547 46.22833984 19.33060547 45.54833984 21.37060547 C43.45442817 23.46451714 39.44483135 23.10575119 36.54833984 23.37060547 C32.54833984 23.37060547 28.54833984 23.37060547 24.54833984 23.37060547 C24.54833984 22.05060547 24.54833984 20.73060547 24.54833984 19.37060547 C23.76458984 19.12310547 22.98083984 18.87560547 22.17333984 18.62060547 C19.54833984 17.37060547 19.54833984 17.37060547 17.54833984 13.37060547 C6.98833984 13.37060547 -3.57166016 13.37060547 -14.45166016 13.37060547 Z " fill="#4D0607" transform="translate(67.45166015625,13.62939453125)"/>
<path d="M0 0 C10.56 0 21.12 0 32 0 C32 3.63 32 7.26 32 11 C28.7 11 25.4 11 22 11 C22 14.63 22 18.26 22 22 C18.37 22 14.74 22 11 22 C11 25.3 11 28.6 11 32 C7.37 32 3.74 32 0 32 C0 21.44 0 10.88 0 0 Z " fill="#FCF7F5" transform="translate(53,39)"/>
<path d="M0 0 C10.56 0 21.12 0 32 0 C32.66 1.32 33.32 2.64 34 4 C36.53770003 5.28254644 36.53770003 5.28254644 39 6 C39 7.32 39 8.64 39 10 C39.61488281 10 40.22976562 10 40.86328125 10 C44.2421875 10 47.62109375 10 51 10 C56.50040907 9.7907512 56.50040907 9.7907512 61 7 C61.64767793 4.42938689 61.64767793 4.42938689 62 2 C62.66 2 63.32 2 64 2 C64 5.3 64 8.6 64 12 C60.7 12 57.4 12 54 12 C54 15.63 54 19.26 54 23 C50.37 23 46.74 23 43 23 C43 19.37 43 15.74 43 12 C28.81 12 14.62 12 0 12 C0 8.04 0 4.08 0 0 Z " fill="#7E0808" transform="translate(53,27)"/>
<path d="M0 0 C0 10.56 0 21.12 0 32 C3.63 32 7.26 32 11 32 C11 28.7 11 25.4 11 22 C14.63 22 18.26 22 22 22 C22 26.62 22 31.24 22 36 C20.515 35.505 20.515 35.505 19 35 C19 34.34 19 33.68 19 33 C16.99538701 33.65266469 14.99620166 34.32204472 13 35 C12.113125 35.28875 11.22625 35.5775 10.3125 35.875 C7.50780043 37.02167076 7.50780043 37.02167076 5 41 C0.05 41 -4.9 41 -10 41 C-10 27.8 -10 14.6 -10 1 C-2 0 -2 0 0 0 Z " fill="#D44041" transform="translate(53,39)"/>
<path d="M0 0 C0.66 0 1.32 0 2 0 C2 10.56 2 21.12 2 32 C-1.63 32 -5.26 32 -9 32 C-9 35.63 -9 39.26 -9 43 C-12.3 43 -15.6 43 -19 43 C-19 46.3 -19 49.6 -19 53 C-22.63 53 -26.26 53 -30 53 C-30 56.63 -30 60.26 -30 64 C-33.63 64 -37.26 64 -41 64 C-41 67.63 -41 71.26 -41 75 C-51.56 75 -62.12 75 -73 75 C-73 71.37 -73 67.74 -73 64 C-76.3 64 -79.6 64 -83 64 C-83 63.34 -83 62.68 -83 62 C-76.66666667 62 -70.33333333 62 -64 62 C-64 61.34 -64 60.68 -64 60 C-62.68 60.33 -61.36 60.66 -60 61 C-60.99 61.495 -60.99 61.495 -62 62 C-62 65.63 -62 69.26 -62 73 C-55.73 73 -49.46 73 -43 73 C-43 70.03 -43 67.06 -43 64 C-47.29 64 -51.58 64 -56 64 C-55.67 63.01 -55.34 62.02 -55 61 C-53.86111328 61.05220703 -53.86111328 61.05220703 -52.69921875 61.10546875 C-51.70535156 61.13253906 -50.71148437 61.15960938 -49.6875 61.1875 C-48.70136719 61.22230469 -47.71523437 61.25710937 -46.69921875 61.29296875 C-43.95425611 61.24278108 -43.95425611 61.24278108 -42.14453125 59.48828125 C-41.76683594 58.99714844 -41.38914063 58.50601563 -41 58 C-41 59.32 -41 60.64 -41 62 C-38.03 62 -35.06 62 -32 62 C-32 59.03 -32 56.06 -32 53 C-32.928125 53.0825 -33.85625 53.165 -34.8125 53.25 C-38 53 -38 53 -39.8125 51.375 C-41.20733661 48.58532678 -41.64929575 46.08619739 -42 43 C-39.03 42.505 -39.03 42.505 -36 42 C-35.67 42.99 -35.34 43.98 -35 45 C-34.34 44.01 -33.68 43.02 -33 42 C-32.505 43.98 -32.505 43.98 -32 46 C-31.34 46 -30.68 46 -30 46 C-30 47.65 -30 49.3 -30 51 C-27.03 51 -24.06 51 -21 51 C-21.495 47.535 -21.495 47.535 -22 44 C-24.64 43.67 -27.28 43.34 -30 43 C-30 42.34 -30 41.68 -30 41 C-27.61349515 40.00562298 -25.33663682 39.07694556 -22.8125 38.5 C-20.76715335 38.0962237 -20.76715335 38.0962237 -19 36 C-19 37.65 -19 39.3 -19 41 C-16.36 41 -13.72 41 -11 41 C-11 37.37 -11 33.74 -11 30 C-9 29 -9 29 0 30 C0 20.1 0 10.2 0 0 Z " fill="#B71E21" transform="translate(158,50)"/>
<path d="M0 0 C10.23 0 20.46 0 31 0 C31 3.63 31 7.26 31 11 C33.97 11 36.94 11 40 11 C40 14.3 40 17.6 40 21 C38.741875 21.04125 37.48375 21.0825 36.1875 21.125 C35.47980469 21.14820312 34.77210938 21.17140625 34.04296875 21.1953125 C32 21 32 21 29 19 C29 16.36 29 13.72 29 11 C18.44 11 7.88 11 -3 11 C-3 12.65 -3 14.3 -3 16 C-4.1875 17.8125 -4.1875 17.8125 -6 19 C-8.6875 19.1875 -8.6875 19.1875 -11 19 C-11 16.36 -11 13.72 -11 11 C-9.02 10.67 -7.04 10.34 -5 10 C-5 9.34 -5 8.68 -5 8 C-4.01 7.34 -3.02 6.68 -2 6 C-1.34 4.02 -0.68 2.04 0 0 Z " fill="#5B0A0B" transform="translate(118,18)"/>
<path d="M0 0 C1.28197266 -0.00515625 2.56394531 -0.0103125 3.88476562 -0.015625 C4.54919678 -0.00724609 5.21362793 0.00113281 5.89819336 0.00976562 C7.93138442 0.03122668 9.96105757 0.00993292 11.99414062 -0.015625 C13.91516602 -0.00789062 13.91516602 -0.00789062 15.875 0 C17.63565796 0.00676758 17.63565796 0.00676758 19.43188477 0.01367188 C22.37109375 0.53125 22.37109375 0.53125 24.26928711 2.34570312 C25.37109375 4.53125 25.37109375 4.53125 25.49609375 8.03125 C25.96946365 11.55915884 25.96946365 11.55915884 28.25390625 12.8359375 C30.59631122 13.8950447 32.92304885 14.7502271 35.37109375 15.53125 C36.25796875 15.86125 37.14484375 16.19125 38.05859375 16.53125 C41.64508304 16.53125 43.55965511 14.63982898 46.37109375 12.53125 C47.23734375 12.0775 48.10359375 11.62375 48.99609375 11.15625 C51.60351682 9.60501531 51.60351682 9.60501531 53.24609375 6.53125 C55.8628627 2.83698795 58.01908016 1.38164346 62.37109375 0.53125 C70.56466949 -0.0493971 78.49564779 0.08714608 86.37109375 2.53125 C86.86609375 3.52125 86.86609375 3.52125 87.37109375 4.53125 C72.02609375 5.02625 72.02609375 5.02625 56.37109375 5.53125 C55.71109375 7.51125 55.05109375 9.49125 54.37109375 11.53125 C53.38109375 11.86125 52.39109375 12.19125 51.37109375 12.53125 C51.37109375 13.19125 51.37109375 13.85125 51.37109375 14.53125 C49.39109375 14.86125 47.41109375 15.19125 45.37109375 15.53125 C45.37109375 18.17125 45.37109375 20.81125 45.37109375 23.53125 C41.83255211 25.80602677 39.66162002 25.52207706 35.62109375 24.65625 C34.63625 24.45257813 33.65140625 24.24890625 32.63671875 24.0390625 C31.8890625 23.87148438 31.14140625 23.70390625 30.37109375 23.53125 C30.37109375 22.21125 30.37109375 20.89125 30.37109375 19.53125 C29.60796875 19.510625 28.84484375 19.49 28.05859375 19.46875 C25.37109375 18.53125 25.37109375 18.53125 23.55859375 15.40625 C21.93916389 11.52319719 22.37109375 9.21058766 22.37109375 4.53125 C12.14109375 4.53125 1.91109375 4.53125 -8.62890625 4.53125 C-8.95890625 5.52125 -9.28890625 6.51125 -9.62890625 7.53125 C-9.95890625 6.54125 -10.28890625 5.55125 -10.62890625 4.53125 C-7.34170324 0.45400482 -5.15690935 0.01980298 0 0 Z " fill="#390202" transform="translate(61.62890625,13.46875)"/>
<path d="M0 0 C1.98 0 3.96 0 6 0 C6 3.3 6 6.6 6 10 C4 11 4 11 -4 11 C-4 24.86 -4 38.72 -4 53 C-4.99 53 -5.98 53 -7 53 C-7 51.35 -7 49.7 -7 48 C-7.99 48 -8.98 48 -10 48 C-10.07347656 46.71416016 -10.07347656 46.71416016 -10.1484375 45.40234375 C-10.54534244 39.33243544 -10.99208399 33.75602589 -13 28 C-13.33 28 -13.66 28 -14 28 C-15.22517308 22.33357449 -15.09228867 16.76291482 -15 11 C-12.29120665 9.64560332 -9.99066732 9.93498549 -7 10 C-6.690625 9.38125 -6.38125 8.7625 -6.0625 8.125 C-5.375 6.75 -4.6875 5.375 -4 4 C-3.34 4 -2.68 4 -2 4 C-1.34 2.68 -0.68 1.36 0 0 Z " fill="#620805" transform="translate(47,29)"/>
<path d="M0 0 C0.99 1.32 1.98 2.64 3 4 C4.84614006 6.10987435 6.53827898 7.34358233 8.9375 8.875 C12 11 12 11 13.9375 13.5 C15.88108886 15.85586528 17.08391963 16.76399773 19.6875 18.1875 C23 20 23 20 24 22 C25.21187936 29.13662289 25.13144313 36.46876088 25.1875 43.6875 C25.20047119 44.57800049 25.21344238 45.46850098 25.22680664 46.38598633 C25.23559656 52.68835831 24.86858407 58.70773282 21.6875 64.3125 C20 66 20 66 17.5625 67.4375 C14.63122388 69.22486349 13.01021523 71.2452606 11 74 C11 71.36 11 68.72 11 66 C14.46214649 63.94835763 15.59389235 64 20 64 C19.505 43.21 19.505 43.21 19 22 C17.02 21.67 15.04 21.34 13 21 C13 20.34 13 19.68 13 19 C11.68 19 10.36 19 9 19 C9 16.36 9 13.72 9 11 C6.03 11 3.06 11 0 11 C0 7.37 0 3.74 0 0 Z " fill="#430305" transform="translate(149,18)"/>
<path d="M0 0 C9.9 0 19.8 0 30 0 C30 2.64 30 5.28 30 8 C30.66 8 31.32 8 32 8 C32 8.66 32 9.32 32 10 C21.44 10 10.88 10 0 10 C0 6.7 0 3.4 0 0 Z " fill="#C73F47" transform="translate(53,29)"/>
<path d="M0 0 C2.875 0.25 2.875 0.25 6 1 C7.375 3.0625 7.375 3.0625 8 5 C8.66 5 9.32 5 10 5 C10.28814926 37.40078314 10.28814926 37.40078314 5 43 C4.01 43 3.02 43 2 43 C2 32.44 2 21.88 2 11 C1.34 11 0.68 11 0 11 C0 7.37 0 3.74 0 0 Z " fill="#6D0505" transform="translate(158,39)"/>
<path d="M0 0 C1.29550781 0.05800781 2.59101562 0.11601562 3.92578125 0.17578125 C5.28908944 0.2573635 6.65237049 0.33940053 8.015625 0.421875 C9.39443828 0.49018437 10.77334617 0.55661178 12.15234375 0.62109375 C15.52482778 0.78618038 18.89514593 0.97048223 22.265625 1.171875 C22.760625 5.626875 22.760625 5.626875 23.265625 10.171875 C12.705625 10.171875 2.145625 10.171875 -8.734375 10.171875 C-8.734375 10.831875 -8.734375 11.491875 -8.734375 12.171875 C-9.394375 12.171875 -10.054375 12.171875 -10.734375 12.171875 C-11.22445111 4.82073338 -11.22445111 4.82073338 -9.13085938 2.04882812 C-5.90645208 -0.47656341 -4.05159184 -0.21324168 0 0 Z " fill="#610A07" transform="translate(61.734375,16.828125)"/>
<path d="M0 0 C3.63 0 7.26 0 11 0 C11 4.29 11 8.58 11 13 C8.36 13.66 5.72 14.32 3 15 C2.67 14.34 2.34 13.68 2 13 C2.33 12.34 2.66 11.68 3 11 C2.34 11 1.68 11 1 11 C1 14.3 1 17.6 1 21 C1.66 21.33 2.32 21.66 3 22 C-1.29 22 -5.58 22 -10 22 C-10 18.37 -10 14.74 -10 11 C-6.7 11 -3.4 11 0 11 C0 7.37 0 3.74 0 0 Z " fill="#C93234" transform="translate(85,39)"/>
<path d="M0 0 C10.56 0 21.12 0 32 0 C30 5 30 5 28 8 C24.27516014 8.74472644 20.47802328 8.60190114 16.6875 8.625 C15.64142578 8.67011719 14.59535156 8.71523437 13.51757812 8.76171875 C5.97586132 8.82892692 5.97586132 8.82892692 3.15478516 6.43261719 C0 2.08464047 0 2.08464047 0 0 Z " fill="#640807" transform="translate(85,125)"/>
<path d="M0 0 C0.74507812 0.01353516 1.49015625 0.02707031 2.2578125 0.04101562 C4.08885416 0.07622796 5.91952169 0.13003149 7.75 0.1875 C11.75 6.9375 11.75 6.9375 11.75 9.1875 C1.85 9.1875 -8.05 9.1875 -18.25 9.1875 C-18.25 8.1975 -18.25 7.2075 -18.25 6.1875 C-17.3425 5.754375 -16.435 5.32125 -15.5 4.875 C-12.35038499 3.42829833 -12.35038499 3.42829833 -10.5625 1.59375 C-7.16608591 -0.47163694 -3.84475886 -0.13246077 0 0 Z " fill="#730306" transform="translate(135.25,19.8125)"/>
<path d="M0 0 C1.32 0.33 2.64 0.66 4 1 C3.01 1.495 3.01 1.495 2 2 C2 5.96 2 9.92 2 14 C8.93 14 15.86 14 23 14 C23 14.33 23 14.66 23 15 C12.44 15 1.88 15 -9 15 C-9 11.37 -9 7.74 -9 4 C-12.3 4 -15.6 4 -19 4 C-19 3.34 -19 2.68 -19 2 C-12.66666667 2 -6.33333333 2 0 2 C0 1.34 0 0.68 0 0 Z " fill="#9F1918" transform="translate(94,110)"/>
<path d="M0 0 C6.93359375 -0.09765625 6.93359375 -0.09765625 9 0 C11.26706067 2.26706067 10.74409224 8.11189811 11 11 C14.3 11 17.6 11 21 11 C21 13.97 21 16.94 21 20 C18.5625 19.625 18.5625 19.625 16 19 C15.67 18.34 15.34 17.68 15 17 C14.4225 16.896875 13.845 16.79375 13.25 16.6875 C9.92289324 15.67088405 8.25738244 13.57090778 6 11 C6 10.34 6 9.68 6 9 C4.02 9 2.04 9 0 9 C0 6.03 0 3.06 0 0 Z " fill="#6B0705" transform="translate(64,103)"/>
<path d="M0 0 C3.3 0 6.6 0 10 0 C10 2.64 10 5.28 10 8 C13.63 8.66 17.26 9.32 21 10 C21 12.97 21 15.94 21 19 C18.36 19 15.72 19 13 19 C12.01 15.7 11.02 12.4 10 9 C8.68 9.33 7.36 9.66 6 10 C2.75 9.0625 2.75 9.0625 0 8 C0 5.36 0 2.72 0 0 Z " fill="#AC1A1A" transform="translate(137,29)"/>
<path d="M0 0 C6.27 0 12.54 0 19 0 C19 2.97 19 5.94 19 9 C12.73 9 6.46 9 0 9 C0 6.03 0 3.06 0 0 Z " fill="#D52E32" transform="translate(96,114)"/>
<path d="M0 0 C0.33 0 0.66 0 1 0 C1 2.31 1 4.62 1 7 C0.195625 7.28875 -0.60875 7.5775 -1.4375 7.875 C-4.1326468 8.73262568 -4.1326468 8.73262568 -5 11 C-5.66 11 -6.32 11 -7 11 C-7.309375 11.61875 -7.61875 12.2375 -7.9375 12.875 C-8.625 14.25 -9.3125 15.625 -10 17 C-12.64860427 17.59355614 -15.29197322 17.74209269 -18 18 C-17.98952637 18.83249268 -17.97905273 19.66498535 -17.96826172 20.52270508 C-17.93415558 23.61449156 -17.90908924 26.70618208 -17.89013672 29.7980957 C-17.87514505 31.79319618 -17.84973269 33.78820946 -17.82421875 35.78320312 C-17.81777344 37.03681641 -17.81132813 38.29042969 -17.8046875 39.58203125 C-17.79421387 40.73936768 -17.78374023 41.8967041 -17.77294922 43.08911133 C-18 46 -18 46 -20 49 C-21.27364614 38.01480208 -21.10085216 27.04098375 -21 16 C-20.3807666 15.83056885 -19.7615332 15.6611377 -19.12353516 15.48657227 C-14.16695277 14.14234183 -14.16695277 14.14234183 -10.2734375 11.02734375 C-9.97695313 10.33769531 -9.68046875 9.64804687 -9.375 8.9375 C-7.43394027 5.22564894 -7.43394027 5.22564894 -5.14453125 4.03515625 C-3.1875 3.5 -3.1875 3.5 0 3 C0 2.01 0 1.02 0 0 Z " fill="#3A0202" transform="translate(50,22)"/>
<path d="M0 0 C10.56 0 21.12 0 32 0 C32 3.63 32 7.26 32 11 C28.7 11 25.4 11 22 11 C22 14.63 22 18.26 22 22 C18.37 22 14.74 22 11 22 C11 25.3 11 28.6 11 32 C7.37 32 3.74 32 0 32 C0 21.44 0 10.88 0 0 Z M1 1 C1 10.57 1 20.14 1 30 C3.64 30 6.28 30 9 30 C9.66 27.03 10.32 24.06 11 21 C12.464375 20.855625 13.92875 20.71125 15.4375 20.5625 C18.51846698 20.46504174 18.51846698 20.46504174 21 19 C21.23287008 17.31816052 21.41264166 15.6287584 21.5625 13.9375 C21.64628906 13.01839844 21.73007813 12.09929688 21.81640625 11.15234375 C21.90728516 10.08693359 21.90728516 10.08693359 22 9 C24.64 9 27.28 9 30 9 C30 6.36 30 3.72 30 1 C20.43 1 10.86 1 1 1 Z " fill="#F7B2AD" transform="translate(53,39)"/>
<path d="M0 0 C0.66 0 1.32 0 2 0 C2 3.3 2 6.6 2 10 C0 11 0 11 -8 11 C-8 24.86 -8 38.72 -8 53 C-8.99 53 -9.98 53 -11 53 C-11.07410115 47.21593031 -11.12857885 41.43213629 -11.16479492 35.64770508 C-11.17989082 33.67955717 -11.20036948 31.71144294 -11.22631836 29.7434082 C-11.26266649 26.91609388 -11.27971814 24.0892239 -11.29296875 21.26171875 C-11.30845261 20.38037766 -11.32393646 19.49903656 -11.33988953 18.59098816 C-11.34011612 17.77036392 -11.34034271 16.94973969 -11.34057617 16.10424805 C-11.34723801 15.38254929 -11.35389984 14.66085052 -11.36076355 13.9172821 C-10.89306376 11.4316861 -9.9558054 10.55289206 -8 9 C-5.32681142 8.33042504 -2.76174963 8.22637292 0 8 C0 5.36 0 2.72 0 0 Z " fill="#950709" transform="translate(51,29)"/>
<path d="M0 0 C6.93 0 13.86 0 21 0 C21 4.29 21 8.58 21 13 C17.37 13 13.74 13 10 13 C10 9.37 10 5.74 10 2 C6.7 2 3.4 2 0 2 C0 1.34 0 0.68 0 0 Z " fill="#C02021" transform="translate(43,80)"/>
<path d="M0 0 C9.57 0 19.14 0 29 0 C29 2.64 29 5.28 29 8 C27.68 7.67 26.36 7.34 25 7 C25.66 7 26.32 7 27 7 C27 5.02 27 3.04 27 1 C23.74873648 1.27855178 20.4993609 1.57512785 17.25 1.875 C16.32960938 1.95363281 15.40921875 2.03226563 14.4609375 2.11328125 C13.12675781 2.23896484 13.12675781 2.23896484 11.765625 2.3671875 C10.54020996 2.47716064 10.54020996 2.47716064 9.29003906 2.58935547 C6.61316988 2.95814519 6.61316988 2.95814519 3 5 C2.67 11.6 2.34 18.2 2 25 C3.32 25 4.64 25 6 25 C6 23.35 6 21.7 6 20 C7.32 19.67 8.64 19.34 10 19 C9.34 22.3 8.68 25.6 8 29 C5.36 29 2.72 29 0 29 C0 19.43 0 9.86 0 0 Z " fill="#FEEBE7" transform="translate(54,40)"/>
<path d="M0 0 C0 1.32 0 2.64 0 4 C1.32 4 2.64 4 4 4 C4 4.66 4 5.32 4 6 C-5.57 6 -15.14 6 -25 6 C-24.34 5.34 -23.68 4.68 -23 4 C-22.01 4 -21.02 4 -20 4 C-19.731875 3.360625 -19.46375 2.72125 -19.1875 2.0625 C-15.99497772 -3.48240712 -5.26208496 -1.07940204 0 0 Z " fill="#730402" transform="translate(79,21)"/>
<path d="M0 0 C0.66 0.33 1.32 0.66 2 1 C3.62556022 7.93163413 3.12680809 15.59521638 3.1875 22.6875 C3.20707764 24.02312988 3.20707764 24.02312988 3.22705078 25.38574219 C3.23525415 31.68827664 2.86870313 37.70752306 -0.3125 43.3125 C-2 45 -2 45 -4.4375 46.4375 C-7.36877612 48.22486349 -8.98978477 50.2452606 -11 53 C-11 50.36 -11 47.72 -11 45 C-7.86501708 43.14223235 -5.62528568 42.79859524 -2 43 C-1.11434414 40.34303242 -0.8549738 38.71809917 -0.79467773 35.98754883 C-0.77473251 35.18694534 -0.75478729 34.38634186 -0.73423767 33.56147766 C-0.71752518 32.70201035 -0.70081268 31.84254303 -0.68359375 30.95703125 C-0.6524221 29.63163582 -0.6524221 29.63163582 -0.62062073 28.27946472 C-0.55524246 25.45722215 -0.49629472 22.63488665 -0.4375 19.8125 C-0.39430363 17.89907894 -0.35068898 15.98566727 -0.30664062 14.07226562 C-0.19957305 9.38160563 -0.09827248 4.69085217 0 0 Z " fill="#2C0000" transform="translate(171,39)"/>
<path d="M0 0 C2.97 0.495 2.97 0.495 6 1 C7.02232879 4.06698637 7.1659049 6.28664878 7.1875 9.5 C7.20167969 10.4590625 7.21585938 11.418125 7.23046875 12.40625 C7 15 7 15 5 18 C4.95833998 20.3329614 4.95833998 22.6670386 5 25 C4.67 25.99 4.34 26.98 4 28 C3.64456573 30.33006911 3.3086247 32.66327016 3 35 C3.66 35.33 4.32 35.66 5 36 C4.01 37.32 3.02 38.64 2 40 C2 30.43 2 20.86 2 11 C1.34 11 0.68 11 0 11 C0 7.37 0 3.74 0 0 Z " fill="#710306" transform="translate(158,39)"/>
<path d="M0 0 C1.94326172 0.01933594 1.94326172 0.01933594 3.92578125 0.0390625 C5.28907324 0.07248134 6.65235449 0.10634109 8.015625 0.140625 C9.39450564 0.16069793 10.77341412 0.17894733 12.15234375 0.1953125 C15.52414244 0.24247052 18.89453187 0.30827962 22.265625 0.390625 C22.760625 1.380625 22.760625 1.380625 23.265625 2.390625 C22.605625 2.390625 21.945625 2.390625 21.265625 2.390625 C21.265625 3.050625 21.265625 3.710625 21.265625 4.390625 C11.365625 4.390625 1.465625 4.390625 -8.734375 4.390625 C-9.064375 5.380625 -9.394375 6.370625 -9.734375 7.390625 C-10.064375 6.400625 -10.394375 5.410625 -10.734375 4.390625 C-7.41705615 0.24038627 -5.21859287 -0.09155426 0 0 Z " fill="#340201" transform="translate(61.734375,13.609375)"/>
<path d="M0 0 C3.63 0 7.26 0 11 0 C11 3.3 11 6.6 11 10 C7.37 10 3.74 10 0 10 C0 6.7 0 3.4 0 0 Z " fill="#DC7879" transform="translate(64,61)"/>
<path d="M0 0 C3.3 0 6.6 0 10 0 C10 3.63 10 7.26 10 11 C6.7 11 3.4 11 0 11 C0 7.37 0 3.74 0 0 Z " fill="#D27979" transform="translate(75,50)"/>
<path d="M0 0 C3.63 0 7.26 0 11 0 C11 3.3 11 6.6 11 10 C9.741875 10.04125 8.48375 10.0825 7.1875 10.125 C6.47980469 10.14820313 5.77210938 10.17140625 5.04296875 10.1953125 C3 10 3 10 0 8 C-0.40843923 5.28796348 -0.13336867 2.7562858 0 0 Z " fill="#6C0609" transform="translate(147,29)"/>
<path d="M0 0 C0.66 0 1.32 0 2 0 C2 11.88 2 23.76 2 36 C1.01 36 0.02 36 -1 36 C-1.06058594 35.14277344 -1.12117188 34.28554687 -1.18359375 33.40234375 C-1.61143536 27.56395127 -2.059163 21.77942728 -3 16 C-2.34 16 -1.68 16 -1 16 C-0.40801257 10.65097076 0.14187241 5.39115154 0 0 Z " fill="#790101" transform="translate(38,41)"/>
<path d="M0 0 C3.3 0 6.6 0 10 0 C10 3.63 10 7.26 10 11 C9.34 11 8.68 11 8 11 C8 10.34 8 9.68 8 9 C5.36 9.33 2.72 9.66 0 10 C0 6.7 0 3.4 0 0 Z " fill="#730404" transform="translate(43,82)"/>
<path d="M0 0 C0.66 0 1.32 0 2 0 C2 9.57 2 19.14 2 29 C5.96 29.33 9.92 29.66 14 30 C14 30.33 14 30.66 14 31 C12.41870971 31.22331199 10.83478911 31.42804644 9.25 31.625 C7.92742188 31.79902344 7.92742188 31.79902344 6.578125 31.9765625 C3.73480489 32.00241086 2.41815003 31.41753622 0 30 C-1.3242287 29.63215869 -2.65613912 29.28797019 -4 29 C-4 27.68 -4 26.36 -4 25 C-3.01 25 -2.02 25 -1 25 C-0.67 16.75 -0.34 8.5 0 0 Z " fill="#B42F30" transform="translate(49,42)"/>
<path d="M0 0 C0.99 0.33 1.98 0.66 3 1 C2.67 1.66 2.34 2.32 2 3 C2.99 2.95875 3.98 2.9175 5 2.875 C9.23989237 2.85776467 12.91547886 3.91079436 17 5 C17.99 5 18.98 5 20 5 C20 5.66 20 6.32 20 7 C10.1 7 0.2 7 -10 7 C-10 6.34 -10 5.68 -10 5 C-7.69 5 -5.38 5 -3 5 C-2.814375 4.0409375 -2.814375 4.0409375 -2.625 3.0625 C-2.41875 2.381875 -2.2125 1.70125 -2 1 C-1.34 0.67 -0.68 0.34 0 0 Z " fill="#8E0D0E" transform="translate(127,22)"/>
<path d="M0 0 C8.58 0 17.16 0 26 0 C25.67 0.99 25.34 1.98 25 3 C17.63512596 3.99862699 10.42686315 4.10331031 3 4 C3 3.34 3 2.68 3 2 C2.01 2 1.02 2 0 2 C0 1.34 0 0.68 0 0 Z " fill="#7E0102" transform="translate(91,125)"/>
<path d="M0 0 C6.27 0 12.54 0 19 0 C19.33 2.97 19.66 5.94 20 9 C19.01 8.67 18.02 8.34 17 8 C16 5 16 5 17 2 C16.01 2 15.02 2 14 2 C14 2.66 14 3.32 14 4 C13.07767578 3.82210937 13.07767578 3.82210937 12.13671875 3.640625 C9.7142527 3.25426678 7.45439032 2.95196033 5 3 C2.99821137 4.80495431 2.99821137 4.80495431 2 7 C1.34 7 0.68 7 0 7 C0 4.69 0 2.38 0 0 Z " fill="#C3262A" transform="translate(118,29)"/>
<path d="M0 0 C10.56 0 21.12 0 32 0 C32.495 5.94 32.495 5.94 33 12 C32.505 11.01 32.505 11.01 32 10 C31.34 10 30.68 10 30 10 C30 7.36 30 4.72 30 2 C20.1 2 10.2 2 0 2 C0 1.34 0 0.68 0 0 Z " fill="#9C1715" transform="translate(53,27)"/>
<path d="M0 0 C0.66 0 1.32 0 2 0 C2 3.3 2 6.6 2 10 C0 11 0 11 -8 11 C-8 24.2 -8 37.4 -8 51 C-8.33 51 -8.66 51 -9 51 C-9.19207142 45.34034606 -9.37082399 39.68048989 -9.53710938 34.02001953 C-9.59559792 32.09347181 -9.65775936 30.16703201 -9.72363281 28.24072266 C-9.81755244 25.47578581 -9.89836327 22.71073297 -9.9765625 19.9453125 C-10.00875885 19.0806839 -10.0409552 18.2160553 -10.0741272 17.32522583 C-10.12723194 15.21734128 -10.07310184 13.10728582 -10 11 C-6.99382731 7.99382731 -4.17618402 8.40414684 0 8 C0 5.36 0 2.72 0 0 Z " fill="#B21C1F" transform="translate(51,29)"/>
<path d="M0 0 C0.33 0 0.66 0 1 0 C1 6.27 1 12.54 1 19 C-0.65 18.67 -2.3 18.34 -4 18 C-4.68881993 6.17525794 -4.68881993 6.17525794 -2.0625 2.25 C-1.381875 1.5075 -0.70125 0.765 0 0 Z " fill="#D92E31" transform="translate(47,41)"/>
<path d="M0 0 C0.33 0 0.66 0 1 0 C1 3.63 1 7.26 1 11 C-2.63 11 -6.26 11 -10 11 C-10 8.36 -10 5.72 -10 3 C-9.01 3.33 -8.02 3.66 -7 4 C-7 4.66 -7 5.32 -7 6 C-5.08533633 5.87822312 -5.08533633 5.87822312 -3 5 C-1.30117552 2.50240018 -1.30117552 2.50240018 0 0 Z " fill="#8A0201" transform="translate(106,39)"/>
<path d="M0 0 C3.63 0 7.26 0 11 0 C11 1.32 11 2.64 11 4 C10.195625 4.28875 9.39125 4.5775 8.5625 4.875 C5.8673532 5.73262568 5.8673532 5.73262568 5 8 C4.01 8 3.02 8 2 8 C2 8.99 2 9.98 2 11 C1.34 11 0.68 11 0 11 C0 7.37 0 3.74 0 0 Z " fill="#650708" transform="translate(117,114)"/>
<path d="M0 0 C2.97 0 5.94 0 9 0 C8.67 2.97 8.34 5.94 8 9 C5.36 9 2.72 9 0 9 C0 6.03 0 3.06 0 0 Z " fill="#D12F31" transform="translate(139,82)"/>
<path d="M0 0 C2.05078125 0.03255208 4.1015625 0.06510417 6.15234375 0.09765625 C6.15234375 2.73765625 6.15234375 5.37765625 6.15234375 8.09765625 C3.18234375 8.09765625 0.21234375 8.09765625 -2.84765625 8.09765625 C-2.89007348 5.7647085 -2.88858562 3.43063058 -2.84765625 1.09765625 C-1.84765625 0.09765625 -1.84765625 0.09765625 0 0 Z " fill="#D82E34" transform="translate(119.84765625,103.90234375)"/>
<path d="M0 0 C6.15234375 -0.09765625 6.15234375 -0.09765625 8 0 C9 1 9 1 9.0625 4.5625 C9.041875 5.696875 9.02125 6.83125 9 8 C6.03 8 3.06 8 0 8 C0 5.36 0 2.72 0 0 Z " fill="#D72E32" transform="translate(128,93)"/>
<path d="M0 0 C2.97 0 5.94 0 9 0 C8.67 1.65 8.34 3.3 8 5 C7.01 5.33 6.02 5.66 5 6 C5 6.99 5 7.98 5 9 C3.35 9.66 1.7 10.32 0 11 C0 7.37 0 3.74 0 0 Z " fill="#6D0507" transform="translate(149,82)"/>
<path d="M0 0 C3.63 0.33 7.26 0.66 11 1 C11 3.97 11 6.94 11 10 C12.3921875 9.87625 12.3921875 9.87625 13.8125 9.75 C17 10 17 10 18.9375 11.75 C20.20113775 14.42593877 19.8341107 15.26181592 19 18 C9.6968427 11.87446433 9.6968427 11.87446433 8.4375 6.5625 C8.293125 5.386875 8.14875 4.21125 8 3 C6.865625 2.87625 5.73125 2.7525 4.5625 2.625 C3.386875 2.41875 2.21125 2.2125 1 2 C0.67 1.34 0.34 0.68 0 0 Z " fill="#3B0001" transform="translate(53,102)"/>
<path d="M0 0 C3.3 0 6.6 0 10 0 C9.07542408 3.69830369 8.57034939 5.33445248 6 8 C4.68 8 3.36 8 2 8 C2 8.66 2 9.32 2 10 C1.34 10 0.68 10 0 10 C0 6.7 0 3.4 0 0 Z " fill="#6B0408" transform="translate(139,93)"/>
<path d="M0 0 C1.32 0 2.64 0 4 0 C4 1.32 4 2.64 4 4 C4.66 4 5.32 4 6 4 C6 5.32 6 6.64 6 8 C6.9590625 8.2165625 6.9590625 8.2165625 7.9375 8.4375 C10 9 10 9 11 10 C11.07179964 11.51928038 11.08392007 13.04167482 11.0625 14.5625 C11.05347656 15.38878906 11.04445313 16.21507813 11.03515625 17.06640625 C11.02355469 17.70449219 11.01195313 18.34257813 11 19 C10.67 19 10.34 19 10 19 C9.67 16.36 9.34 13.72 9 11 C6.03 10.67 3.06 10.34 0 10 C0 6.7 0 3.4 0 0 Z " fill="#B32220" transform="translate(64,93)"/>
<path d="M0 0 C1.32 0 2.64 0 4 0 C4 2.64 4 5.28 4 8 C3.37351562 8.20496094 2.74703125 8.40992188 2.1015625 8.62109375 C1.28429688 8.89050781 0.46703125 9.15992188 -0.375 9.4375 C-1.18710937 9.70433594 -1.99921875 9.97117187 -2.8359375 10.24609375 C-5.01031799 10.95179729 -5.01031799 10.95179729 -7 12 C-6.45276317 8.62537285 -5.9451 6.91765 -4 4 C-3.34 4 -2.68 4 -2 4 C-1.34 2.68 -0.68 1.36 0 0 Z " fill="#7B0508" transform="translate(47,29)"/>
<path d="M0 0 C0.33 0.99 0.66 1.98 1 3 C1.66 2.01 2.32 1.02 3 0 C3.33 1.65 3.66 3.3 4 5 C2.02 5 0.04 5 -2 5 C-2 5.66 -2 6.32 -2 7 C-0.02 7 1.96 7 4 7 C4 7.66 4 8.32 4 9 C1.69 9.33 -0.62 9.66 -3 10 C-6 3.25 -6 3.25 -6 1 C-4 0 -4 0 0 0 Z " fill="#B01414" transform="translate(122,92)"/>
<path d="M0 0 C0.66 0 1.32 0 2 0 C3.62458471 7.94886091 4.19331736 15.59264227 4.1875 23.6875 C4.18814453 24.57276367 4.18878906 25.45802734 4.18945312 26.37011719 C4.13516118 32.72967763 4.13516118 32.72967763 3 35 C3.66 35.33 4.32 35.66 5 36 C4.01 37.32 3.02 38.64 2 40 C2 30.43 2 20.86 2 11 C1.34 11 0.68 11 0 11 C0 7.37 0 3.74 0 0 Z " fill="#8A0709" transform="translate(158,39)"/>
<path d="M0 0 C1.65 0 3.3 0 5 0 C5 0.66 5 1.32 5 2 C5.99 2 6.98 2 8 2 C8.33 3.98 8.66 5.96 9 8 C6.03 8 3.06 8 0 8 C0 5.36 0 2.72 0 0 Z " fill="#730305" transform="translate(64,104)"/>
<path d="M0 0 C7.26 0 14.52 0 22 0 C22 1.32 22 2.64 22 4 C21.01 3.67 20.02 3.34 19 3 C19 2.34 19 1.68 19 1 C18.0925 1.309375 17.185 1.61875 16.25 1.9375 C11.13886136 3.60844917 6.33651839 4.37740619 1 5 C0.67 4.01 0.34 3.02 0 2 C1.65 2 3.3 2 5 2 C3.35 1.67 1.7 1.34 0 1 C0 0.67 0 0.34 0 0 Z " fill="#D03A3C" transform="translate(53,71)"/>
<path d="M0 0 C3.63 0 7.26 0 11 0 C8.73914557 4.52170885 8.37481485 4.39945798 4 6 C2.29078411 7.5412312 2.29078411 7.5412312 1 9 C0.67 9 0.34 9 0 9 C0 6.03 0 3.06 0 0 Z " fill="#700505" transform="translate(128,103)"/>
<path d="M0 0 C5.94 0 11.88 0 18 0 C18 0.99 18 1.98 18 3 C15.20865148 3.19425873 12.41716313 3.38069517 9.625 3.5625 C8.8309375 3.61857422 8.036875 3.67464844 7.21875 3.73242188 C1.2265625 4.11328125 1.2265625 4.11328125 -1 3 C-0.67 2.01 -0.34 1.02 0 0 Z " fill="#D52B32" transform="translate(62,30)"/>
<path d="M0 0 C3.63 0 7.26 0 11 0 C11 2.64 11 5.28 11 8 C7.16861638 6.89315584 4.63236831 6.02722356 2 3 C1.34 2.67 0.68 2.34 0 2 C0 1.34 0 0.68 0 0 Z " fill="#6E0305" transform="translate(53,93)"/>
<path d="M0 0 C0.33 0 0.66 0 1 0 C1 2.31 1 4.62 1 7 C4.16666667 5.16666667 4.16666667 5.16666667 6 2 C6.99 2.33 7.98 2.66 9 3 C9 5.31 9 7.62 9 10 C8.01 10.495 8.01 10.495 7 11 C6.67 10.01 6.34 9.02 6 8 C3.36 9.98 0.72 11.96 -2 14 C-1.67 13.01 -1.34 12.02 -1 11 C-0.77820215 9.10787263 -0.59385985 7.21115528 -0.4375 5.3125 C-0.35371094 4.31863281 -0.26992187 3.32476562 -0.18359375 2.30078125 C-0.12300781 1.54152344 -0.06242187 0.78226563 0 0 Z " fill="#D32B2B" transform="translate(117,29)"/>
<path d="M0 0 C0.66 0 1.32 0 2 0 C2 0.66 2 1.32 2 2 C2.99 2 3.98 2 5 2 C5 2.66 5 3.32 5 4 C8.96 4 12.92 4 17 4 C14 7 14 7 11.08203125 7.29296875 C10.00308594 7.25816406 8.92414063 7.22335938 7.8125 7.1875 C6.72582031 7.16042969 5.63914062 7.13335937 4.51953125 7.10546875 C3.68808594 7.07066406 2.85664062 7.03585938 2 7 C2 6.34 2 5.68 2 5 C1.34 5 0.68 5 0 5 C0 3.35 0 1.7 0 0 Z " fill="#6D0404" transform="translate(89,125)"/>
<path d="M0 0 C0.33 0 0.66 0 1 0 C1 3.63 1 7.26 1 11 C-1.64 11 -4.28 11 -7 11 C-6.69894935 7.38739215 -6.29131912 6.25490423 -3.5 3.8125 C-2.675 3.214375 -1.85 2.61625 -1 2 C-0.67 1.34 -0.34 0.68 0 0 Z " fill="#CF3535" transform="translate(157,69)"/>
<path d="M0 0 C0.33 0.66 0.66 1.32 1 2 C-1.64 2 -4.28 2 -7 2 C-7 1.34 -7 0.68 -7 0 C-13.93 0 -20.86 0 -28 0 C-19.85131634 -4.07434183 -8.55014743 -2.65349403 0 0 Z " fill="#2C0000" transform="translate(148,16)"/>
<path d="M0 0 C9.57 0 19.14 0 29 0 C29 2.64 29 5.28 29 8 C27.68 7.67 26.36 7.34 25 7 C25.66 7 26.32 7 27 7 C27 5.02 27 3.04 27 1 C26.17822266 1.10828125 26.17822266 1.10828125 25.33984375 1.21875 C17.54010957 2.13188961 9.84198809 2.09410386 2 2 C1.34 3.32 0.68 4.64 0 6 C0 4.02 0 2.04 0 0 Z " fill="#FEDFD8" transform="translate(54,40)"/>
<path d="M0 0 C4.875 1.75 4.875 1.75 6 4 C7.64363134 4.72159424 9.31050386 5.39351421 11 6 C11 6.66 11 7.32 11 8 C9.54176788 8.0270043 8.08339325 8.04639787 6.625 8.0625 C5.81289063 8.07410156 5.00078125 8.08570312 4.1640625 8.09765625 C2 8 2 8 0 7 C0 4.69 0 2.38 0 0 Z " fill="#60090B" transform="translate(53,95)"/>
<path d="M0 0 C0.66 0 1.32 0 2 0 C2 3.63 2 7.26 2 11 C-1.3 11 -4.6 11 -8 11 C-8 10.34 -8 9.68 -8 9 C-6.865625 8.443125 -5.73125 7.88625 -4.5625 7.3125 C-1.44531169 5.5777124 -1.44531169 5.5777124 -0.0625 2.25 C-0.041875 1.5075 -0.02125 0.765 0 0 Z " fill="#F15957" transform="translate(83,50)"/>
<path d="M0 0 C1.32 0.33 2.64 0.66 4 1 C3.01 1.495 3.01 1.495 2 2 C2 5.63 2 9.26 2 13 C0.68 12.34 -0.64 11.68 -2 11 C-2 8.03 -2 5.06 -2 2 C-1.34 2 -0.68 2 0 2 C0 1.34 0 0.68 0 0 Z " fill="#B91A1D" transform="translate(94,110)"/>
<path d="M0 0 C0.33 0 0.66 0 1 0 C1 3.63 1 7.26 1 11 C-2.63 11 -6.26 11 -10 11 C-10 13.64 -10 16.28 -10 19 C-10.66 19 -11.32 19 -12 19 C-12.25 12.375 -12.25 12.375 -10 9 C-7.8359375 8.48828125 -7.8359375 8.48828125 -5.375 8.3125 C-4.55773437 8.24675781 -3.74046875 8.18101563 -2.8984375 8.11328125 C-2.27195312 8.07589844 -1.64546875 8.03851563 -1 8 C-0.67 5.36 -0.34 2.72 0 0 Z " fill="#F6C5C9" transform="translate(74,50)"/>
<path d="M0 0 C2.64 0 5.28 0 8 0 C6.7934375 1.051875 6.7934375 1.051875 5.5625 2.125 C2.76566189 5.26291593 2.28691249 6.88758763 2 11 C2.66 11.33 3.32 11.66 4 12 C3.34 12 2.68 12 2 12 C1.67 12.99 1.34 13.98 1 15 C0.67 15 0.34 15 0 15 C0 10.05 0 5.1 0 0 Z " fill="#D4312D" transform="translate(107,40)"/>
<path d="M0 0 C9.57 0 19.14 0 29 0 C29 2.64 29 5.28 29 8 C28.67 7.34 28.34 6.68 28 6 C27.01 5.67 26.02 5.34 25 5 C25.66 4.67 26.32 4.34 27 4 C26.67 3.34 26.34 2.68 26 2 C17.42 2 8.84 2 0 2 C0 1.34 0 0.68 0 0 Z " fill="#CA3438" transform="translate(54,29)"/>
<path d="M0 0 C0.66 0 1.32 0 2 0 C2 1.32 2 2.64 2 4 C2.66 4 3.32 4 4 4 C4 4.66 4 5.32 4 6 C6.31 6.66 8.62 7.32 11 8 C11 8.66 11 9.32 11 10 C9.741875 10.04125 8.48375 10.0825 7.1875 10.125 C6.47980469 10.14820313 5.77210938 10.17140625 5.04296875 10.1953125 C3 10 3 10 0 8 C-0.40843923 5.28796348 -0.13336867 2.7562858 0 0 Z " fill="#860C0D" transform="translate(147,29)"/>
<path d="M0 0 C0.99 0 1.98 0 3 0 C3 1.65 3 3.3 3 5 C0.65887549 6.44977894 -0.5796929 7.04314411 -3.359375 6.7578125 C-4.54273437 6.44457031 -4.54273437 6.44457031 -5.75 6.125 C-6.94882813 5.81949219 -6.94882813 5.81949219 -8.171875 5.5078125 C-8.77515625 5.34023438 -9.3784375 5.17265625 -10 5 C-10 3.68 -10 2.36 -10 1 C-9.34 1 -8.68 1 -8 1 C-8 1.66 -8 2.32 -8 3 C-5.36 3 -2.72 3 0 3 C0 2.01 0 1.02 0 0 Z " fill="#410000" transform="translate(104,32)"/>
<path d="M0 0 C2.64 0 5.28 0 8 0 C7.34 1.98 6.68 3.96 6 6 C4.02 6.33 2.04 6.66 0 7 C0 4.69 0 2.38 0 0 Z " fill="#D02D2B" transform="translate(75,61)"/>
<path d="M0 0 C0.66 0 1.32 0 2 0 C2 3.3 2 6.6 2 10 C-1.3 10 -4.6 10 -8 10 C-8 9.34 -8 8.68 -8 8 C-7.05125 7.79375 -6.1025 7.5875 -5.125 7.375 C-1.70833333 6.29166667 -1.70833333 6.29166667 -0.625 2.875 C-0.41875 1.92625 -0.2125 0.9775 0 0 Z " fill="#960A0B" transform="translate(115,29)"/>
<path d="M0 0 C0.99 0 1.98 0 3 0 C3 0.99 3 1.98 3 3 C3.99 3.33 4.98 3.66 6 4 C5.01 4.33 4.02 4.66 3 5 C1.77554716 6.62948064 1.77554716 6.62948064 0.8125 8.5625 C0.214375 9.696875 -0.38375 10.83125 -1 12 C-1.33 12 -1.66 12 -2 12 C-2 9.03 -2 6.06 -2 3 C-1.34 3 -0.68 3 0 3 C0 2.01 0 1.02 0 0 Z " fill="#380100" transform="translate(119,122)"/>
<path d="M0 0 C2.16874252 0.50603992 3.99967627 0.99983813 6 2 C6 2.66 6 3.32 6 4 C9.96 4.33 13.92 4.66 18 5 C18 5.33 18 5.66 18 6 C16.41870971 6.22331199 14.83478911 6.42804644 13.25 6.625 C11.92742188 6.79902344 11.92742188 6.79902344 10.578125 6.9765625 C7.73480489 7.00241086 6.41815003 6.41753622 4 5 C2.6757713 4.63215869 1.34386088 4.28797019 0 4 C0 2.68 0 1.36 0 0 Z " fill="#C72D2E" transform="translate(45,67)"/>
<path d="M0 0 C1.12588014 0.95729916 2.2506715 1.91587895 3.375 2.875 C4.00148437 3.40867188 4.62796875 3.94234375 5.2734375 4.4921875 C6.55836651 5.61432007 7.79371975 6.79371975 9 8 C8.01 8 7.02 8 6 8 C6 8.66 6 9.32 6 10 C4.68 10 3.36 10 2 10 C2 9.34 2 8.68 2 8 C1.34 8 0.68 8 0 8 C0 5.36 0 2.72 0 0 Z " fill="#2F0001" transform="translate(160,29)"/>
<path d="M0 0 C1.36125 0.37125 1.36125 0.37125 2.75 0.75 C2.42 1.41 2.09 2.07 1.75 2.75 C0.1 2.75 -1.55 2.75 -3.25 2.75 C-3.25 4.07 -3.25 5.39 -3.25 6.75 C-3.91 6.75 -4.57 6.75 -5.25 6.75 C-5.25 8.4 -5.25 10.05 -5.25 11.75 C-5.91 11.75 -6.57 11.75 -7.25 11.75 C-7.73259861 4.51102088 -7.73259861 4.51102088 -5.625 1.1875 C-3.25 -0.25 -3.25 -0.25 0 0 Z " fill="#500608" transform="translate(58.25,17.25)"/>
<path d="M0 0 C2.64 0 5.28 0 8 0 C8 1.32 8 2.64 8 4 C7.34 4 6.68 4 6 4 C6 5.32 6 6.64 6 8 C5.34 8 4.68 8 4 8 C4 6.68 4 5.36 4 4 C2.35 3.67 0.7 3.34 -1 3 C-0.67 2.01 -0.34 1.02 0 0 Z " fill="#4B0F12" transform="translate(88,29)"/>
<path d="M0 0 C0.66 0 1.32 0 2 0 C2 3.3 2 6.6 2 10 C-1.63 10 -5.26 10 -9 10 C-9 9.34 -9 8.68 -9 8 C-6.36 7.67 -3.72 7.34 -1 7 C-0.67 4.69 -0.34 2.38 0 0 Z " fill="#F05356" transform="translate(73,61)"/>
<path d="M0 0 C0.33 0 0.66 0 1 0 C1 1.65 1 3.3 1 5 C0.01 5.495 0.01 5.495 -1 6 C-1.33 6.66 -1.66 7.32 -2 8 C-4.64 7.67 -7.28 7.34 -10 7 C-10 6.34 -10 5.68 -10 5 C-7.58945177 3.9956049 -5.30334552 3.06741012 -2.75 2.5 C-2.1725 2.335 -1.595 2.17 -1 2 C-0.67 1.34 -0.34 0.68 0 0 Z " fill="#C01E20" transform="translate(138,86)"/>
<path d="M0 0 C0.36075949 4.44936709 0.36075949 4.44936709 -1.1875 6.8125 C-3.55982525 8.36678206 -5.22041345 8.22537188 -8 8 C-7.67 6.68 -7.34 5.36 -7 4 C-5.68 3.67 -4.36 3.34 -3 3 C-3 2.34 -3 1.68 -3 1 C-1 0 -1 0 0 0 Z " fill="#660505" transform="translate(115,29)"/>
<path d="M0 0 C2.97 0 5.94 0 9 0 C8.67 0.99 8.34 1.98 8 3 C7.01 3 6.02 3 5 3 C3.9739266 4.31337396 2.97272675 5.64664105 2 7 C1.34 7 0.68 7 0 7 C0 4.69 0 2.38 0 0 Z " fill="#C83536" transform="translate(118,29)"/>
<path d="M0 0 C-0.33 2.31 -0.66 4.62 -1 7 C-2.65 7 -4.3 7 -6 7 C-6.1875 4.625 -6.1875 4.625 -6 2 C-3 0 -3 0 0 0 Z " fill="#471011" transform="translate(128,118)"/>
<path d="M0 0 C2.31 0 4.62 0 7 0 C7 0.66 7 1.32 7 2 C6.01 2.66 5.02 3.32 4 4 C2.97695052 5.65261839 1.97383946 7.31791365 1 9 C0.67 9 0.34 9 0 9 C0 6.03 0 3.06 0 0 Z " fill="#890203" transform="translate(149,82)"/>
<path d="M0 0 C3.3 0 6.6 0 10 0 C7 2 7 2 4.9375 2.25 C4.298125 2.4975 3.65875 2.745 3 3 C1.6954344 5.99615946 1.6954344 5.99615946 1 9 C0.67 9 0.34 9 0 9 C0 6.03 0 3.06 0 0 Z " fill="#330000" transform="translate(149,93)"/>
<path d="M0 0 C0.53625 0.2475 1.0725 0.495 1.625 0.75 C0.26375 1.5853125 0.26375 1.5853125 -1.125 2.4375 C-4.21953391 4.6393799 -6.16781468 6.69389725 -8.375 9.75 C-8.75 7 -8.75 7 -8.375 3.75 C-3.70431242 -0.38992762 -3.70431242 -0.38992762 0 0 Z " fill="#310101" transform="translate(147.375,102.25)"/>
<path d="M0 0 C1.47906892 -0.02689216 2.95827483 -0.04634621 4.4375 -0.0625 C5.26121094 -0.07410156 6.08492188 -0.08570312 6.93359375 -0.09765625 C9 0 9 0 10 1 C10.23287008 2.68183948 10.41264166 4.3712416 10.5625 6.0625 C10.64628906 6.98160156 10.73007813 7.90070313 10.81640625 8.84765625 C10.87699219 9.55792969 10.93757813 10.26820312 11 11 C10.34 11 9.68 11 9 11 C8.67 8.36 8.34 5.72 8 3 C7.01 3 6.02 3 5 3 C5 2.34 5 1.68 5 1 C3.35 1 1.7 1 0 1 C0 0.67 0 0.34 0 0 Z " fill="#8B0708" transform="translate(64,103)"/>
<path d="M0 0 C3.33333333 0 6.66666667 0 10 0 C10.33 0.66 10.66 1.32 11 2 C10.01 2.99 9.02 3.98 8 5 C2.25 3.125 2.25 3.125 0 2 C0 1.34 0 0.68 0 0 Z " fill="#5C0602" transform="translate(94,37)"/>
<path d="M0 0 C0.66 0 1.32 0 2 0 C2 3.3 2 6.6 2 10 C-1.3 10 -4.6 10 -8 10 C-4 8 -4 8 0 8 C0 5.36 0 2.72 0 0 Z " fill="#990E18" transform="translate(51,29)"/>
<path d="M0 0 C0.66 0 1.32 0 2 0 C2 2.1875 2 2.1875 1 5 C-1.50803179 6.96188534 -4.19641043 8.49921743 -7 10 C-6 8 -5 6 -4 4 C-3.34 4 -2.68 4 -2 4 C-1.34 2.68 -0.68 1.36 0 0 Z " fill="#610707" transform="translate(47,29)"/>
<path d="M0 0 C1.98 0 3.96 0 6 0 C4.27239967 3.7020007 2.92824652 6.07175348 0 9 C0 6.03 0 3.06 0 0 Z " fill="#8A0507" transform="translate(117,114)"/>
<path d="M0 0 C2.97 0.33 5.94 0.66 9 1 C9 1.33 9 1.66 9 2 C7.02 2 5.04 2 3 2 C3 5.3 3 8.6 3 12 C2.34 12 1.68 12 1 12 C0.67 8.04 0.34 4.08 0 0 Z " fill="#AA181B" transform="translate(136,91)"/>
<path d="M0 0 C0.33 0 0.66 0 1 0 C1 2.31 1 4.62 1 7 C-0.27875 7.144375 -1.5575 7.28875 -2.875 7.4375 C-5.25692894 7.70642746 -6.84452691 7.92226346 -9 9 C-8.4375 7.125 -8.4375 7.125 -7 5 C-3.375 3.75 -3.375 3.75 0 3 C0 2.01 0 1.02 0 0 Z " fill="#370302" transform="translate(50,22)"/>
<path d="M0 0 C3.3 0 6.6 0 10 0 C9.67 1.32 9.34 2.64 9 4 C5.97580475 3.41196203 2.98241547 2.77321882 0 2 C0 1.34 0 0.68 0 0 Z " fill="#890204" transform="translate(43,82)"/>
<path d="M0 0 C0.66 0 1.32 0 2 0 C2.103125 0.639375 2.20625 1.27875 2.3125 1.9375 C2.539375 2.618125 2.76625 3.29875 3 4 C3.99 4.33 4.98 4.66 6 5 C6 5.66 6 6.32 6 7 C4.02 7.33 2.04 7.66 0 8 C0 5.36 0 2.72 0 0 Z " fill="#62090E" transform="translate(43,84)"/>
<path d="M0 0 C1.65 0 3.3 0 5 0 C5 2.64 5 5.28 5 8 C4.34 8 3.68 8 3 8 C3 7.34 3 6.68 3 6 C2.34 6 1.68 6 1 6 C0.67 4.02 0.34 2.04 0 0 Z " fill="#5C0B10" transform="translate(153,29)"/>
<path d="M0 0 C0 1.65 0 3.3 0 5 C-2.64 5 -5.28 5 -8 5 C-7.34 4.67 -6.68 4.34 -6 4 C-5.67 3.01 -5.34 2.02 -5 1 C-3 0 -3 0 0 0 Z " fill="#5E0E11" transform="translate(137,107)"/>
<path d="M0 0 C0.33 0.66 0.66 1.32 1 2 C1.99 2 2.98 2 4 2 C4.33 3.98 4.66 5.96 5 8 C3.35 8 1.7 8 0 8 C0 5.36 0 2.72 0 0 Z " fill="#5C0D0A" transform="translate(64,104)"/>
<path d="M0 0 C0 2.31 0 4.62 0 7 C-2.31 7 -4.62 7 -7 7 C-6.67 6.34 -6.34 5.68 -6 5 C-5.34 5 -4.68 5 -4 5 C-4 4.01 -4 3.02 -4 2 C-1 0 -1 0 0 0 Z " fill="#540B0E" transform="translate(158,86)"/>
<path d="M0 0 C2.64 0 5.28 0 8 0 C7.236875 0.5775 6.47375 1.155 5.6875 1.75 C3.33799083 3.71703093 1.70676495 5.48476744 0 8 C0 5.36 0 2.72 0 0 Z " fill="#360001" transform="translate(128,114)"/>
<path d="M0 0 C2.31 0 4.62 0 7 0 C7 2.64 7 5.28 7 8 C6.34 8 5.68 8 5 8 C4.67 6.02 4.34 4.04 4 2 C2.68 1.67 1.36 1.34 0 1 C0 0.67 0 0.34 0 0 Z " fill="#860607" transform="translate(57,93)"/>
<path d="M0 0 C1.32 0 2.64 0 4 0 C4 2.97 4 5.94 4 9 C3.34 9 2.68 9 2 9 C1.01 6.36 0.02 3.72 -1 1 C-0.67 0.67 -0.34 0.34 0 0 Z " fill="#A62023" transform="translate(154,39)"/>
<path d="M0 0 C-0.66 1.65 -1.32 3.3 -2 5 C-4.31 5 -6.62 5 -9 5 C-4.16129032 0 -4.16129032 0 0 0 Z " fill="#5C0C0D" transform="translate(115,128)"/>
<path d="M0 0 C2.31 0 4.62 0 7 0 C7 2.97 7 5.94 7 9 C5 7 5 7 4.625 4.5 C4.26352314 1.83529804 4.26352314 1.83529804 1.9375 0.6875 C1.298125 0.460625 0.65875 0.23375 0 0 Z " fill="#390000" transform="translate(78,125)"/>
<path d="M0 0 C3.3 0 6.6 0 10 0 C10 1.98 10 3.96 10 6 C9.34 4.68 8.68 3.36 8 2 C5.36 2 2.72 2 0 2 C0 1.34 0 0.68 0 0 Z " fill="#850305" transform="translate(75,114)"/>
<path d="M0 0 C0.99 0 1.98 0 3 0 C3.33 2.31 3.66 4.62 4 7 C2.68 7.33 1.36 7.66 0 8 C0 5.36 0 2.72 0 0 Z " fill="#B62726" transform="translate(54,84)"/>
<path d="M0 0 C0.33 0 0.66 0 1 0 C1.04254356 1.99954746 1.04080783 4.00041636 1 6 C0 7 0 7 -3.5625 7.0625 C-4.696875 7.041875 -5.83125 7.02125 -7 7 C-4.66666667 4.66666667 -2.33333333 2.33333333 0 0 Z " fill="#F86B6D" transform="translate(72,62)"/>
<path d="M0 0 C0.33 0 0.66 0 1 0 C1.33 2.64 1.66 5.28 2 8 C3.98 8 5.96 8 8 8 C8 8.66 8 9.32 8 10 C5.36 10 2.72 10 0 10 C0 6.7 0 3.4 0 0 Z " fill="#FEDED7" transform="translate(54,59)"/>
<path d="M0 0 C1.32 0 2.64 0 4 0 C3.67 1.65 3.34 3.3 3 5 C1.35 5.33 -0.3 5.66 -2 6 C-1.125 1.125 -1.125 1.125 0 0 Z " fill="#F96E73" transform="translate(79,52)"/>
<path d="M0 0 C0.99 0 1.98 0 3 0 C3 0.99 3 1.98 3 3 C-3.27 3 -9.54 3 -16 3 C-16 2.67 -16 2.34 -16 2 C-10.72 2 -5.44 2 0 2 C0 1.34 0 0.68 0 0 Z " fill="#C83134" transform="translate(112,120)"/>
<path d="M0 0 C0.66 0.33 1.32 0.66 2 1 C2 2.65 2 4.3 2 6 C0.68 6.33 -0.64 6.66 -2 7 C-2.33 5.68 -2.66 4.36 -3 3 C-2.34 3 -1.68 3 -1 3 C-0.67 2.01 -0.34 1.02 0 0 Z " fill="#BF1617" transform="translate(147,73)"/>
<path d="M0 0 C0.33 0 0.66 0 1 0 C1 3.63 1 7.26 1 11 C-1.64 10.67 -4.28 10.34 -7 10 C-7 9.67 -7 9.34 -7 9 C-3.535 8.505 -3.535 8.505 0 8 C-0.2784375 6.2984375 -0.2784375 6.2984375 -0.5625 4.5625 C-0.706875 3.386875 -0.85125 2.21125 -1 1 C-0.67 0.67 -0.34 0.34 0 0 Z " fill="#9E120E" transform="translate(106,39)"/>
<path d="M0 0 C1.13302814 3.39908442 0.79478216 4.5824367 0 8 C-0.33944795 9.99897128 -0.67421616 11.99875639 -1 14 C-1.33 14 -1.66 14 -2 14 C-2 9.71 -2 5.42 -2 1 C-1.34 0.67 -0.68 0.34 0 0 Z " fill="#7D0101" transform="translate(163,52)"/>
<path d="M0 0 C0.99 0.33 1.98 0.66 3 1 C3 2.65 3 4.3 3 6 C1.68 6 0.36 6 -1 6 C-1.625 4.125 -1.625 4.125 -2 2 C-1.34 1.34 -0.68 0.68 0 0 Z " fill="#CA3336" transform="translate(123,106)"/>
<path d="M0 0 C1.5 1.375 1.5 1.375 3 3 C3 3.66 3 4.32 3 5 C4.32 5 5.64 5 7 5 C7 5.66 7 6.32 7 7 C4.69 6.67 2.38 6.34 0 6 C0 4.02 0 2.04 0 0 Z " fill="#4C090C" transform="translate(53,96)"/>
<path d="M0 0 C2.64 0 5.28 0 8 0 C8.33 1.32 8.66 2.64 9 4 C4.545 3.01 4.545 3.01 0 2 C0 1.34 0 0.68 0 0 Z " fill="#4F0D0A" transform="translate(76,18)"/>
<path d="M0 0 C0.66 0 1.32 0 2 0 C2 1.98 2 3.96 2 6 C-0.31 6 -2.62 6 -5 6 C-4.67 5.34 -4.34 4.68 -4 4 C-2.68 4 -1.36 4 0 4 C0 2.68 0 1.36 0 0 Z " fill="#A02827" transform="translate(126,108)"/>
<path d="M0 0 C0.33 0 0.66 0 1 0 C1 1.98 1 3.96 1 6 C-0.98 6.33 -2.96 6.66 -5 7 C-1.125 1.125 -1.125 1.125 0 0 Z " fill="#4A0C0D" transform="translate(148,96)"/>
<path d="M0 0 C0.33 0 0.66 0 1 0 C1 1.65 1 3.3 1 5 C-1.97 5 -4.94 5 -8 5 C-6 3 -6 3 -3.375 2.875 C-2.59125 2.91625 -1.8075 2.9575 -1 3 C-0.67 2.01 -0.34 1.02 0 0 Z " fill="#A02423" transform="translate(159,77)"/>
<path d="M0 0 C3.465 1.485 3.465 1.485 7 3 C7 3.66 7 4.32 7 5 C4.69 5 2.38 5 0 5 C0 3.35 0 1.7 0 0 Z " fill="#D93136" transform="translate(43,75)"/>
<path d="M0 0 C0.66 0 1.32 0 2 0 C2.33 3.3 2.66 6.6 3 10 C2.67 9.34 2.34 8.68 2 8 C1.34 8 0.68 8 0 8 C0 5.36 0 2.72 0 0 Z " fill="#A82428" transform="translate(83,29)"/>
<path d="M0 0 C1.4540625 0.0309375 1.4540625 0.0309375 2.9375 0.0625 C2.6075 0.7225 2.2775 1.3825 1.9375 2.0625 C0.9475 2.3925 -0.0425 2.7225 -1.0625 3.0625 C-1.3925 4.0525 -1.7225 5.0425 -2.0625 6.0625 C-2.7225 6.0625 -3.3825 6.0625 -4.0625 6.0625 C-4.105221 4.39638095 -4.10313832 2.72867115 -4.0625 1.0625 C-3.0625 0.0625 -3.0625 0.0625 0 0 Z " fill="#4E0D0F" transform="translate(121.0625,17.9375)"/>
<path d="M0 0 C2.31 0 4.62 0 7 0 C6.21625 0.598125 5.4325 1.19625 4.625 1.8125 C1.85425677 3.91085249 1.85425677 3.91085249 0 7 C0 4.69 0 2.38 0 0 Z " fill="#890002" transform="translate(139,93)"/>
<path d="M0 0 C0.66 0 1.32 0 2 0 C2.33 2.64 2.66 5.28 3 8 C2.01 8 1.02 8 0 8 C0 5.36 0 2.72 0 0 Z " fill="#DA2E31" transform="translate(75,95)"/>
<path d="M0 0 C0.33 0 0.66 0 1 0 C1 3.63 1 7.26 1 11 C-0.65 11 -2.3 11 -4 11 C-4 10.34 -4 9.68 -4 9 C-3.01 8.67 -2.02 8.34 -1 8 C-0.67 5.36 -0.34 2.72 0 0 Z " fill="#F3A8A2" transform="translate(74,50)"/>
<path d="M0 0 C0.66 0 1.32 0 2 0 C2 2.64 2 5.28 2 8 C0.68 8.33 -0.64 8.66 -2 9 C-1.34 6.03 -0.68 3.06 0 0 Z " fill="#FAD3CF" transform="translate(72,50)"/>
<path d="M0 0 C3.63 0 7.26 0 11 0 C11 1.32 11 2.64 11 4 C10.01 3.67 9.02 3.34 8 3 C8 2.34 8 1.68 8 1 C5.36 1 2.72 1 0 1 C0 0.67 0 0.34 0 0 Z " fill="#E33437" transform="translate(64,71)"/>
<path d="M0 0 C1.98 0.66 3.96 1.32 6 2 C6 3.32 6 4.64 6 6 C4.125 5.8125 4.125 5.8125 2 5 C0.75 2.4375 0.75 2.4375 0 0 Z " fill="#730406" transform="translate(86,31)"/>
<path d="M0 0 C2.4375 1.1875 2.4375 1.1875 5 3 C5.8125 5.6875 5.8125 5.6875 6 8 C5.34 8 4.68 8 4 8 C4 6.68 4 5.36 4 4 C2.35 3.67 0.7 3.34 -1 3 C-0.67 2.01 -0.34 1.02 0 0 Z " fill="#631110" transform="translate(88,29)"/>
<path d="M0 0 C2.475 0.495 2.475 0.495 5 1 C5 1.99 5 2.98 5 4 C3.35 4 1.7 4 0 4 C0 2.68 0 1.36 0 0 Z " fill="#551211" transform="translate(75,119)"/>
<path d="M0 0 C2.97 0 5.94 0 9 0 C9 0.33 9 0.66 9 1 C6 2 3 3 0 4 C0 2.68 0 1.36 0 0 Z " fill="#900707" transform="translate(128,103)"/>
<path d="M0 0 C2.97 0.99 5.94 1.98 9 3 C9 3.33 9 3.66 9 4 C6.69 4 4.38 4 2 4 C1.34 2.68 0.68 1.36 0 0 Z " fill="#350304" transform="translate(87,25)"/>
<path d="M0 0 C0.99 0 1.98 0 3 0 C3 0.66 3 1.32 3 2 C3.66 2 4.32 2 5 2 C5 3.32 5 4.64 5 6 C4.34 6 3.68 6 3 6 C0 2.53846154 0 2.53846154 0 0 Z " fill="#5A0002" transform="translate(70,112)"/>
<path d="M0 0 C1.32 0 2.64 0 4 0 C2.66666667 2.66666667 1.33333333 5.33333333 0 8 C0 5.36 0 2.72 0 0 Z " fill="#CA3F39" transform="translate(107,40)"/>
<path d="M0 0 C1.32 0.33 2.64 0.66 4 1 C4 3.31 4 5.62 4 8 C1.84622436 5.37801226 0.59927826 3.35595828 0 0 Z " fill="#4F0C11" transform="translate(165,39)"/>
<path d="M0 0 C0.33 0.99 0.66 1.98 1 3 C-0.25 4.5625 -0.25 4.5625 -2 6 C-4.1875 5.6875 -4.1875 5.6875 -6 5 C-4.02 3.35 -2.04 1.7 0 0 Z " fill="#790203" transform="translate(114,31)"/>
<path d="M0 0 C0 1.65 0 3.3 0 5 C-1.98 5 -3.96 5 -6 5 C-5.34 4.67 -4.68 4.34 -4 4 C-4 3.34 -4 2.68 -4 2 C-1 0 -1 0 0 0 Z " fill="#530201" transform="translate(117,24)"/>
</svg>
