<?xml version="1.0" encoding="UTF-8"?>
<svg version="1.1" xmlns="http://www.w3.org/2000/svg" width="194" height="168">
<path d="M0 0 C2.12508244 3.18762365 2.5020163 5.26512223 3 9 C4.27875 9.226875 5.5575 9.45375 6.875 9.6875 C9.0546875 10.07421875 9.0546875 10.07421875 11 11 C13.42062353 15.05454441 13.23904942 19.2285905 13.125 23.8125 C13.11597656 24.50537109 13.10695313 25.19824219 13.09765625 25.91210938 C13.07426157 27.60822395 13.03839641 29.30415871 13 31 C14.11632812 30.979375 15.23265625 30.95875 16.3828125 30.9375 C20 31 20 31 21.875 32 C23.6439394 35.14478116 23.60416484 38.43028654 24 42 C24.99330322 41.98952637 25.98660645 41.97905273 27.01000977 41.96826172 C30.7205846 41.93186489 34.43114387 41.90902839 38.1418457 41.89013672 C39.74310974 41.88012377 41.34435571 41.8665094 42.94555664 41.84912109 C45.25671876 41.82466435 47.56763762 41.81346971 49.87890625 41.8046875 C50.9402755 41.78920364 50.9402755 41.78920364 52.02308655 41.77340698 C56.7637726 41.77235411 60.58334276 42.39118327 65 44 C66.56424629 47.12849259 66.18446398 50.44430084 66.1875 53.875 C66.19974609 54.59558594 66.21199219 55.31617188 66.22460938 56.05859375 C66.23601186 60.18629416 65.89394929 62.21210143 64 66 C61.03 66 58.06 66 55 66 C55.0825 67.258125 55.165 68.51625 55.25 69.8125 C55.22932408 73.70646518 55.22932408 73.70646518 53.4375 76 C50.2014503 77.32761013 47.46093134 77.19966912 44 77 C44.03480469 77.62648438 44.06960937 78.25296875 44.10546875 78.8984375 C44.13253906 79.71570313 44.15960938 80.53296875 44.1875 81.375 C44.23970703 82.59316406 44.23970703 82.59316406 44.29296875 83.8359375 C44.19628906 84.55007812 44.09960938 85.26421875 44 86 C40.3558226 88.4294516 38.28758728 88.16179575 34 88 C34 90.31 34 92.62 34 95 C35.27875 95.144375 36.5575 95.28875 37.875 95.4375 C40.25692894 95.70642746 41.84452691 95.92226346 44 97 C45.12828381 101.02745016 45.29041811 105.15353397 45.5625 109.3125 C45.64628906 110.56675781 45.73007813 111.82101563 45.81640625 113.11328125 C45.87699219 114.06589844 45.93757813 115.01851563 46 116 C47.11375 116.12375 48.2275 116.2475 49.375 116.375 C53 117 53 117 55 119 C55.44626783 122.12546156 55.32410302 125.2837984 55.3125 128.4375 C55.32861328 129.30955078 55.34472656 130.18160156 55.36132812 131.08007812 C55.36197266 131.91861328 55.36261719 132.75714844 55.36328125 133.62109375 C55.36626221 134.3886499 55.36924316 135.15620605 55.37231445 135.94702148 C55 138 55 138 53.88769531 139.75317383 C51.07426932 141.61144679 48.77841456 141.35447111 45.43359375 141.328125 C44.14388672 141.32296875 42.85417969 141.3178125 41.52539062 141.3125 C40.85483643 141.3021875 40.18428223 141.291875 39.4934082 141.28125 C37.44138415 141.25005904 35.39012839 141.24027435 33.33789062 141.234375 C23.30819459 141.15409729 23.30819459 141.15409729 21 140 C20.3671875 137.93359375 20.3671875 137.93359375 19.875 135.4375 C19.70742187 134.61121094 19.53984375 133.78492188 19.3671875 132.93359375 C19.24601562 132.29550781 19.12484375 131.65742188 19 131 C17.80761719 130.97421875 16.61523438 130.9484375 15.38671875 130.921875 C13.8202758 130.86559561 12.25387097 130.80824823 10.6875 130.75 C9.90181641 130.73582031 9.11613281 130.72164062 8.30664062 130.70703125 C2.50704396 130.4602399 2.50704396 130.4602399 -0.03125 128.15625 C-1.29665596 125.33970124 -1.20798366 123.05042704 -1 120 C-3.31 120 -5.62 120 -8 120 C-8.185625 121.918125 -8.185625 121.918125 -8.375 123.875 C-8.75 127.75 -8.75 127.75 -11 130 C-12.97119141 130.31884766 -12.97119141 130.31884766 -15.3515625 130.4140625 C-16.20234375 130.45273438 -17.053125 130.49140625 -17.9296875 130.53125 C-18.81914063 130.5621875 -19.70859375 130.593125 -20.625 130.625 C-21.5221875 130.66367188 -22.419375 130.70234375 -23.34375 130.7421875 C-25.5622927 130.83659357 -27.78082403 130.92216748 -30 131 C-29.95875 131.928125 -29.9175 132.85625 -29.875 133.8125 C-30 137 -30 137 -32 140 C-37.95885795 141.36838928 -44.09764375 141.21771448 -50.1875 141.25 C-51.66379883 141.2809375 -51.66379883 141.2809375 -53.16992188 141.3125 C-54.11802734 141.31765625 -55.06613281 141.3228125 -56.04296875 141.328125 C-56.89914795 141.3374707 -57.75532715 141.34681641 -58.63745117 141.35644531 C-61.57308679 140.91353656 -62.91779867 140.10438072 -65 138 C-65.48583984 136.0546875 -65.48583984 136.0546875 -65.4609375 133.875 C-65.45707031 133.08609375 -65.45320313 132.2971875 -65.44921875 131.484375 C-65.41248047 130.25460938 -65.41248047 130.25460938 -65.375 129 C-65.37371094 128.18015625 -65.37242188 127.3603125 -65.37109375 126.515625 C-65.28148496 120.42222744 -65.28148496 120.42222744 -63 117 C-60.37643538 116.01484622 -57.75475877 115.57761071 -55 115 C-55.02320312 114.04738281 -55.04640625 113.09476562 -55.0703125 112.11328125 C-55.08835937 110.85902344 -55.10640625 109.60476562 -55.125 108.3125 C-55.14820312 107.07113281 -55.17140625 105.82976562 -55.1953125 104.55078125 C-55.00647662 101.11774494 -54.77112067 98.93746843 -53 96 C-50.8359375 95.07421875 -50.8359375 95.07421875 -48.375 94.6875 C-47.55773437 94.54699219 -46.74046875 94.40648438 -45.8984375 94.26171875 C-45.27195312 94.17535156 -44.64546875 94.08898437 -44 94 C-44 92.02 -44 90.04 -44 88 C-44.63808594 87.93941406 -45.27617188 87.87882812 -45.93359375 87.81640625 C-46.75988281 87.73261719 -47.58617188 87.64882812 -48.4375 87.5625 C-49.67306641 87.44068359 -49.67306641 87.44068359 -50.93359375 87.31640625 C-53 87 -53 87 -54 86 C-54.45459858 83.34536879 -54.70243238 80.67810862 -55 78 C-56.918125 77.814375 -56.918125 77.814375 -58.875 77.625 C-62.75 77.25 -62.75 77.25 -65 75 C-65.26991906 72.31160615 -65.08737357 69.70858064 -65 67 C-65.62648438 66.96261719 -66.25296875 66.92523438 -66.8984375 66.88671875 C-67.71570313 66.82097656 -68.53296875 66.75523438 -69.375 66.6875 C-70.18710938 66.62949219 -70.99921875 66.57148437 -71.8359375 66.51171875 C-74 66 -74 66 -76 63 C-76.42458489 59.82636945 -76.32432204 56.63654375 -76.3125 53.4375 C-76.32861328 52.56158203 -76.34472656 51.68566406 -76.36132812 50.78320312 C-76.36197266 49.94595703 -76.36261719 49.10871094 -76.36328125 48.24609375 C-76.36626221 47.47966553 -76.36924316 46.7132373 -76.37231445 45.92358398 C-76.24945068 45.28880127 -76.12658691 44.65401855 -76 44 C-72.0944753 41.39631687 -68.71336111 41.64851503 -64.17578125 41.5859375 C-63.31438034 41.56657135 -62.45297943 41.5472052 -61.56547546 41.5272522 C-58.81458432 41.4674797 -56.06365127 41.42108052 -53.3125 41.375 C-51.44724739 41.33681806 -49.58201237 41.2977662 -47.71679688 41.2578125 C-43.14467414 41.1617801 -38.57246886 41.0777405 -34 41 C-33.896875 39.72125 -33.79375 38.4425 -33.6875 37.125 C-33.51171875 34.9453125 -33.51171875 34.9453125 -33 33 C-29.81237635 30.87491756 -27.73487777 30.4979837 -24 30 C-23.95101562 28.96359375 -23.90203125 27.9271875 -23.8515625 26.859375 C-23.77650403 25.48955792 -23.70095753 24.11976752 -23.625 22.75 C-23.5940625 22.06808594 -23.563125 21.38617187 -23.53125 20.68359375 C-23.12716036 13.74672163 -23.12716036 13.74672163 -21 11 C-19.700625 10.773125 -18.40125 10.54625 -17.0625 10.3125 C-14.88655058 9.98973814 -14.88655058 9.98973814 -13 9 C-11.79218514 6.67995274 -11.21145514 4.55007114 -10.66796875 1.99609375 C-10.33732422 1.00802734 -10.33732422 1.00802734 -10 0 C-6.23918426 -1.25360525 -3.84551868 -0.83902226 0 0 Z " fill="#693D15" transform="translate(105,8)"/>
<path d="M0 0 C3.63 0 7.26 0 11 0 C11 6.93 11 13.86 11 21 C14.3 21 17.6 21 21 21 C21 24.63 21 28.26 21 32 C24.63 32 28.26 32 32 32 C32 35.63 32 39.26 32 43 C38.93 43 45.86 43 53 43 C53 46.3 53 49.6 53 53 C48.05 53.495 48.05 53.495 43 54 C43 57.3 43 60.6 43 64 C39.37 64 35.74 64 32 64 C32 70.93 32 77.86 32 85 C35.63 85 39.26 85 43 85 C43.495 95.395 43.495 95.395 44 106 C46.97 106.33 49.94 106.66 53 107 C53 110.3 53 113.6 53 117 C46.07 117 39.14 117 32 117 C32 110.07 32 103.14 32 96 C25.07 96 18.14 96 11 96 C11 92.7 11 89.4 11 86 C7.37 86 3.74 86 0 86 C0 89.3 0 92.6 0 96 C-3.63 96 -7.26 96 -11 96 C-11 99.63 -11 103.26 -11 107 C-14.63 107 -18.26 107 -22 107 C-21.95875 108.27875 -21.9175 109.5575 -21.875 110.875 C-21.8046875 113.0546875 -21.8046875 113.0546875 -22 115 C-24 117 -24 117 -25.97119141 117.22705078 C-27.1494751 117.21134033 -27.1494751 117.21134033 -28.3515625 117.1953125 C-29.62773438 117.18564453 -29.62773438 117.18564453 -30.9296875 117.17578125 C-32.26386719 117.15064453 -32.26386719 117.15064453 -33.625 117.125 C-34.5221875 117.11597656 -35.419375 117.10695313 -36.34375 117.09765625 C-38.56261322 117.07405132 -40.7813397 117.03817962 -43 117 C-43 113.7 -43 110.4 -43 107 C-39.37 107 -35.74 107 -32 107 C-32 99.74 -32 92.48 -32 85 C-28.37 85 -24.74 85 -21 85 C-21 78.07 -21 71.14 -21 64 C-28.26 64 -35.52 64 -43 64 C-43 60.37 -43 56.74 -43 53 C-46.63 53 -50.26 53 -54 53 C-54.125 43.25 -54.125 43.25 -53 41 C-38.15 40.505 -38.15 40.505 -23 40 C-22.67 37.36 -22.34 34.72 -22 32 C-18.37 32 -14.74 32 -11 32 C-11 28.37 -11 24.74 -11 21 C-7.37 20.67 -3.74 20.34 0 20 C0 13.4 0 6.8 0 0 Z " fill="#FBFB1F" transform="translate(95,20)"/>
<path d="M0 0 C13.86 0 27.72 0 42 0 C42 2.64 42 5.28 42 8 C41 9 41 9 38.13256836 9.11352539 C36.88096924 9.10828857 35.62937012 9.10305176 34.33984375 9.09765625 C33.34314415 9.09553383 33.34314415 9.09553383 32.3263092 9.09336853 C30.19666101 9.08775518 28.06711661 9.07520054 25.9375 9.0625 C24.49674631 9.05748671 23.05599097 9.05292351 21.61523438 9.04882812 C18.07678898 9.03778145 14.53840461 9.02050792 11 9 C10.67 12.96 10.34 16.92 10 21 C13.63 21 17.26 21 21 21 C21 24.63 21 28.26 21 32 C28.26 32 35.52 32 43 32 C43 38.93 43 45.86 43 53 C39.37 53 35.74 53 32 53 C32 60.26 32 67.52 32 75 C28.37 75 24.74 75 21 75 C21 78.3 21 81.6 21 85 C24.14618209 84.85983833 27.29181816 84.71315095 30.4375 84.5625 C31.33533203 84.52318359 32.23316406 84.48386719 33.15820312 84.44335938 C34.01220703 84.40146484 34.86621094 84.35957031 35.74609375 84.31640625 C36.53685303 84.27974854 37.3276123 84.24309082 38.14233398 84.20532227 C40.01401441 84.19436743 40.01401441 84.19436743 41 83 C41.23075082 81.65252916 41.41153063 80.29622435 41.5625 78.9375 C41.706875 77.638125 41.85125 76.33875 42 75 C45.63 75 49.26 75 53 75 C53 71.37 53 67.74 53 64 C56.63 64 60.26 64 64 64 C64 60.7 64 57.4 64 54 C67.63 54 71.26 54 75 54 C75 57.3 75 60.6 75 64 C81.93 64 88.86 64 96 64 C96 70.93 96 77.86 96 85 C95.34 85 94.68 85 94 85 C94 84.34 94 83.68 94 83 C87.73 83 81.46 83 75 83 C74.67 79.7 74.34 76.4 74 73 C70.7 73 67.4 73 64 73 C64.01160156 73.85464844 64.02320312 74.70929688 64.03515625 75.58984375 C64.04417969 76.69457031 64.05320312 77.79929687 64.0625 78.9375 C64.07410156 80.03964844 64.08570312 81.14179688 64.09765625 82.27734375 C64 85 64 85 63 86 C61.58672053 86.15620555 60.1664541 86.25056173 58.74609375 86.31640625 C57.89208984 86.35830078 57.03808594 86.40019531 56.15820312 86.44335938 C55.26037109 86.48267578 54.36253906 86.52199219 53.4375 86.5625 C52.08495117 86.62727539 52.08495117 86.62727539 50.70507812 86.69335938 C48.47021515 86.79978142 46.23523692 86.90179988 44 87 C44.04125 87.928125 44.0825 88.85625 44.125 89.8125 C44 93 44 93 42 96 C36.04114205 97.36838928 29.90235625 97.21771448 23.8125 97.25 C22.82830078 97.270625 21.84410156 97.29125 20.83007812 97.3125 C19.88197266 97.31765625 18.93386719 97.3228125 17.95703125 97.328125 C17.10085205 97.3374707 16.24467285 97.34681641 15.36254883 97.35644531 C12.42691321 96.91353656 11.08220133 96.10438072 9 94 C8.51416016 92.0546875 8.51416016 92.0546875 8.5390625 89.875 C8.54292969 89.08609375 8.54679687 88.2971875 8.55078125 87.484375 C8.57527344 86.66453125 8.59976563 85.8446875 8.625 85 C8.62628906 84.18015625 8.62757812 83.3603125 8.62890625 82.515625 C8.71851504 76.42222744 8.71851504 76.42222744 11 73 C13.62356462 72.01484622 16.24524123 71.57761071 19 71 C18.97679688 70.04738281 18.95359375 69.09476562 18.9296875 68.11328125 C18.91164063 66.85902344 18.89359375 65.60476562 18.875 64.3125 C18.85179688 63.07113281 18.82859375 61.82976562 18.8046875 60.55078125 C18.99352338 57.11774494 19.22887933 54.93746843 21 52 C23.1640625 51.07421875 23.1640625 51.07421875 25.625 50.6875 C26.44226563 50.54699219 27.25953125 50.40648437 28.1015625 50.26171875 C28.72804688 50.17535156 29.35453125 50.08898437 30 50 C30 48.02 30 46.04 30 44 C29.04287109 43.90912109 29.04287109 43.90912109 28.06640625 43.81640625 C27.24011719 43.73261719 26.41382812 43.64882812 25.5625 43.5625 C24.73878906 43.48128906 23.91507813 43.40007812 23.06640625 43.31640625 C21 43 21 43 20 42 C19.54540142 39.34536879 19.29756762 36.67810862 19 34 C17.081875 33.814375 17.081875 33.814375 15.125 33.625 C11.25 33.25 11.25 33.25 9 31 C8.73008094 28.31160615 8.91262643 25.70858064 9 23 C6.03 22.67 3.06 22.34 0 22 C0 14.74 0 7.48 0 0 Z " fill="#5E330C" transform="translate(31,52)"/>
<path d="M0 0 C5.94 0 11.88 0 18 0 C18 3.3 18 6.6 18 10 C14.7 10.33 11.4 10.66 8 11 C8 14.3 8 17.6 8 21 C4.37 21 0.74 21 -3 21 C-3 27.93 -3 34.86 -3 42 C0.63 42 4.26 42 8 42 C8.495 52.395 8.495 52.395 9 63 C11.97 63.33 14.94 63.66 18 64 C18 67.3 18 70.6 18 74 C11.07 74 4.14 74 -3 74 C-3 67.07 -3 60.14 -3 53 C-9.93 53 -16.86 53 -24 53 C-24 49.7 -24 46.4 -24 43 C-27.63 43 -31.26 43 -35 43 C-35 46.3 -35 49.6 -35 53 C-38.63 53 -42.26 53 -46 53 C-46 52.01 -46 51.02 -46 50 C-46.66 49.67 -47.32 49.34 -48 49 C-47.01 48.505 -47.01 48.505 -46 48 C-45.34 48.33 -44.68 48.66 -44 49 C-44 47.68 -44 46.36 -44 45 C-42.875 43.25 -42.875 43.25 -41 42 C-37.8125 41.8125 -37.8125 41.8125 -35 42 C-35 40.02 -35 38.04 -35 36 C-33.68 36 -32.36 36 -31 36 C-30.67 35.01 -30.34 34.02 -30 33 C-26.68470727 33.98562757 -25.25050621 34.65447419 -23.1875 37.5 C-22 40 -22 40 -22 42 C-21.21625 41.67 -20.4325 41.34 -19.625 41 C-17 40 -17 40 -15 40 C-15.01571045 38.74340576 -15.01571045 38.74340576 -15.03173828 37.46142578 C-15.06580019 34.35661836 -15.09088911 31.25190608 -15.10986328 28.14697266 C-15.12488107 26.1408864 -15.15028981 24.13488676 -15.17578125 22.12890625 C-15.18544922 20.24365234 -15.18544922 20.24365234 -15.1953125 18.3203125 C-15.21102295 16.57645264 -15.21102295 16.57645264 -15.22705078 14.79736328 C-15 12 -15 12 -13 10 C-10.94140625 9.734375 -10.94140625 9.734375 -8.5625 9.75 C-7.38880859 9.74226563 -7.38880859 9.74226563 -6.19140625 9.734375 C-4 10 -4 10 -1 12 C-1 11.34 -1 10.68 -1 10 C-0.2575 10.2475 0.485 10.495 1.25 10.75 C4.08739089 11.29584358 4.08739089 11.29584358 6.375 9.4375 C8.33879744 7.03478823 8.33879744 7.03478823 7.75 3.75 C7.5025 2.8425 7.255 1.935 7 1 C4.69 1 2.38 1 0 1 C0 0.67 0 0.34 0 0 Z " fill="#FDE331" transform="translate(130,63)"/>
<path d="M0 0 C1.27875 0.103125 2.5575 0.20625 3.875 0.3125 C4.59429687 0.37050781 5.31359375 0.42851562 6.0546875 0.48828125 C8 1 8 1 10 4 C10.52769843 7.06065088 10.82326752 9.90718166 11 13 C11.03931641 13.66032227 11.07863281 14.32064453 11.11914062 15.00097656 C11.23727779 17.25058854 11.31107581 19.49823445 11.375 21.75 C11.41318848 22.48299316 11.45137695 23.21598633 11.49072266 23.97119141 C11.55314953 28.05130017 11.25631372 29.70544265 8.5390625 32.828125 C7.28222656 33.90320312 7.28222656 33.90320312 6 35 C5.67 35.99 5.34 36.98 5 38 C4.175 38.309375 3.35 38.61875 2.5 38.9375 C1.675 39.288125 0.85 39.63875 0 40 C-0.81446109 42.00572641 -0.81446109 42.00572641 -1 44 C-2.78281151 45.78281151 -5.17419774 45.12848949 -7.54789734 45.13894653 C-8.3300209 45.1369223 -9.11214447 45.13489807 -9.91796875 45.1328125 C-10.72680008 45.13376923 -11.53563141 45.13472595 -12.36897278 45.13571167 C-14.09323198 45.13639448 -15.81749373 45.13453325 -17.54174805 45.13037109 C-20.13140993 45.12511387 -22.72089109 45.13026509 -25.31054688 45.13671875 C-34.92332338 45.1401922 -44.42008925 44.86793537 -54 44 C-54.125 34.25 -54.125 34.25 -53 32 C-38.15 31.505 -38.15 31.505 -23 31 C-22.67 28.36 -22.34 25.72 -22 23 C-18.37 23 -14.74 23 -11 23 C-11 19.37 -11 15.74 -11 12 C-7.37 11.67 -3.74 11.34 0 11 C0 7.37 0 3.74 0 0 Z " fill="#FDFAD2" transform="translate(95,29)"/>
<path d="M0 0 C13.53 0 27.06 0 41 0 C41 6.27 41 12.54 41 19 C38.03 19 35.06 19 32 19 C31.24758891 22.65456815 30.59950296 26.31733897 30 30 C27.03 30 24.06 30 21 30 C21 33.63 21 37.26 21 41 C17.7 41 14.4 41 11 41 C10.67 44.96 10.34 48.92 10 53 C6.7 53 3.4 53 0 53 C0 46.07 0 39.14 0 32 C3.63 32 7.26 32 11 32 C10.814375 30.370625 10.62875 28.74125 10.4375 27.0625 C10.24577676 25.37959602 10.08963062 23.69141656 10 22 C11 21 11 21 13.28515625 20.90234375 C15.85677083 20.93489583 18.42838542 20.96744792 21 21 C21 17.7 21 14.4 21 11 C14.07 11 7.14 11 0 11 C0 7.37 0 3.74 0 0 Z " fill="#C2800E" transform="translate(127,52)"/>
<path d="M0 0 C2.12508244 3.18762365 2.5020163 5.26512223 3 9 C4.27875 9.226875 5.5575 9.45375 6.875 9.6875 C9.0546875 10.07421875 9.0546875 10.07421875 11 11 C13.42062353 15.05454441 13.23904942 19.2285905 13.125 23.8125 C13.11597656 24.50537109 13.10695313 25.19824219 13.09765625 25.91210938 C13.07426157 27.60822395 13.03839641 29.30415871 13 31 C14.11375 30.95875 15.2275 30.9175 16.375 30.875 C20 31 20 31 22 33 C22.27629475 36.68024605 22.0859315 40.30494557 22 44 C18.37 44 14.74 44 11 44 C11 40.37 11 36.74 11 33 C7.7 33 4.4 33 1 33 C1 26.07 1 19.14 1 12 C-2.63 12 -6.26 12 -10 12 C-10 18.6 -10 25.2 -10 32 C-13.42932071 33.71466036 -17.21716065 33.05404056 -21 33 C-21 36.63 -21 40.26 -21 44 C-38.49 44 -55.98 44 -74 44 C-74 50.93 -74 57.86 -74 65 C-76.82726984 62.17273016 -76.28971809 60.03224876 -76.32226562 56.16796875 C-76.31904297 55.28753906 -76.31582031 54.40710937 -76.3125 53.5 C-76.32861328 52.61957031 -76.34472656 51.73914062 -76.36132812 50.83203125 C-76.36197266 49.99027344 -76.36261719 49.14851563 -76.36328125 48.28125 C-76.36626221 47.50845703 -76.36924316 46.73566406 -76.37231445 45.93945312 C-76.1880188 44.97942383 -76.1880188 44.97942383 -76 44 C-72.0944753 41.39631687 -68.71336111 41.64851503 -64.17578125 41.5859375 C-63.31438034 41.56657135 -62.45297943 41.5472052 -61.56547546 41.5272522 C-58.81458432 41.4674797 -56.06365127 41.42108052 -53.3125 41.375 C-51.44724739 41.33681806 -49.58201237 41.2977662 -47.71679688 41.2578125 C-43.14467414 41.1617801 -38.57246886 41.0777405 -34 41 C-33.896875 39.72125 -33.79375 38.4425 -33.6875 37.125 C-33.51171875 34.9453125 -33.51171875 34.9453125 -33 33 C-29.81237635 30.87491756 -27.73487777 30.4979837 -24 30 C-23.95101562 28.96359375 -23.90203125 27.9271875 -23.8515625 26.859375 C-23.77650403 25.48955792 -23.70095753 24.11976752 -23.625 22.75 C-23.5940625 22.06808594 -23.563125 21.38617187 -23.53125 20.68359375 C-23.12716036 13.74672163 -23.12716036 13.74672163 -21 11 C-19.700625 10.773125 -18.40125 10.54625 -17.0625 10.3125 C-14.88655058 9.98973814 -14.88655058 9.98973814 -13 9 C-11.79218514 6.67995274 -11.21145514 4.55007114 -10.66796875 1.99609375 C-10.33732422 1.00802734 -10.33732422 1.00802734 -10 0 C-6.23918426 -1.25360525 -3.84551868 -0.83902226 0 0 Z " fill="#AD741E" transform="translate(105,8)"/>
<path d="M0 0 C3.63 0 7.26 0 11 0 C11 3.3 11 6.6 11 10 C17.93 10 24.86 10 32 10 C32 16.93 32 23.86 32 31 C31.34 31 30.68 31 30 31 C30 30.34 30 29.68 30 29 C23.73 29 17.46 29 11 29 C10.505 24.05 10.505 24.05 10 19 C6.7 19 3.4 19 0 19 C0 19.66 0 20.32 0 21 C-3.63 21 -7.26 21 -11 21 C-11 17.37 -11 13.74 -11 10 C-7.37 10 -3.74 10 0 10 C0 6.7 0 3.4 0 0 Z " fill="#D98F0D" transform="translate(95,106)"/>
<path d="M0 0 C5.94 0 11.88 0 18 0 C18 3.3 18 6.6 18 10 C14.7 10.33 11.4 10.66 8 11 C8 14.3 8 17.6 8 21 C4.37 21 0.74 21 -3 21 C-3 28.92 -3 36.84 -3 45 C-3.66 45 -4.32 45 -5 45 C-5 45.66 -5 46.32 -5 47 C-3.68 47 -2.36 47 -1 47 C-1 47.66 -1 48.32 -1 49 C-2.32 49 -3.64 49 -5 49 C-5 49.66 -5 50.32 -5 51 C-7.64 51 -10.28 51 -13 51 C-13.33 49.35 -13.66 47.7 -14 46 C-14.66 46 -15.32 46 -16 46 C-16.33 44.02 -16.66 42.04 -17 40 C-16.34 40 -15.68 40 -15 40 C-15.01047363 39.16227051 -15.02094727 38.32454102 -15.03173828 37.46142578 C-15.06580019 34.35661836 -15.09088911 31.25190608 -15.10986328 28.14697266 C-15.12488107 26.1408864 -15.15028981 24.13488676 -15.17578125 22.12890625 C-15.18544922 20.24365234 -15.18544922 20.24365234 -15.1953125 18.3203125 C-15.20578613 17.15773926 -15.21625977 15.99516602 -15.22705078 14.79736328 C-15 12 -15 12 -13 10 C-10.94140625 9.734375 -10.94140625 9.734375 -8.5625 9.75 C-7.38880859 9.74226563 -7.38880859 9.74226563 -6.19140625 9.734375 C-4 10 -4 10 -1 12 C-1 11.34 -1 10.68 -1 10 C-0.2575 10.2475 0.485 10.495 1.25 10.75 C4.08739089 11.29584358 4.08739089 11.29584358 6.375 9.4375 C8.33879744 7.03478823 8.33879744 7.03478823 7.75 3.75 C7.5025 2.8425 7.255 1.935 7 1 C4.69 1 2.38 1 0 1 C0 0.67 0 0.34 0 0 Z " fill="#F8EE22" transform="translate(130,63)"/>
<path d="M0 0 C3.3 0 6.6 0 10 0 C10 3.3 10 6.6 10 10 C13.14618209 9.85983833 16.29181816 9.71315095 19.4375 9.5625 C20.33533203 9.52318359 21.23316406 9.48386719 22.15820312 9.44335938 C23.43920898 9.38051758 23.43920898 9.38051758 24.74609375 9.31640625 C25.53685303 9.27974854 26.3276123 9.24309082 27.14233398 9.20532227 C29.01401441 9.19436743 29.01401441 9.19436743 30 8 C30.33 5.36 30.66 2.72 31 0 C38.26 0 45.52 0 53 0 C53 3.3 53 6.6 53 10 C45.74 10 38.48 10 31 10 C31 12.97 31 15.94 31 19 C20.77 19 10.54 19 0 19 C0 12.73 0 6.46 0 0 Z " fill="#A87007" transform="translate(42,127)"/>
<path d="M0 0 C13.86 0 27.72 0 42 0 C42 2.64 42 5.28 42 8 C41 9 41 9 38.13256836 9.11352539 C36.88096924 9.10828857 35.62937012 9.10305176 34.33984375 9.09765625 C33.34314415 9.09553383 33.34314415 9.09553383 32.3263092 9.09336853 C30.19666101 9.08775518 28.06711661 9.07520054 25.9375 9.0625 C24.49674631 9.05748671 23.05599097 9.05292351 21.61523438 9.04882812 C18.07678898 9.03778145 14.53840461 9.02050792 11 9 C10.67 12.96 10.34 16.92 10 21 C6.7 21 3.4 21 0 21 C0 14.07 0 7.14 0 0 Z " fill="#AB7121" transform="translate(31,52)"/>
<path d="M0 0 C0.66 0 1.32 0 2 0 C3.11823815 2.23647631 3.19396061 3.64891529 3.31640625 6.1328125 C3.35830078 6.93847656 3.40019531 7.74414062 3.44335938 8.57421875 C3.48267578 9.41597656 3.52199219 10.25773437 3.5625 11.125 C3.60568359 11.97449219 3.64886719 12.82398437 3.69335938 13.69921875 C3.79954236 15.79928223 3.90028497 17.89961948 4 20 C3.34 20 2.68 20 2 20 C1.67 21.32 1.34 22.64 1 24 C-0.98 24 -2.96 24 -5 24 C-5 24.66 -5 25.32 -5 26 C-5.99 26.66 -6.98 27.32 -8 28 C-8.36530232 31.12557959 -8.36530232 31.12557959 -8.1875 34.625 C-8.16042969 35.81351563 -8.13335937 37.00203125 -8.10546875 38.2265625 C-8.07066406 39.14179687 -8.03585938 40.05703125 -8 41 C-6.515 40.505 -6.515 40.505 -5 40 C-4.67 39.01 -4.34 38.02 -4 37 C-2.14375 37.1546875 -2.14375 37.1546875 -0.25 37.3125 C1.94153035 37.39429821 1.94153035 37.39429821 4 37 C6.40406384 34.62157423 6.40406384 34.62157423 8 32 C8.66 32 9.32 32 10 32 C10 35.63 10 39.26 10 43 C6.37 43 2.74 43 -1 43 C-0.95875 44.27875 -0.9175 45.5575 -0.875 46.875 C-0.8046875 49.0546875 -0.8046875 49.0546875 -1 51 C-3 53 -3 53 -4.97119141 53.22705078 C-5.75671387 53.21657715 -6.54223633 53.20610352 -7.3515625 53.1953125 C-8.20234375 53.18886719 -9.053125 53.18242187 -9.9296875 53.17578125 C-10.81914063 53.15902344 -11.70859375 53.14226562 -12.625 53.125 C-13.97078125 53.11146484 -13.97078125 53.11146484 -15.34375 53.09765625 C-17.56261322 53.07405132 -19.7813397 53.03817962 -22 53 C-22 49.7 -22 46.4 -22 43 C-18.37 43 -14.74 43 -11 43 C-11 35.74 -11 28.48 -11 21 C-7.37 21 -3.74 21 0 21 C0 14.07 0 7.14 0 0 Z " fill="#F8E235" transform="translate(74,84)"/>
<path d="M0 0 C3.63 0 7.26 0 11 0 C11 6.93 11 13.86 11 21 C14.3 21 17.6 21 21 21 C21 23.97 21 26.94 21 30 C18.69 30 16.38 30 14 30 C14.05800781 30.89203125 14.11601563 31.7840625 14.17578125 32.703125 C14.22089844 33.87359375 14.26601562 35.0440625 14.3125 36.25 C14.37050781 37.41015625 14.42851563 38.5703125 14.48828125 39.765625 C14 43 14 43 11.6484375 45.28125 C10.77445313 45.8484375 9.90046875 46.415625 9 47 C8.113125 47.7425 7.22625 48.485 6.3125 49.25 C4 51 4 51 2 51 C2 51.99 2 52.98 2 54 C-1.98983223 55.84702283 -5.42957577 56.36237698 -9.8046875 56.6328125 C-11.11050781 56.71660156 -12.41632813 56.80039063 -13.76171875 56.88671875 C-14.4376709 56.92587402 -15.11362305 56.9650293 -15.81005859 57.00537109 C-17.86225077 57.12426139 -19.91348063 57.25435687 -21.96484375 57.38671875 C-27.9890659 57.76063599 -33.96236149 58.0453088 -40 58 C-40 58.66 -40 59.32 -40 60 C-37.03 60.33 -34.06 60.66 -31 61 C-31 61.33 -31 61.66 -31 62 C-34.96 62 -38.92 62 -43 62 C-43 59.03 -43 56.06 -43 53 C-29.47 53 -15.94 53 -2 53 C-1.34 51.68 -0.68 50.36 0 49 C1.2684375 48.505 1.2684375 48.505 2.5625 48 C3.7690625 47.505 3.7690625 47.505 5 47 C5.60061233 45.09821215 5.60061233 45.09821215 6 43 C6.66257813 42.46503906 7.32515625 41.93007813 8.0078125 41.37890625 C10.81132609 38.03118119 10.47918049 34.96867116 10.3125 30.8125 C10.29630615 30.05380615 10.2801123 29.2951123 10.26342773 28.51342773 C10.33478776 19.48921784 10.33478776 19.48921784 8 11 C6.11235097 10.31527335 6.11235097 10.31527335 3.9375 9.875 C1.9884375 9.441875 1.9884375 9.441875 0 9 C0 6.03 0 3.06 0 0 Z " fill="#F5F746" transform="translate(95,20)"/>
<path d="M0 0 C13.53 0 27.06 0 41 0 C41 6.27 41 12.54 41 19 C38.03 19 35.06 19 32 19 C31.875 16.625 31.875 16.625 32 14 C32.66 13.34 33.32 12.68 34 12 C33.7525 10.7934375 33.7525 10.7934375 33.5 9.5625 C33 7 33 7 35 4 C34.01 4 33.02 4 32 4 C32 5.65 32 7.3 32 9 C31.34 9 30.68 9 30 9 C30 8.01 30 7.02 30 6 C29.34 6 28.68 6 28 6 C28 6.66 28 7.32 28 8 C27.34 8 26.68 8 26 8 C25.67 7.67 25.34 7.34 25 7 C25 7.33 25 7.66 25 8 C19.67132017 9.10941367 14.53718145 9.11548069 9.125 9.0625 C8.24585938 9.05798828 7.36671875 9.05347656 6.4609375 9.04882812 C4.30726197 9.03712337 2.15362183 9.01919069 0 9 C0 6.03 0 3.06 0 0 Z " fill="#AE6E0A" transform="translate(127,52)"/>
<path d="M0 0 C0.08090971 1.62418745 0.13914995 3.24951745 0.1875 4.875 C0.23970703 6.23238281 0.23970703 6.23238281 0.29296875 7.6171875 C0.19628906 8.40351562 0.09960938 9.18984375 0 10 C-3 12 -3 12 -6 12.625 C-9.05967947 13.66499807 -9.05967947 13.66499807 -10.01953125 15.87109375 C-10.53932136 17.30755803 -11.02026012 18.75881119 -11.45703125 20.22265625 C-12 22 -12 22 -13 23 C-15.3756852 23.0883967 -17.72208674 23.11530305 -20.09765625 23.09765625 C-21.16094398 23.09553383 -21.16094398 23.09553383 -22.24571228 23.09336853 C-24.51801712 23.08775443 -26.79022475 23.07519963 -29.0625 23.0625 C-30.59960796 23.05748681 -32.13671745 23.05292359 -33.67382812 23.04882812 C-37.44925642 23.03778042 -41.22461171 23.02050641 -45 23 C-44.34 26.3 -43.68 29.6 -43 33 C-46.63 33 -50.26 33 -54 33 C-54.125 23.25 -54.125 23.25 -53 21 C-38.15 20.505 -38.15 20.505 -23 20 C-22.67 17.36 -22.34 14.72 -22 12 C-18.37 12 -14.74 12 -11 12 C-11 8.37 -11 4.74 -11 1 C-9.55625 0.835 -8.1125 0.67 -6.625 0.5 C-5.81289062 0.4071875 -5.00078125 0.314375 -4.1640625 0.21875 C-2 0 -2 0 0 0 Z " fill="#F5F77D" transform="translate(95,40)"/>
<path d="M0 0 C0.66 0 1.32 0 2 0 C2 0.66 2 1.32 2 2 C2.804375 2.144375 3.60875 2.28875 4.4375 2.4375 C7 3 7 3 8 4 C8.07205511 5.68608966 8.08386068 7.37500659 8.0625 9.0625 C8.05347656 9.98160156 8.04445313 10.90070312 8.03515625 11.84765625 C8.02355469 12.55792969 8.01195313 13.26820312 8 14 C9.65 14 11.3 14 13 14 C13 14.66 13 15.32 13 16 C10.5 17.625 10.5 17.625 8 19 C8.33 19.99 8.66 20.98 9 22 C8.01 22.66 7.02 23.32 6 24 C5.31498063 26.12284399 5.31498063 26.12284399 5 28.5 C4.625 30.90625 4.625 30.90625 4 33 C0.77208445 35.1519437 -0.28400809 35.20086443 -4 35 C-4 34.34 -4 33.68 -4 33 C-3.34 33 -2.68 33 -2 33 C-2 31.68 -2 30.36 -2 29 C-2.33 28.67 -2.66 28.34 -3 28 C-3.99 28.66 -4.98 29.32 -6 30 C-8.6875 29.625 -8.6875 29.625 -11 29 C-11.25 22.375 -11.25 22.375 -9 19 C-8.34 19 -7.68 19 -7 19 C-7 18.34 -7 17.68 -7 17 C-5.36368108 15.95107762 -3.69514137 14.95093297 -2 14 C-0.12175109 12.12175109 -0.60897603 8.96064724 -0.4375 6.4375 C-0.35371094 5.23996094 -0.26992187 4.04242188 -0.18359375 2.80859375 C-0.12300781 1.88175781 -0.06242187 0.95492187 0 0 Z " fill="#FCFD11" transform="translate(110,51)"/>
<path d="M0 0 C2.97 0 5.94 0 9 0 C9 6.27 9 12.54 9 19 C-0.9 19 -10.8 19 -21 19 C-21 16.03 -21 13.06 -21 10 C-14.07 10 -7.14 10 0 10 C0 6.7 0 3.4 0 0 Z " fill="#AC6E18" transform="translate(148,127)"/>
<path d="M0 0 C7.26 0 14.52 0 22 0 C22 6.93 22 13.86 22 21 C18.37 21 14.74 21 11 21 C11 17.04 11 13.08 11 9 C7.37 9 3.74 9 0 9 C0 6.03 0 3.06 0 0 Z " fill="#DAA705" transform="translate(52,84)"/>
<path d="M0 0 C0.33 0 0.66 0 1 0 C1 10.56 1 21.12 1 32 C-16.49 32 -33.98 32 -52 32 C-52 38.93 -52 45.86 -52 53 C-54.82726984 50.17273016 -54.28971809 48.03224876 -54.32226562 44.16796875 C-54.31904297 43.28753906 -54.31582031 42.40710937 -54.3125 41.5 C-54.32861328 40.61957031 -54.34472656 39.73914062 -54.36132812 38.83203125 C-54.36197266 37.99027344 -54.36261719 37.14851563 -54.36328125 36.28125 C-54.36626221 35.50845703 -54.36924316 34.73566406 -54.37231445 33.93945312 C-54.1880188 32.97942383 -54.1880188 32.97942383 -54 32 C-50.0944753 29.39631687 -46.71336111 29.64851503 -42.17578125 29.5859375 C-40.88367989 29.55688828 -40.88367989 29.55688828 -39.56547546 29.5272522 C-36.81458432 29.4674797 -34.06365127 29.42108052 -31.3125 29.375 C-29.44724739 29.33681806 -27.58201237 29.2977662 -25.71679688 29.2578125 C-21.14467414 29.1617801 -16.57246886 29.0777405 -12 29 C-11.896875 27.72125 -11.79375 26.4425 -11.6875 25.125 C-11.51171875 22.9453125 -11.51171875 22.9453125 -11 21 C-7.81237635 18.87491756 -5.73487777 18.4979837 -2 18 C-1.90912109 16.42798828 -1.90912109 16.42798828 -1.81640625 14.82421875 C-1.73198262 13.44529952 -1.64733553 12.06639395 -1.5625 10.6875 C-1.52318359 9.99720703 -1.48386719 9.30691406 -1.44335938 8.59570312 C-1.25072585 5.52838465 -0.97677283 2.93031848 0 0 Z " fill="#4E2304" transform="translate(83,20)"/>
<path d="M0 0 C5.94 0 11.88 0 18 0 C18 3.3 18 6.6 18 10 C14.7 10.33 11.4 10.66 8 11 C8 14.3 8 17.6 8 21 C4.37 21 0.74 21 -3 21 C-3 27.93 -3 34.86 -3 42 C-3.66 42 -4.32 42 -5 42 C-5.33 40.02 -5.66 38.04 -6 36 C-6.66 36.99 -7.32 37.98 -8 39 C-8 19.28571429 -8 19.28571429 -7 17 C-1.96428571 14 -1.96428571 14 1 14 C2.34919532 12.34614767 3.68133728 10.678298 5 9 C5.99 8.34 6.98 7.68 8 7 C7.67 5.02 7.34 3.04 7 1 C4.69 1 2.38 1 0 1 C0 0.67 0 0.34 0 0 Z " fill="#F9CD32" transform="translate(130,63)"/>
<path d="M0 0 C3.63 0 7.26 0 11 0 C11 3.63 11 7.26 11 11 C14.3 11.33 17.6 11.66 21 12 C21.66 13.98 22.32 15.96 23 18 C22.360625 18.268125 21.72125 18.53625 21.0625 18.8125 C18.66868314 19.88667752 18.66868314 19.88667752 18 23 C17.67 22.34 17.34 21.68 17 21 C15.68 21 14.36 21 13 21 C13 21.66 13 22.32 13 23 C9.7 22.34 6.4 21.68 3 21 C3 20.34 3 19.68 3 19 C2.34 18.67 1.68 18.34 1 18 C2.3125 16.5 2.3125 16.5 4 15 C4.99 15 5.98 15 7 15 C7 14.34 7 13.68 7 13 C5.35 13 3.7 13 2 13 C2 9.04 2 5.08 2 1 C1.34 0.67 0.68 0.34 0 0 Z " fill="#FBF721" transform="translate(116,52)"/>
<path d="M0 0 C0.33 0 0.66 0 1 0 C1.33 2.64 1.66 5.28 2 8 C2.99330322 7.98952637 3.98660645 7.97905273 5.01000977 7.96826172 C8.7205846 7.93186489 12.43114387 7.90902839 16.1418457 7.89013672 C17.74310974 7.88012377 19.34435571 7.8665094 20.94555664 7.84912109 C23.25671876 7.82466435 25.56763762 7.81346971 27.87890625 7.8046875 C28.9402755 7.78920364 28.9402755 7.78920364 30.02308655 7.77340698 C34.7637726 7.77235411 38.58334276 8.39118327 43 10 C44.56424629 13.12849259 44.18446398 16.44430084 44.1875 19.875 C44.19974609 20.59558594 44.21199219 21.31617187 44.22460938 22.05859375 C44.23601186 26.18629416 43.89394929 28.21210143 42 32 C39.03 32 36.06 32 33 32 C33.0825 33.258125 33.165 34.51625 33.25 35.8125 C33.22932408 39.70646518 33.22932408 39.70646518 31.4375 42 C28.2014503 43.32761013 25.46093134 43.19966912 22 43 C22.05220703 43.93972656 22.05220703 43.93972656 22.10546875 44.8984375 C22.13253906 45.71570313 22.15960938 46.53296875 22.1875 47.375 C22.23970703 48.59316406 22.23970703 48.59316406 22.29296875 49.8359375 C22.19628906 50.55007812 22.09960938 51.26421875 22 52 C18.3558226 54.4294516 16.28758728 54.16179575 12 54 C12 56.31 12 58.62 12 61 C14.64 61.33 17.28 61.66 20 62 C20 62.33 20 62.66 20 63 C16.7 63 13.4 63 10 63 C9.875 53.25 9.875 53.25 11 51 C14.3 51 17.6 51 21 51 C21 47.37 21 43.74 21 40 C23.97 40 26.94 40 30 40 C29.95875 39.113125 29.9175 38.22625 29.875 37.3125 C29.99897246 34.02722987 30.61387904 31.94550705 32 29 C34.97 29 37.94 29 41 29 C41 22.73 41 16.46 41 10 C27.47 10 13.94 10 0 10 C0 6.7 0 3.4 0 0 Z " fill="#55290B" transform="translate(127,42)"/>
<path d="M0 0 C0.66 0 1.32 0 2 0 C1.68327951 5.22588808 -1.30110819 8.5609835 -5 12 C-6.05767578 12.52013672 -6.05767578 12.52013672 -7.13671875 13.05078125 C-9.27042839 13.88011087 -9.27042839 13.88011087 -10 16.5 C-11 19 -11 19 -12.66894531 20.14404297 C-15.65477051 21.24042998 -18.11733599 21.22530815 -21.296875 21.1953125 C-23.10478516 21.18564453 -23.10478516 21.18564453 -24.94921875 21.17578125 C-26.83060547 21.15064453 -26.83060547 21.15064453 -28.75 21.125 C-30.01972656 21.11597656 -31.28945312 21.10695313 -32.59765625 21.09765625 C-35.73196093 21.07409005 -38.86588541 21.04118832 -42 21 C-42.5625 19.0625 -42.5625 19.0625 -43 17 C-42 16 -42 16 -39.4375 15.9375 C-38.633125 15.958125 -37.82875 15.97875 -37 16 C-37 16.66 -37 17.32 -37 18 C-36.34 17.67 -35.68 17.34 -35 17 C-31.13938967 15.71312989 -28.05849717 15.86242382 -24 16 C-24 16.66 -24 17.32 -24 18 C-22.68 18 -21.36 18 -20 18 C-20 17.34 -20 16.68 -20 16 C-19.34 16 -18.68 16 -18 16 C-18 15.34 -18 14.68 -18 14 C-16.37897032 12.28891311 -14.70496537 10.62746694 -13 9 C-12.360625 8.2575 -11.72125 7.515 -11.0625 6.75 C-9 5 -9 5 -5.9375 4.5 C-2.87688285 4.30303468 -2.87688285 4.30303468 -1.25 1.9375 C-0.63125 0.9784375 -0.63125 0.9784375 0 0 Z " fill="#FEFBE7" transform="translate(100,49)"/>
<path d="M0 0 C3.63 0 7.26 0 11 0 C11.33 6.93 11.66 13.86 12 21 C14.97 21.33 17.94 21.66 21 22 C21 25.3 21 28.6 21 32 C14.07 32 7.14 32 0 32 C0 28.7 0 25.4 0 22 C2.97 21.67 5.94 21.34 9 21 C9.33 14.4 9.66 7.8 10 1 C6.7 1 3.4 1 0 1 C0 0.67 0 0.34 0 0 Z " fill="#DE9304" transform="translate(127,105)"/>
<path d="M0 0 C0.33 0 0.66 0 1 0 C1.13548815 2.73083902 1.23429855 5.45491807 1.3125 8.1875 C1.35439453 8.95642578 1.39628906 9.72535156 1.43945312 10.51757812 C1.53290505 14.87243773 1.490055 16.42891842 -1.45703125 19.86328125 C-2.29621094 20.56839844 -3.13539062 21.27351563 -4 22 C-4.495 23.485 -4.495 23.485 -5 25 C-5.825 25.309375 -6.65 25.61875 -7.5 25.9375 C-8.325 26.288125 -9.15 26.63875 -10 27 C-10.81446109 29.00572641 -10.81446109 29.00572641 -11 31 C-12.83360654 32.83360654 -15.39033736 32.12870678 -17.83004761 32.13894653 C-18.64667877 32.1369223 -19.46330994 32.13489807 -20.3046875 32.1328125 C-21.55706711 32.13424759 -21.55706711 32.13424759 -22.83474731 32.13571167 C-24.60516434 32.13639362 -26.37558384 32.13453828 -28.14599609 32.13037109 C-30.85650265 32.12503641 -33.56684248 32.13030861 -36.27734375 32.13671875 C-37.99479203 32.13605771 -39.71224021 32.13477601 -41.4296875 32.1328125 C-42.2422702 32.13483673 -43.05485291 32.13686096 -43.89205933 32.13894653 C-47.18327931 32.12524789 -49.85573394 32.04808869 -53 31 C-53.66 27.7 -54.32 24.4 -55 21 C-53.02 21 -51.04 21 -49 21 C-49.020625 21.969375 -49.04125 22.93875 -49.0625 23.9375 C-49.35618499 26.87465895 -49.35618499 26.87465895 -48 28 C-43.65630306 28.29090544 -39.30677071 28.31406483 -34.95458984 28.35009766 C-33.49186247 28.36662016 -32.02921461 28.39386198 -30.56689453 28.43212891 C-28.4556297 28.48709731 -26.3462605 28.50880166 -24.234375 28.5234375 C-22.96819336 28.54325684 -21.70201172 28.56307617 -20.39746094 28.58349609 C-16.15703418 27.85522504 -14.70097376 26.2541775 -12 23 C-11.505 23.99 -11.505 23.99 -11 25 C-10.566875 24.34 -10.13375 23.68 -9.6875 23 C-9.130625 22.34 -8.57375 21.68 -8 21 C-7.01 21 -6.02 21 -5 21 C-5 20.34 -5 19.68 -5 19 C-4.35546875 18.45859375 -3.7109375 17.9171875 -3.046875 17.359375 C-0.28764352 14.17888681 -0.33376673 11.27841812 -0.25 7.25 C-0.20552734 6.20392578 -0.20552734 6.20392578 -0.16015625 5.13671875 C-0.08981542 3.42509187 -0.04260054 1.71254185 0 0 Z " fill="#FDFDB3" transform="translate(105,42)"/>
<path d="M0 0 C3.3 0 6.6 0 10 0 C10.02683436 3.31255326 10.0467578 6.62489183 10.0625 9.9375 C10.07087891 10.88302734 10.07925781 11.82855469 10.08789062 12.80273438 C10.09272461 14.15141602 10.09272461 14.15141602 10.09765625 15.52734375 C10.10551147 16.77632446 10.10551147 16.77632446 10.11352539 18.05053711 C10 20 10 20 9 21 C5.99668982 21.14193337 3.00782866 21.04236378 0 21 C0 17.37 0 13.74 0 10 C-4.29 9.67 -8.58 9.34 -13 9 C-13 8.67 -13 8.34 -13 8 C-9.37 8 -5.74 8 -2 8 C-2 7.34 -2 6.68 -2 6 C-0.68 6 0.64 6 2 6 C2 5.34 2 4.68 2 4 C0.68 4 -0.64 4 -2 4 C-2 3.34 -2 2.68 -2 2 C-1.34 2 -0.68 2 0 2 C0 1.34 0 0.68 0 0 Z " fill="#F5E129" transform="translate(127,106)"/>
<path d="M0 0 C3.3 0 6.6 0 10 0 C10 7.26 10 14.52 10 22 C7.03 22 4.06 22 1 22 C0 21 0 21 -0.11352539 18.95874023 C-0.10828857 18.08419189 -0.10305176 17.20964355 -0.09765625 16.30859375 C-0.09443359 15.36435547 -0.09121094 14.42011719 -0.08789062 13.44726562 C-0.07951172 12.45404297 -0.07113281 11.46082031 -0.0625 10.4375 C-0.05798828 9.44041016 -0.05347656 8.44332031 -0.04882812 7.41601562 C-0.03700023 4.94398513 -0.01906415 2.47198528 0 0 Z " fill="#9C6912" transform="translate(138,105)"/>
<path d="M0 0 C0.33 0 0.66 0 1 0 C1 7.26 1 14.52 1 22 C-2.3 22 -5.6 22 -9 22 C-9 28.27 -9 34.54 -9 41 C1.23 41 11.46 41 22 41 C22 38.03 22 35.06 22 32 C28.93 32 35.86 32 43 32 C43 32.33 43 32.66 43 33 C36.73 33.33 30.46 33.66 24 34 C24 35.98 24 37.96 24 40 C22 43 22 43 19.07421875 43.671875 C14.00177184 44.19212596 8.90707434 44.22299099 3.8125 44.25 C2.82830078 44.270625 1.84410156 44.29125 0.83007812 44.3125 C-0.11802734 44.31765625 -1.06613281 44.3228125 -2.04296875 44.328125 C-2.89914795 44.3374707 -3.75532715 44.34681641 -4.63745117 44.35644531 C-7.57308679 43.91353656 -8.91779867 43.10438072 -11 41 C-11.48583984 39.0546875 -11.48583984 39.0546875 -11.4609375 36.875 C-11.45513672 35.69164062 -11.45513672 35.69164062 -11.44921875 34.484375 C-11.42472656 33.66453125 -11.40023437 32.8446875 -11.375 32 C-11.37371094 31.18015625 -11.37242188 30.3603125 -11.37109375 29.515625 C-11.28148496 23.42222744 -11.28148496 23.42222744 -9 20 C-6.37643538 19.01484622 -3.75475877 18.57761071 -1 18 C-1.01160156 17.03578125 -1.02320313 16.0715625 -1.03515625 15.078125 C-1.04417969 13.81484375 -1.05320312 12.5515625 -1.0625 11.25 C-1.07410156 9.99703125 -1.08570313 8.7440625 -1.09765625 7.453125 C-1.02021027 4.71463499 -0.82780815 2.58119707 0 0 Z " fill="#613011" transform="translate(51,105)"/>
<path d="M0 0 C6.93 0 13.86 0 21 0 C21 3.3 21 6.6 21 10 C14.07 10 7.14 10 0 10 C0 6.7 0 3.4 0 0 Z " fill="#B26D09" transform="translate(74,127)"/>
<path d="M0 0 C0.99 0 1.98 0 3 0 C2.7215625 0.8353125 2.7215625 0.8353125 2.4375 1.6875 C1.92448835 4.399133 2.3359276 6.34371039 3 9 C2.34 9.33 1.68 9.66 1 10 C0.814375 11.2065625 0.814375 11.2065625 0.625 12.4375 C0 15 0 15 -1.625 16.3125 C-4.79801368 17.23100396 -7.71644746 17.12629048 -11 17 C-11 13.7 -11 10.4 -11 7 C-17.93 7 -24.86 7 -32 7 C-32 6.34 -32 5.68 -32 5 C-31.16807129 4.970271 -31.16807129 4.970271 -30.31933594 4.93994141 C-27.79576307 4.84442349 -25.27298776 4.73485433 -22.75 4.625 C-21.87730469 4.5940625 -21.00460938 4.563125 -20.10546875 4.53125 C-19.26113281 4.49257813 -18.41679687 4.45390625 -17.546875 4.4140625 C-16.77182617 4.3826416 -15.99677734 4.3512207 -15.19824219 4.31884766 C-12.78425866 3.96870744 -11.15646054 3.1036785 -9 2 C-8.01 2 -7.02 2 -6 2 C-6 2.66 -6 3.32 -6 4 C-5.34 4 -4.68 4 -4 4 C-4 3.34 -4 2.68 -4 2 C-3.34 2 -2.68 2 -2 2 C-2 2.99 -2 3.98 -2 5 C-1.34 5 -0.68 5 0 5 C0 3.35 0 1.7 0 0 Z " fill="#E58E13" transform="translate(159,56)"/>
<path d="M0 0 C1.48831242 0.00667405 2.97660807 0.01863442 4.46484375 0.03515625 C5.22345703 0.03966797 5.98207031 0.04417969 6.76367188 0.04882812 C8.64326246 0.06064945 10.52281274 0.07858547 12.40234375 0.09765625 C12.78453142 1.75380282 13.11629477 3.42222649 13.40234375 5.09765625 C13.07234375 5.42765625 12.74234375 5.75765625 12.40234375 6.09765625 C15.70234375 6.42765625 19.00234375 6.75765625 22.40234375 7.09765625 C22.40234375 9.07765625 22.40234375 11.05765625 22.40234375 13.09765625 C20.42234375 12.43765625 18.44234375 11.77765625 16.40234375 11.09765625 C16.07234375 11.75765625 15.74234375 12.41765625 15.40234375 13.09765625 C13.42234375 13.09765625 11.44234375 13.09765625 9.40234375 13.09765625 C9.07234375 10.78765625 8.74234375 8.47765625 8.40234375 6.09765625 C7.08234375 6.09765625 5.76234375 6.09765625 4.40234375 6.09765625 C4.40234375 7.08765625 4.40234375 8.07765625 4.40234375 9.09765625 C2.75234375 9.42765625 1.10234375 9.75765625 -0.59765625 10.09765625 C-2.4755173 7.15839548 -4.09883959 4.5893729 -4.59765625 1.09765625 C-3.59765625 0.09765625 -3.59765625 0.09765625 0 0 Z " fill="#FAFD0D" transform="translate(83.59765625,85.90234375)"/>
<path d="M0 0 C2.64 0.33 5.28 0.66 8 1 C11.10693214 5.66039821 10.3285338 10.45714721 10.3125 15.9375 C10.32861328 17.03513672 10.34472656 18.13277344 10.36132812 19.26367188 C10.36197266 20.32005859 10.36261719 21.37644531 10.36328125 22.46484375 C10.36626221 23.430271 10.36924316 24.39569824 10.37231445 25.39038086 C9.93999764 28.42056739 9.11586795 29.81578465 7 32 C6.34 32 5.68 32 5 32 C5 32.66 5 33.32 5 34 C4.401875 34.2475 3.80375 34.495 3.1875 34.75 C0.71352479 36.16370012 -0.43370255 37.65055383 -2 40 C-2 38.02 -2 36.04 -2 34 C-1.44570312 33.74605469 -0.89140625 33.49210937 -0.3203125 33.23046875 C0.40414062 32.88628906 1.12859375 32.54210938 1.875 32.1875 C2.59429687 31.85105469 3.31359375 31.51460937 4.0546875 31.16796875 C6.30542806 30.00532903 6.30542806 30.00532903 8 27 C8.27512419 24.67733918 8.27512419 24.67733918 8.1953125 22.11328125 C8.18886719 21.17548828 8.18242188 20.23769531 8.17578125 19.27148438 C8.15902344 18.29501953 8.14226562 17.31855469 8.125 16.3125 C8.11597656 15.32443359 8.10695313 14.33636719 8.09765625 13.31835938 C8.0740843 10.87866235 8.04118022 8.43945303 8 6 C5.03 5.505 5.03 5.505 2 5 C2.06960937 6.18078125 2.13921875 7.3615625 2.2109375 8.578125 C2.26722309 10.13535973 2.3218224 11.69265604 2.375 13.25 C2.45041016 14.41595703 2.45041016 14.41595703 2.52734375 15.60546875 C2.5855872 17.87696349 2.55508734 19.79433251 2 22 C-0.78125 24.28125 -0.78125 24.28125 -4 26 C-6.11775421 28.08050581 -6.11775421 28.08050581 -7.875 30.25 C-8.47054687 30.95640625 -9.06609375 31.6628125 -9.6796875 32.390625 C-10.11539063 32.92171875 -10.55109375 33.4528125 -11 34 C-11.66 33.67 -12.32 33.34 -13 33 C-12.56487297 31.54856229 -12.07429728 30.11370843 -11.5625 28.6875 C-11.29566406 27.88699219 -11.02882813 27.08648437 -10.75390625 26.26171875 C-9 24 -9 24 0 21 C0 14.07 0 7.14 0 0 Z " fill="#FEF5C6" transform="translate(95,29)"/>
<path d="M0 0 C7.59 0 15.18 0 23 0 C22 3 22 3 20.0625 4.6875 C15.59748955 6.60107591 11.83802116 6.19352085 7 6 C6.67 9.96 6.34 13.92 6 18 C4.02 16.68 2.04 15.36 0 14 C0.2784375 13.0409375 0.2784375 13.0409375 0.5625 12.0625 C1.27037583 8.01838283 1.27037583 8.01838283 0 0 Z " fill="#AC6F03" transform="translate(35,55)"/>
<path d="M0 0 C0.33 0 0.66 0 1 0 C1 3.63 1 7.26 1 11 C-6.92 11 -14.84 11 -23 11 C-22.34 14.3 -21.68 17.6 -21 21 C-24.63 21 -28.26 21 -32 21 C-32.125 11.25 -32.125 11.25 -31 9 C-16.15 8.505 -16.15 8.505 -1 8 C-0.67 5.36 -0.34 2.72 0 0 Z " fill="#EBDD44" transform="translate(73,52)"/>
<path d="M0 0 C2.12401038 4.24802077 2.2376107 7.16761063 2.125 11.75 C2.11597656 12.44738281 2.10695313 13.14476562 2.09765625 13.86328125 C2.07419888 15.57566958 2.03833104 17.28788004 2 19 C3.11375 18.95875 4.2275 18.9175 5.375 18.875 C9 19 9 19 11 21 C11.27629475 24.68024605 11.0859315 28.30494557 11 32 C7.37 32 3.74 32 0 32 C0 21.44 0 10.88 0 0 Z " fill="#8E6828" transform="translate(116,20)"/>
<path d="M0 0 C6.93 0 13.86 0 21 0 C21 3.3 21 6.6 21 10 C20.34 10 19.68 10 19 10 C19 9.34 19 8.68 19 8 C12.73 8 6.46 8 0 8 C0 5.36 0 2.72 0 0 Z " fill="#BB6C04" transform="translate(106,127)"/>
<path d="M0 0 C1.32 0 2.64 0 4 0 C3.6875 1.875 3.6875 1.875 3 4 C0 6 0 6 -2 6 C-3.34882408 6.63474075 -4.6846659 7.29848848 -6 8 C-5.7215625 8.928125 -5.7215625 8.928125 -5.4375 9.875 C-5 12 -5 12 -6 14 C-6.23029956 16.37123246 -6.41119942 18.74741943 -6.5625 21.125 C-6.64628906 22.40632813 -6.73007813 23.68765625 -6.81640625 25.0078125 C-6.90728516 26.48894531 -6.90728516 26.48894531 -7 28 C-8.65 28.33 -10.3 28.66 -12 29 C-12.05830787 25.60423938 -12.09369946 22.2086085 -12.125 18.8125 C-12.14175781 17.85279297 -12.15851563 16.89308594 -12.17578125 15.90429688 C-12.18222656 14.97294922 -12.18867187 14.04160156 -12.1953125 13.08203125 C-12.20578613 12.22843018 -12.21625977 11.3748291 -12.22705078 10.49536133 C-11.97204194 7.69273185 -11.15541422 5.55270581 -10 3 C-6.7 2.67 -3.4 2.34 0 2 C0 1.34 0 0.68 0 0 Z " fill="#F8DF26" transform="translate(129,73)"/>
<path d="M0 0 C13.2 0 26.4 0 40 0 C40 6.27 40 12.54 40 19 C37.03 19 34.06 19 31 19 C31 18.34 31 17.68 31 17 C32.32 17 33.64 17 35 17 C34.95875 16.21625 34.9175 15.4325 34.875 14.625 C35 12 35 12 37 10 C37 7.36 37 4.72 37 2 C24.79 2 12.58 2 0 2 C0 1.34 0 0.68 0 0 Z " fill="#A86D2B" transform="translate(128,52)"/>
<path d="M0 0 C-0.99 0.495 -0.99 0.495 -2 1 C-2 1.99 -2 2.98 -2 4 C-3.32 4.33 -4.64 4.66 -6 5 C-4.68 5.33 -3.36 5.66 -2 6 C-3.2065625 5.9690625 -3.2065625 5.9690625 -4.4375 5.9375 C-6.93354885 5.70366379 -6.93354885 5.70366379 -8 7 C-9.63472882 7.08700342 -11.27314055 7.10701063 -12.91015625 7.09765625 C-13.89951172 7.09443359 -14.88886719 7.09121094 -15.90820312 7.08789062 C-16.94912109 7.07951172 -17.99003906 7.07113281 -19.0625 7.0625 C-20.10728516 7.05798828 -21.15207031 7.05347656 -22.22851562 7.04882812 C-24.8190666 7.03699913 -27.40950559 7.02051689 -30 7 C-30 6.34 -30 5.68 -30 5 C-27.36 4.67 -24.72 4.34 -22 4 C-23.65 3.67 -25.3 3.34 -27 3 C-27 2.34 -27 1.68 -27 1 C-25.89140625 1.01160156 -24.7828125 1.02320312 -23.640625 1.03515625 C-22.17708502 1.04453792 -20.71354322 1.05363771 -19.25 1.0625 C-18.52039062 1.07087891 -17.79078125 1.07925781 -17.0390625 1.08789062 C-12.98064119 1.13397041 -12.98064119 1.13397041 -8.99121094 0.49780273 C-6.0004465 -0.24988838 -3.06624353 -0.05896622 0 0 Z " fill="#F5E417" transform="translate(82,77)"/>
<path d="M0 0 C3.63 0 7.26 0 11 0 C11 6.93 11 13.86 11 21 C14.3 21 17.6 21 21 21 C21 21.33 21 21.66 21 22 C17.37 22 13.74 22 10 22 C9.77213542 19.72135417 9.54427083 17.44270833 9.31640625 15.1640625 C9.10909886 12.95727195 9.10909886 12.95727195 8 11 C6.11235097 10.31527335 6.11235097 10.31527335 3.9375 9.875 C2.638125 9.58625 1.33875 9.2975 0 9 C0 6.03 0 3.06 0 0 Z " fill="#EDD645" transform="translate(95,20)"/>
<path d="M0 0 C1.45823212 -0.0270043 2.91660675 -0.04639787 4.375 -0.0625 C5.18710938 -0.07410156 5.99921875 -0.08570312 6.8359375 -0.09765625 C9 0 9 0 11 1 C11 1.66 11 2.32 11 3 C7.37 3 3.74 3 0 3 C0 6.3 0 9.6 0 13 C-3.63 13 -7.26 13 -11 13 C-11 12.01 -11 11.02 -11 10 C-11.66 9.67 -12.32 9.34 -13 9 C-12.34 8.67 -11.68 8.34 -11 8 C-10.34 8.33 -9.68 8.66 -9 9 C-9 7.68 -9 6.36 -9 5 C-7.875 3.25 -7.875 3.25 -6 2 C-2.8125 1.8125 -2.8125 1.8125 0 2 C0 1.34 0 0.68 0 0 Z " fill="#F8D229" transform="translate(95,103)"/>
<path d="M0 0 C0 6.93 0 13.86 0 21 C-3.63 21 -7.26 21 -11 21 C-11 20.34 -11 19.68 -11 19 C-10.195625 18.773125 -9.39125 18.54625 -8.5625 18.3125 C-5.79991995 17.27502068 -5.79991995 17.27502068 -5.25 14.75 C-5.1675 13.8425 -5.085 12.935 -5 12 C-4.814375 10.906875 -4.62875 9.81375 -4.4375 8.6875 C-4.293125 7.800625 -4.14875 6.91375 -4 6 C-4.99 6 -5.98 6 -7 6 C-7 5.01 -7 4.02 -7 3 C-2.77777778 0 -2.77777778 0 0 0 Z " fill="#A87102" transform="translate(63,106)"/>
<path d="M0 0 C3.63 0 7.26 0 11 0 C11 3.63 11 7.26 11 11 C7.37 11 3.74 11 0 11 C0 7.37 0 3.74 0 0 Z " fill="#E08D16" transform="translate(84,116)"/>
<path d="M0 0 C3.63 0 7.26 0 11 0 C9.1875 2 9.1875 2 7 4 C6.01 4 5.02 4 4 4 C4 4.99 4 5.98 4 7 C4.99 7 5.98 7 7 7 C7.19355538 11.16144068 7.12847118 14.35119226 5 18 C3.35 18.66 1.7 19.32 0 20 C0 13.4 0 6.8 0 0 Z " fill="#9B6727" transform="translate(52,105)"/>
<path d="M0 0 C0.66 0 1.32 0 2 0 C2 5.61 2 11.22 2 17 C10.25 17 18.5 17 27 17 C27 15.35 27 13.7 27 12 C28.32 11.67 29.64 11.34 31 11 C31 13.64 31 16.28 31 19 C20.77 19 10.54 19 0 19 C0 12.73 0 6.46 0 0 Z " fill="#AC7630" transform="translate(42,127)"/>
<path d="M0 0 C1.32 0 2.64 0 4 0 C4 6.6 4 13.2 4 20 C1.59454362 21.20272819 0.05003047 21.10071472 -2.625 21.0625 C-3.85089844 21.04896484 -3.85089844 21.04896484 -5.1015625 21.03515625 C-5.72804688 21.02355469 -6.35453125 21.01195313 -7 21 C-6.505 19.515 -6.505 19.515 -6 18 C-3.9375 17.3125 -3.9375 17.3125 -2 17 C-2 15.68 -2 14.36 -2 13 C-1.34 13 -0.68 13 0 13 C-0.08378906 12.39671875 -0.16757813 11.7934375 -0.25390625 11.171875 C-0.40666016 9.97304688 -0.40666016 9.97304688 -0.5625 8.75 C-0.66691406 7.96109375 -0.77132812 7.1721875 -0.87890625 6.359375 C-1.00027349 3.99467126 -0.69633257 2.2488963 0 0 Z " fill="#AA8418" transform="translate(91,20)"/>
<path d="M0 0 C2.31 0 4.62 0 7 0 C7 4.29 7 8.58 7 13 C6.34 13 5.68 13 5 13 C5 14.32 5 15.64 5 17 C3.35 17.66 1.7 18.32 0 19 C0 12.73 0 6.46 0 0 Z " fill="#AC6E16" transform="translate(84,20)"/>
<path d="M0 0 C1.37478516 0.01740234 1.37478516 0.01740234 2.77734375 0.03515625 C3.69644531 0.04417969 4.61554688 0.05320312 5.5625 0.0625 C6.27277344 0.07410156 6.98304688 0.08570312 7.71484375 0.09765625 C8.00055804 7.52622768 8.00055804 7.52622768 5.71484375 11.09765625 C3.07484375 11.09765625 0.43484375 11.09765625 -2.28515625 11.09765625 C-2.47922103 9.45258407 -2.6652356 7.80656031 -2.84765625 6.16015625 C-2.95207031 5.24363281 -3.05648437 4.32710938 -3.1640625 3.3828125 C-3.20402344 2.62871094 -3.24398437 1.87460938 -3.28515625 1.09765625 C-2.28515625 0.09765625 -2.28515625 0.09765625 0 0 Z " fill="#DE8A08" transform="translate(140.28515625,72.90234375)"/>
<path d="M0 0 C4.95 0.99 4.95 0.99 10 2 C10 5.3 10 8.6 10 12 C6.7 12 3.4 12 0 12 C0 8.04 0 4.08 0 0 Z " fill="#9F701B" transform="translate(127,93)"/>
<path d="M0 0 C0.33 0 0.66 0 1 0 C1.13548815 2.73083902 1.23429855 5.45491807 1.3125 8.1875 C1.35439453 8.95642578 1.39628906 9.72535156 1.43945312 10.51757812 C1.53290505 14.87243773 1.490055 16.42891842 -1.45703125 19.86328125 C-2.29621094 20.56839844 -3.13539062 21.27351563 -4 22 C-4.495 23.485 -4.495 23.485 -5 25 C-5.825 25.309375 -6.65 25.61875 -7.5 25.9375 C-8.325 26.288125 -9.15 26.63875 -10 27 C-10.81446109 29.00572641 -10.81446109 29.00572641 -11 31 C-12 32 -12 32 -15.60180664 32.11352539 C-17.20459856 32.11336625 -18.8073956 32.10767063 -20.41015625 32.09765625 C-21.25219101 32.0962413 -22.09422577 32.09482635 -22.96177673 32.09336853 C-25.66205335 32.08775263 -28.36224828 32.07519748 -31.0625 32.0625 C-32.88867068 32.05748705 -34.71484266 32.05292379 -36.54101562 32.04882812 C-41.02737542 32.03777804 -45.51367384 32.02050279 -50 32 C-50 31.67 -50 31.34 -50 31 C-48.96069336 30.99589111 -47.92138672 30.99178223 -46.85058594 30.98754883 C-42.98859295 30.96575026 -39.12761779 30.91145473 -35.26611328 30.84741211 C-33.59596524 30.82423812 -31.92567119 30.80983775 -30.25537109 30.80444336 C-27.85161421 30.79514864 -25.45015159 30.7541534 -23.046875 30.70703125 C-21.9294693 30.71293022 -21.9294693 30.71293022 -20.78948975 30.71894836 C-16.9637299 30.61165657 -15.34923263 30.34841733 -12.59472656 27.6003418 C-12.0684668 26.742229 -11.54220703 25.88411621 -11 25 C-9.4375 22.6875 -9.4375 22.6875 -8 21 C-7.01 21 -6.02 21 -5 21 C-5 20.34 -5 19.68 -5 19 C-4.35546875 18.45859375 -3.7109375 17.9171875 -3.046875 17.359375 C-0.28764352 14.17888681 -0.33376673 11.27841812 -0.25 7.25 C-0.20552734 6.20392578 -0.20552734 6.20392578 -0.16015625 5.13671875 C-0.08981542 3.42509187 -0.04260054 1.71254185 0 0 Z " fill="#F7FC7B" transform="translate(105,42)"/>
<path d="M0 0 C12.87 0 25.74 0 39 0 C38.67 0.66 38.34 1.32 38 2 C26.12 2 14.24 2 2 2 C2 6.29 2 10.58 2 15 C2.66 15 3.32 15 4 15 C4 15.66 4 16.32 4 17 C4.639375 17.28875 5.27875 17.5775 5.9375 17.875 C8 19 8 19 9 21 C6.03 21 3.06 21 0 21 C0 14.07 0 7.14 0 0 Z " fill="#9D6B2E" transform="translate(31,52)"/>
<path d="M0 0 C0.99 0 1.98 0 3 0 C2.7215625 0.8353125 2.7215625 0.8353125 2.4375 1.6875 C1.92448835 4.399133 2.3359276 6.34371039 3 9 C2.01 9.33 1.02 9.66 0 10 C0 9.01 0 8.02 0 7 C-10.56 7 -21.12 7 -32 7 C-32 6.34 -32 5.68 -32 5 C-31.16807129 4.970271 -31.16807129 4.970271 -30.31933594 4.93994141 C-27.79576307 4.84442349 -25.27298776 4.73485433 -22.75 4.625 C-21.87730469 4.5940625 -21.00460938 4.563125 -20.10546875 4.53125 C-19.26113281 4.49257813 -18.41679687 4.45390625 -17.546875 4.4140625 C-16.77182617 4.3826416 -15.99677734 4.3512207 -15.19824219 4.31884766 C-12.78425866 3.96870744 -11.15646054 3.1036785 -9 2 C-8.01 2 -7.02 2 -6 2 C-6 2.66 -6 3.32 -6 4 C-5.34 4 -4.68 4 -4 4 C-4 3.34 -4 2.68 -4 2 C-3.34 2 -2.68 2 -2 2 C-2 2.99 -2 3.98 -2 5 C-1.34 5 -0.68 5 0 5 C0 3.35 0 1.7 0 0 Z " fill="#C68609" transform="translate(159,56)"/>
<path d="M0 0 C2.64 0 5.28 0 8 0 C8 2.64 8 5.28 8 8 C5.69 8 3.38 8 1 8 C1.05800781 8.89203125 1.11601563 9.7840625 1.17578125 10.703125 C1.24345703 12.45882812 1.24345703 12.45882812 1.3125 14.25 C1.37050781 15.41015625 1.42851563 16.5703125 1.48828125 17.765625 C1 21 1 21 -1.51953125 23.421875 C-2.33808594 23.94265625 -3.15664062 24.4634375 -4 25 C-4.66 24.67 -5.32 24.34 -6 24 C-5.35708008 23.60578857 -4.71416016 23.21157715 -4.05175781 22.80541992 C-1.48334769 20.54537794 -1.41611267 19.47154923 -1.171875 16.11328125 C-1.09453125 15.17548828 -1.0171875 14.23769531 -0.9375 13.27148438 C-0.875625 12.29501953 -0.81375 11.31855469 -0.75 10.3125 C-0.67265625 9.32443359 -0.5953125 8.33636719 -0.515625 7.31835938 C-0.32712583 4.87965134 -0.15594824 2.44097027 0 0 Z " fill="#F6FB3A" transform="translate(108,42)"/>
<path d="M0 0 C3.3 0 6.6 0 10 0 C10.33 3.3 10.66 6.6 11 10 C7.37 10 3.74 10 0 10 C0 6.7 0 3.4 0 0 Z " fill="#A27A16" transform="translate(95,10)"/>
<path d="M0 0 C3.63 0 7.26 0 11 0 C11 3.63 11 7.26 11 11 C10.67 10.34 10.34 9.68 10 9 C6.7 9 3.4 9 0 9 C0 6.03 0 3.06 0 0 Z " fill="#BD6D01" transform="translate(95,116)"/>
<path d="M0 0 C1.87945312 0.08701172 1.87945312 0.08701172 3.796875 0.17578125 C5.06015625 0.22089844 6.3234375 0.26601563 7.625 0.3125 C8.58921875 0.37050781 9.5534375 0.42851563 10.546875 0.48828125 C10.546875 1.80828125 10.546875 3.12828125 10.546875 4.48828125 C11.206875 4.48828125 11.866875 4.48828125 12.546875 4.48828125 C12.876875 5.80828125 13.206875 7.12828125 13.546875 8.48828125 C12.556875 8.81828125 11.566875 9.14828125 10.546875 9.48828125 C10.876875 10.47828125 11.206875 11.46828125 11.546875 12.48828125 C11.216875 13.14828125 10.886875 13.80828125 10.546875 14.48828125 C9.226875 14.48828125 7.906875 14.48828125 6.546875 14.48828125 C7.421875 10.61328125 7.421875 10.61328125 8.546875 9.48828125 C8.36125 8.70453125 8.175625 7.92078125 7.984375 7.11328125 C7.546875 4.48828125 7.546875 4.48828125 9.546875 1.48828125 C8.556875 1.48828125 7.566875 1.48828125 6.546875 1.48828125 C6.546875 3.13828125 6.546875 4.78828125 6.546875 6.48828125 C5.886875 6.48828125 5.226875 6.48828125 4.546875 6.48828125 C4.546875 5.49828125 4.546875 4.50828125 4.546875 3.48828125 C3.886875 3.48828125 3.226875 3.48828125 2.546875 3.48828125 C2.546875 4.14828125 2.546875 4.80828125 2.546875 5.48828125 C1.886875 5.48828125 1.226875 5.48828125 0.546875 5.48828125 C0.216875 5.15828125 -0.113125 4.82828125 -0.453125 4.48828125 C-0.453125 4.81828125 -0.453125 5.14828125 -0.453125 5.48828125 C-2.763125 5.48828125 -5.073125 5.48828125 -7.453125 5.48828125 C-5.20937677 1.89035164 -4.29874807 0.60785465 0 0 Z " fill="#B56902" transform="translate(152.453125,54.51171875)"/>
<path d="M0 0 C3.3 0 6.6 0 10 0 C10 3.3 10 6.6 10 10 C6.7 10 3.4 10 0 10 C0 6.7 0 3.4 0 0 Z " fill="#F6CE40" transform="translate(138,127)"/>
<path d="M0 0 C3.3 0 6.6 0 10 0 C10 3.3 10 6.6 10 10 C6.7 10 3.4 10 0 10 C0 6.7 0 3.4 0 0 Z " fill="#AA6E0D" transform="translate(74,42)"/>
<path d="M0 0 C3.63 0 7.26 0 11 0 C11 2.97 11 5.94 11 9 C7.37 9 3.74 9 0 9 C0 6.03 0 3.06 0 0 Z " fill="#A36F26" transform="translate(52,84)"/>
<path d="M0 0 C0.99 0 1.98 0 3 0 C2.67 1.32 2.34 2.64 2 4 C1.34 4 0.68 4 0 4 C0 4.66 0 5.32 0 6 C1.65 6.33 3.3 6.66 5 7 C4.67 7.66 4.34 8.32 4 9 C4.39938767 11.09821215 4.39938767 11.09821215 5 13 C4.13375 13.12375 4.13375 13.12375 3.25 13.25 C0.38810912 14.20396363 -0.96380775 15.8233807 -3 18 C-3.33 18 -3.66 18 -4 18 C-4 13.38 -4 8.76 -4 4 C-2.68 3.34 -1.36 2.68 0 2 C0 1.34 0 0.68 0 0 Z " fill="#FDFA20" transform="translate(69,108)"/>
<path d="M0 0 C2.12508244 3.18762365 2.5020163 5.26512223 3 9 C5.64 9.66 8.28 10.32 11 11 C11 11.33 11 11.66 11 12 C7.7 12 4.4 12 1 12 C-0.60725635 8.78548731 -0.05748185 5.56387464 0 2 C-3.3 2 -6.6 2 -10 2 C-10 5.3 -10 8.6 -10 12 C-13.63 12 -17.26 12 -21 12 C-18.4345406 9.4345406 -16.52313332 9.45953913 -13 9 C-12.81824219 8.36191406 -12.63648437 7.72382813 -12.44921875 7.06640625 C-12.19785156 6.24011719 -11.94648437 5.41382813 -11.6875 4.5625 C-11.44386719 3.73878906 -11.20023438 2.91507813 -10.94921875 2.06640625 C-10.63597656 1.38449219 -10.32273437 0.70257813 -10 0 C-6.23918426 -1.25360525 -3.84551868 -0.83902226 0 0 Z " fill="#593519" transform="translate(105,8)"/>
<path d="M0 0 C0.33 0 0.66 0 1 0 C1 7.26 1 14.52 1 22 C-2.3 22 -5.6 22 -9 22 C-9 28.6 -9 35.2 -9 42 C-9.66 41.67 -10.32 41.34 -11 41 C-11.05390357 38.06225537 -11.0936255 35.12549768 -11.125 32.1875 C-11.14175781 31.35412109 -11.15851562 30.52074219 -11.17578125 29.66210938 C-11.18222656 28.85966797 -11.18867187 28.05722656 -11.1953125 27.23046875 C-11.20578613 26.49207764 -11.21625977 25.75368652 -11.22705078 24.99291992 C-11 23 -11 23 -9 20 C-6.37643538 19.01484622 -3.75475877 18.57761071 -1 18 C-1.01160156 17.03578125 -1.02320313 16.0715625 -1.03515625 15.078125 C-1.04417969 13.81484375 -1.05320312 12.5515625 -1.0625 11.25 C-1.07410156 9.99703125 -1.08570313 8.7440625 -1.09765625 7.453125 C-1.02021027 4.71463499 -0.82780815 2.58119707 0 0 Z " fill="#522707" transform="translate(51,105)"/>
<path d="M0 0 C3.3 0 6.6 0 10 0 C10 6.27 10 12.54 10 19 C9.34 19 8.68 19 8 19 C5.69856764 15.54785147 5.86166146 14.76520676 6.375 10.8125 C6.54128906 9.46091797 6.54128906 9.46091797 6.7109375 8.08203125 C6.85402344 7.05142578 6.85402344 7.05142578 7 6 C6.21625 5.938125 5.4325 5.87625 4.625 5.8125 C3.75875 5.544375 2.8925 5.27625 2 5 C0.6875 2.4375 0.6875 2.4375 0 0 Z " fill="#956630" transform="translate(106,20)"/>
<path d="M0 0 C3.3 0 6.6 0 10 0 C10 2.97 10 5.94 10 9 C6.7 9 3.4 9 0 9 C0 6.03 0 3.06 0 0 Z " fill="#A2641A" transform="translate(138,84)"/>
<path d="M0 0 C3.3 0 6.6 0 10 0 C10 2.97 10 5.94 10 9 C6.7 9 3.4 9 0 9 C0 6.03 0 3.06 0 0 Z " fill="#B58A20" transform="translate(42,73)"/>
<path d="M0 0 C2.97 0 5.94 0 9 0 C8.67 3.63 8.34 7.26 8 11 C5.36 11 2.72 11 0 11 C0 7.37 0 3.74 0 0 Z " fill="#FEEB32" transform="translate(127,114)"/>
<path d="M0 0 C0.66 0 1.32 0 2 0 C3.11823815 2.23647631 3.19396061 3.64891529 3.31640625 6.1328125 C3.37924805 7.34130859 3.37924805 7.34130859 3.44335938 8.57421875 C3.48267578 9.41597656 3.52199219 10.25773437 3.5625 11.125 C3.60568359 11.97449219 3.64886719 12.82398437 3.69335938 13.69921875 C3.79954236 15.79928223 3.90028497 17.89961948 4 20 C3.34 20 2.68 20 2 20 C1.67 21.32 1.34 22.64 1 24 C-0.98 24 -2.96 24 -5 24 C-5 23.67 -5 23.34 -5 23 C-6.98 22.67 -8.96 22.34 -11 22 C-11 21.67 -11 21.34 -11 21 C-7.37 21 -3.74 21 0 21 C0 14.07 0 7.14 0 0 Z " fill="#FEEE37" transform="translate(74,84)"/>
<path d="M0 0 C3.63 0 7.26 0 11 0 C11 3.63 11 7.26 11 11 C8.36 10.67 5.72 10.34 3 10 C2.92652344 9.04287109 2.92652344 9.04287109 2.8515625 8.06640625 C2.77679688 7.24011719 2.70203125 6.41382813 2.625 5.5625 C2.55539063 4.73878906 2.48578125 3.91507813 2.4140625 3.06640625 C2.27742188 2.38449219 2.14078125 1.70257813 2 1 C1.34 0.67 0.68 0.34 0 0 Z " fill="#FDF32F" transform="translate(116,52)"/>
<path d="M0 0 C1.65 0 3.3 0 5 0 C5 6.27 5 12.54 5 19 C-4.9 19 -14.8 19 -25 19 C-25 17.02 -25 15.04 -25 13 C-24.34 13 -23.68 13 -23 13 C-23 14.32 -23 15.64 -23 17 C-14.42 17 -5.84 17 3 17 C4.3 4.9 4.3 4.9 0 0 Z " fill="#A87438" transform="translate(152,127)"/>
<path d="M0 0 C0.66 0 1.32 0 2 0 C2 3.3 2 6.6 2 10 C5.14618209 9.85983833 8.29181816 9.71315095 11.4375 9.5625 C12.33533203 9.52318359 13.23316406 9.48386719 14.15820312 9.44335938 C15.43920898 9.38051758 15.43920898 9.38051758 16.74609375 9.31640625 C17.53685303 9.27974854 18.3276123 9.24309082 19.14233398 9.20532227 C21.01401441 9.19436743 21.01401441 9.19436743 22 8 C22.23075082 6.65252916 22.41153063 5.29622435 22.5625 3.9375 C22.706875 2.638125 22.85125 1.33875 23 0 C23.33 0 23.66 0 24 0 C24.02688151 1.64574566 24.04634123 3.29161413 24.0625 4.9375 C24.07410156 5.85402344 24.08570312 6.77054688 24.09765625 7.71484375 C24 10 24 10 23 11 C19.07628914 11.41282081 15.12826913 11.51714975 11.1875 11.6875 C10.08083984 11.74744141 8.97417969 11.80738281 7.83398438 11.86914062 C6.23586914 11.9397168 6.23586914 11.9397168 4.60546875 12.01171875 C3.62731201 12.05772217 2.64915527 12.10372559 1.64135742 12.15112305 C-1.1080222 11.9938196 -2.66623493 11.41365997 -5 10 C-5 9.34 -5 8.68 -5 8 C-4.34 8 -3.68 8 -3 8 C-2.67 6.02 -2.34 4.04 -2 2 C-1.34 2 -0.68 2 0 2 C0 1.34 0 0.68 0 0 Z " fill="#B17D09" transform="translate(50,127)"/>
<path d="M0 0 C10.23 0 20.46 0 31 0 C30.01 0.495 30.01 0.495 29 1 C29 1.99 29 2.98 29 4 C29.66 4 30.32 4 31 4 C31 4.66 31 5.32 31 6 C26.71 6 22.42 6 18 6 C17.67 5.34 17.34 4.68 17 4 C17.639375 3.87625 18.27875 3.7525 18.9375 3.625 C19.618125 3.41875 20.29875 3.2125 21 3 C21.33 2.34 21.66 1.68 22 1 C14.74 1 7.48 1 0 1 C0 0.67 0 0.34 0 0 Z " fill="#A86B16" transform="translate(36,54)"/>
<path d="M0 0 C0.66 0 1.32 0 2 0 C1.97711496 3.39730695 1.89969714 6.79128305 1.8125 10.1875 C1.80669922 11.14720703 1.80089844 12.10691406 1.79492188 13.09570312 C1.57103894 20.28483302 1.57103894 20.28483302 -1.4453125 24.0625 C-2.28835937 24.701875 -3.13140625 25.34125 -4 26 C-4.556875 26.598125 -5.11375 27.19625 -5.6875 27.8125 C-7 29 -7 29 -9 29 C-9 29.99 -9 30.98 -9 32 C-10.32 31.67 -11.64 31.34 -13 31 C-12.3125 29.125 -12.3125 29.125 -11 27 C-10.154375 26.67 -9.30875 26.34 -8.4375 26 C-7.633125 25.67 -6.82875 25.34 -6 25 C-5.39938767 23.09821215 -5.39938767 23.09821215 -5 21 C-4.34644531 20.47664063 -3.69289063 19.95328125 -3.01953125 19.4140625 C-0.07571997 15.89515462 -0.33135619 12.70979852 -0.25 8.25 C-0.22035156 7.45722656 -0.19070312 6.66445313 -0.16015625 5.84765625 C-0.08972213 3.89897906 -0.04256518 1.94948505 0 0 Z " fill="#F5FA43" transform="translate(106,42)"/>
<path d="M0 0 C0.66 0 1.32 0 2 0 C2 3.63 2 7.26 2 11 C-1.63 11 -5.26 11 -9 11 C-8.25 8.0625 -8.25 8.0625 -7 5 C-5.0625 4.375 -5.0625 4.375 -3 4 C-1.96854629 2.69084721 -0.96457834 1.35917857 0 0 Z " fill="#F5C931" transform="translate(82,116)"/>
<path d="M0 0 C3 1 3 1 4.1875 3.0625 C4.455625 3.701875 4.72375 4.34125 5 5 C5.33 4.01 5.66 3.02 6 2 C7.98 2 9.96 2 12 2 C12.04254356 3.99954746 12.04080783 6.00041636 12 8 C11 9 11 9 8.49609375 9.09765625 C6.98208984 9.08025391 6.98208984 9.08025391 5.4375 9.0625 C4.42558594 9.05347656 3.41367188 9.04445313 2.37109375 9.03515625 C1.58863281 9.02355469 0.80617188 9.01195313 0 9 C0 6.03 0 3.06 0 0 Z " fill="#E98B0E" transform="translate(106,116)"/>
<path d="M0 0 C0 0.66 0 1.32 0 2 C-0.66 2 -1.32 2 -2 2 C-2.33 4.31 -2.66 6.62 -3 9 C-4.8125 9.625 -4.8125 9.625 -7 10 C-7.99 9.34 -8.98 8.68 -10 8 C-10.33 9.32 -10.66 10.64 -11 12 C-11 8.37 -11 4.74 -11 1 C-9.55625 0.835 -8.1125 0.67 -6.625 0.5 C-5.81289062 0.4071875 -5.00078125 0.314375 -4.1640625 0.21875 C-2 0 -2 0 0 0 Z " fill="#EDDA44" transform="translate(95,40)"/>
<path d="M0 0 C0.33 0 0.66 0 1 0 C1 3.63 1 7.26 1 11 C-9.56 11 -20.12 11 -31 11 C-31 10.34 -31 9.68 -31 9 C-16.15 8.505 -16.15 8.505 -1 8 C-0.67 5.36 -0.34 2.72 0 0 Z " fill="#CCAB50" transform="translate(73,52)"/>
<path d="M0 0 C0.66 0 1.32 0 2 0 C3.57152719 3.14305438 3.14318589 6.491274 3.125 9.9375 C3.12886719 10.66646484 3.13273438 11.39542969 3.13671875 12.14648438 C3.1308304 15.35857736 3.02261853 17.9321444 2 21 C-1.63 21 -5.26 21 -9 21 C-9 20.34 -9 19.68 -9 19 C-6.03 19 -3.06 19 0 19 C0 12.73 0 6.46 0 0 Z " fill="#6A3B1D" transform="translate(168,52)"/>
<path d="M0 0 C5.61 0 11.22 0 17 0 C16.67 2.64 16.34 5.28 16 8 C13.36 8 10.72 8 8 8 C7.67 5.69 7.34 3.38 7 1 C4.69 1 2.38 1 0 1 C0 0.67 0 0.34 0 0 Z " fill="#FDDE3F" transform="translate(130,63)"/>
<path d="M0 0 C1.98 0 3.96 0 6 0 C6 0.66 6 1.32 6 2 C5.34 2 4.68 2 4 2 C3.67 3.98 3.34 5.96 3 8 C2.34 8 1.68 8 1 8 C1.33 8.66 1.66 9.32 2 10 C2.99 10.33 3.98 10.66 5 11 C5.33 12.98 5.66 14.96 6 17 C4.02 17 2.04 17 0 17 C0 11.39 0 5.78 0 0 Z " fill="#A36F29" transform="translate(44,127)"/>
<path d="M0 0 C1.20366211 0.00483398 1.20366211 0.00483398 2.43164062 0.00976562 C3.68170898 0.02233398 3.68170898 0.02233398 4.95703125 0.03515625 C5.80201172 0.03966797 6.64699219 0.04417969 7.51757812 0.04882812 C9.6015928 0.06060222 11.68557102 0.07853735 13.76953125 0.09765625 C13.43953125 1.08765625 13.10953125 2.07765625 12.76953125 3.09765625 C11.6609375 3.15824219 10.55234375 3.21882813 9.41015625 3.28125 C7.94660305 3.36568576 6.483062 3.45033224 5.01953125 3.53515625 C3.92511719 3.59413086 3.92511719 3.59413086 2.80859375 3.65429688 C-0.65776605 3.85912723 -3.88379901 4.18285645 -7.23046875 5.09765625 C-7.23046875 3.77765625 -7.23046875 2.45765625 -7.23046875 1.09765625 C-4.46481493 0.17577164 -2.84763173 -0.02019597 0 0 Z " fill="#B26C05" transform="translate(44.23046875,54.90234375)"/>
<path d="M0 0 C2.97 0 5.94 0 9 0 C9.02683436 3.31255326 9.0467578 6.62489183 9.0625 9.9375 C9.07087891 10.88302734 9.07925781 11.82855469 9.08789062 12.80273438 C9.09111328 13.70185547 9.09433594 14.60097656 9.09765625 15.52734375 C9.10289307 16.35999756 9.10812988 17.19265137 9.11352539 18.05053711 C9 20 9 20 8 21 C6.48071962 21.07179964 4.95832518 21.08392007 3.4375 21.0625 C2.61121094 21.05347656 1.78492188 21.04445313 0.93359375 21.03515625 C-0.02353516 21.01775391 -0.02353516 21.01775391 -1 21 C-1 20.34 -1 19.68 -1 19 C1.64 19 4.28 19 7 19 C7 13.72 7 8.44 7 3 C4.69 2.34 2.38 1.68 0 1 C0 0.67 0 0.34 0 0 Z " fill="#F7D135" transform="translate(128,106)"/>
<path d="M0 0 C0.66 0.33 1.32 0.66 2 1 C2.35018289 4.39807096 2.51074859 7.6129304 2 11 C-0.5625 13.125 -0.5625 13.125 -4 15 C-6.48084649 17.54521975 -8.74636003 20.25295956 -11 23 C-11.66 22.67 -12.32 22.34 -13 22 C-10.5632287 13.87174888 -10.5632287 13.87174888 -6.73046875 11.734375 C-4.25 10.9375 -4.25 10.9375 0 10 C0 6.7 0 3.4 0 0 Z " fill="#FBFCBE" transform="translate(95,40)"/>
<path d="M0 0 C0.99 0 1.98 0 3 0 C3.09765625 6.15234375 3.09765625 6.15234375 3 8 C2 9 2 9 0.05053711 9.11352539 C-0.7821167 9.10828857 -1.61477051 9.10305176 -2.47265625 9.09765625 C-3.37177734 9.09443359 -4.27089844 9.09121094 -5.19726562 9.08789062 C-6.14279297 9.07951172 -7.08832031 9.07113281 -8.0625 9.0625 C-9.01189453 9.05798828 -9.96128906 9.05347656 -10.93945312 9.04882812 C-13.29303065 9.0370011 -15.64648477 9.02052025 -18 9 C-18 8.67 -18 8.34 -18 8 C-13.05 8 -8.1 8 -3 8 C-3 7.34 -3 6.68 -3 6 C-3.66 6 -4.32 6 -5 6 C-5 5.01 -5 4.02 -5 3 C-3.35 2.67 -1.7 2.34 0 2 C0 1.34 0 0.68 0 0 Z " fill="#A47B1C" transform="translate(70,52)"/>
<path d="M0 0 C1.98 0 3.96 0 6 0 C6 3.3 6 6.6 6 10 C-0.93 10 -7.86 10 -15 10 C-15 9.34 -15 8.68 -15 8 C-8.73 8 -2.46 8 4 8 C4 6.02 4 4.04 4 2 C2.35 2 0.7 2 -1 2 C-0.67 1.34 -0.34 0.68 0 0 Z " fill="#7C5115" transform="translate(89,127)"/>
<path d="M0 0 C0.99 0.33 1.98 0.66 3 1 C3 2.32 3 3.64 3 5 C5.64 5.66 8.28 6.32 11 7 C11 7.33 11 7.66 11 8 C13.97 8.495 13.97 8.495 17 9 C17 9.33 17 9.66 17 10 C11.39 10 5.78 10 0 10 C0 6.7 0 3.4 0 0 Z " fill="#FCCE2E" transform="translate(106,106)"/>
<path d="M0 0 C2.64 0 5.28 0 8 0 C8 2.64 8 5.28 8 8 C5.36 8 2.72 8 0 8 C0 5.36 0 2.72 0 0 Z " fill="#AA7105" transform="translate(63,95)"/>
<path d="M0 0 C1.32 0 2.64 0 4 0 C3.67 2.64 3.34 5.28 3 8 C15.54 8 28.08 8 41 8 C40.67 8.66 40.34 9.32 40 10 C27.46 10 14.92 10 2 10 C1.34 6.7 0.68 3.4 0 0 Z " fill="#FCFE9C" transform="translate(50,63)"/>
<path d="M0 0 C2.64 0 5.28 0 8 0 C8 2.64 8 5.28 8 8 C5.36 8 2.72 8 0 8 C0 5.36 0 2.72 0 0 Z " fill="#F9EE49" transform="translate(74,52)"/>
<path d="M0 0 C1.32 0.33 2.64 0.66 4 1 C4 1.66 4 2.32 4 3 C4.99 3 5.98 3 7 3 C9.1875 4.875 9.1875 4.875 11 7 C11 7.66 11 8.32 11 9 C7.37 9 3.74 9 0 9 C0 6.03 0 3.06 0 0 Z " fill="#B08707" transform="translate(116,43)"/>
<path d="M0 0 C0.66 0 1.32 0 2 0 C2 6.93 2 13.86 2 21 C-1.63 21 -5.26 21 -9 21 C-9 20.34 -9 19.68 -9 19 C-6.03 19 -3.06 19 0 19 C0 12.73 0 6.46 0 0 Z " fill="#C09C08" transform="translate(61,106)"/>
<path d="M0 0 C1.98 0 3.96 0 6 0 C6 3.3 6 6.6 6 10 C4.02 10 2.04 10 0 10 C0 6.7 0 3.4 0 0 Z " fill="#DD891D" transform="translate(63,85)"/>
<path d="M0 0 C2.475 0.99 2.475 0.99 5 2 C4.67 4.31 4.34 6.62 4 9 C-3.63392857 12.48214286 -3.63392857 12.48214286 -8 11.1875 C-9.485 10.5996875 -9.485 10.5996875 -11 10 C-11 9.67 -11 9.34 -11 9 C-7.37 9 -3.74 9 0 9 C0 6.03 0 3.06 0 0 Z " fill="#B06E01" transform="translate(149,129)"/>
<path d="M0 0 C0.33 0 0.66 0 1 0 C1.9327418 4.099361 2.28825262 8.12043288 2.5625 12.3125 C2.64628906 13.56675781 2.73007813 14.82101563 2.81640625 16.11328125 C2.87699219 17.06589844 2.93757812 18.01851562 3 19 C4.134375 19.12375 5.26875 19.2475 6.4375 19.375 C8.2009375 19.684375 8.2009375 19.684375 10 20 C10.33 20.66 10.66 21.32 11 22 C7.37 22 3.74 22 0 22 C0 14.74 0 7.48 0 0 Z " fill="#411303" transform="translate(148,105)"/>
<path d="M0 0 C0.99 0 1.98 0 3 0 C3 6.27 3 12.54 3 19 C2.01 19 1.02 19 0 19 C0 12.73 0 6.46 0 0 Z " fill="#683A1E" transform="translate(157,127)"/>
<path d="M0 0 C2.29013653 3.4352048 2.17842973 4.985331 2 9 C2.66 9 3.32 9 4 9 C4 9.99 4 10.98 4 12 C3.34 12 2.68 12 2 12 C2 12.66 2 13.32 2 14 C3.32 14 4.64 14 6 14 C6 14.66 6 15.32 6 16 C4.68 16 3.36 16 2 16 C2 16.66 2 17.32 2 18 C0.35 18 -1.3 18 -3 18 C-2.34 17.67 -1.68 17.34 -1 17 C-0.67 11.39 -0.34 5.78 0 0 Z " fill="#FDF42E" transform="translate(123,96)"/>
<path d="M0 0 C2.97 0.33 5.94 0.66 9 1 C9.66 2.98 10.32 4.96 11 7 C9.1875 8.0625 9.1875 8.0625 7 9 C6.01 8.67 5.02 8.34 4 8 C4 6.68 4 5.36 4 4 C2.68 4 1.36 4 0 4 C0 2.68 0 1.36 0 0 Z " fill="#FCF22F" transform="translate(128,63)"/>
<path d="M0 0 C1.65322266 0.01740234 1.65322266 0.01740234 3.33984375 0.03515625 C4.99693359 0.04869141 4.99693359 0.04869141 6.6875 0.0625 C7.54214844 0.07410156 8.39679688 0.08570312 9.27734375 0.09765625 C9.27734375 2.07765625 9.27734375 4.05765625 9.27734375 6.09765625 C7.29734375 5.43765625 5.31734375 4.77765625 3.27734375 4.09765625 C2.94734375 4.75765625 2.61734375 5.41765625 2.27734375 6.09765625 C0.95734375 6.09765625 -0.36265625 6.09765625 -1.72265625 6.09765625 C-2.38265625 4.44765625 -3.04265625 2.79765625 -3.72265625 1.09765625 C-2.72265625 0.09765625 -2.72265625 0.09765625 0 0 Z " fill="#F5F20F" transform="translate(96.72265625,92.90234375)"/>
<path d="M0 0 C2.12401038 4.24802077 2.2376107 7.16761063 2.125 11.75 C2.11597656 12.44738281 2.10695313 13.14476562 2.09765625 13.86328125 C2.07419888 15.57566958 2.03833104 17.28788004 2 19 C3.11375 18.938125 4.2275 18.87625 5.375 18.8125 C7.169375 18.9053125 7.169375 18.9053125 9 19 C9.66 19.99 10.32 20.98 11 22 C7.37 21.67 3.74 21.34 0 21 C0 14.07 0 7.14 0 0 Z " fill="#471C07" transform="translate(116,20)"/>
<path d="M0 0 C0.33 0 0.66 0 1 0 C1.08714316 3.91652632 1.14043985 7.83280311 1.1875 11.75 C1.22520508 13.41675781 1.22520508 13.41675781 1.26367188 15.1171875 C1.27817383 16.72207031 1.27817383 16.72207031 1.29296875 18.359375 C1.31653442 19.83615723 1.31653442 19.83615723 1.34057617 21.34277344 C0.94609552 24.42057091 0.15156103 25.79384078 -2 28 C-2.66 28 -3.32 28 -4 28 C-4 28.66 -4 29.32 -4 30 C-4.598125 30.2475 -5.19625 30.495 -5.8125 30.75 C-8.28647521 32.16370012 -9.43370255 33.65055383 -11 36 C-11 34.02 -11 32.04 -11 30 C-10.44570312 29.74605469 -9.89140625 29.49210937 -9.3203125 29.23046875 C-8.59585938 28.88628906 -7.87140625 28.54210937 -7.125 28.1875 C-6.04605469 27.68283203 -6.04605469 27.68283203 -4.9453125 27.16796875 C-2.69457194 26.00532903 -2.69457194 26.00532903 -1 23 C-0.63303819 20.48497823 -0.63303819 20.48497823 -0.5859375 17.67578125 C-0.54726562 16.64775391 -0.50859375 15.61972656 -0.46875 14.56054688 C-0.42234375 12.95276367 -0.42234375 12.95276367 -0.375 11.3125 C-0.33632812 10.22904297 -0.29765625 9.14558594 -0.2578125 8.02929688 C-0.16349491 5.35303533 -0.07789995 2.67678157 0 0 Z " fill="#F8F7A0" transform="translate(104,33)"/>
<path d="M0 0 C0.433125 0.474375 0.86625 0.94875 1.3125 1.4375 C3.02309613 3.23686957 3.02309613 3.23686957 6 4 C6 4.66 6 5.32 6 6 C9.63 6 13.26 6 17 6 C17 6.66 17 7.32 17 8 C11.39 8 5.78 8 0 8 C0 5.36 0 2.72 0 0 Z " fill="#AB6E25" transform="translate(106,127)"/>
<path d="M0 0 C0.33 0 0.66 0 1 0 C1 3.63 1 7.26 1 11 C-3.29 11 -7.58 11 -12 11 C-12 12.32 -12 13.64 -12 15 C-12.99 15 -13.98 15 -15 15 C-15 14.34 -15 13.68 -15 13 C-16.98 12.34 -18.96 11.68 -21 11 C-21 10.67 -21 10.34 -21 10 C-14.07 10 -7.14 10 0 10 C0 6.7 0 3.4 0 0 Z " fill="#C07C11" transform="translate(148,127)"/>
<path d="M0 0 C0.99 0.33 1.98 0.66 3 1 C4.66362417 1.34820041 6.32995171 1.68404492 8 2 C8 2.66 8 3.32 8 4 C6.02 4.66 4.04 5.32 2 6 C2 7.32 2 8.64 2 10 C4.97 10.495 4.97 10.495 8 11 C8 11.33 8 11.66 8 12 C5.36 12 2.72 12 0 12 C0 8.04 0 4.08 0 0 Z " fill="#B37201" transform="translate(127,93)"/>
<path d="M0 0 C0.66 0 1.32 0 2 0 C2 1.98 2 3.96 2 6 C-3.94 6 -9.88 6 -16 6 C-15.34 4.68 -14.68 3.36 -14 2 C-13.01 2 -12.02 2 -11 2 C-11 2.66 -11 3.32 -11 4 C-7.37 4 -3.74 4 0 4 C0 2.68 0 1.36 0 0 Z " fill="#AB742A" transform="translate(91,129)"/>
<path d="M0 0 C3.3 0 6.6 0 10 0 C10 2.97 10 5.94 10 9 C9.34 9 8.68 9 8 9 C7.34 7.68 6.68 6.36 6 5 C5.01 5 4.02 5 3 5 C1.3125 2.5 1.3125 2.5 0 0 Z " fill="#A97503" transform="translate(53,84)"/>
<path d="M0 0 C0 2.31 0 4.62 0 7 C-2.31 7 -4.62 7 -7 7 C-7.33 5.35 -7.66 3.7 -8 2 C-4.91190305 0.23537317 -3.76687864 0 0 0 Z " fill="#FDF12F" transform="translate(63,127)"/>
<path d="M0 0 C3.3 0 6.6 0 10 0 C11.20272819 2.40545638 11.10071472 3.94996953 11.0625 6.625 C11.05347656 7.44226563 11.04445313 8.25953125 11.03515625 9.1015625 C11.02355469 9.72804687 11.01195313 10.35453125 11 11 C9 9 9 9 8.875 5.875 C8.91625 4.92625 8.9575 3.9775 9 3 C6.69 3 4.38 3 2 3 C1.67 5.64 1.34 8.28 1 11 C0.67 11 0.34 11 0 11 C0 7.37 0 3.74 0 0 Z " fill="#5C2D08" transform="translate(95,125)"/>
<path d="M0 0 C2.31 0 4.62 0 7 0 C7 3.63 7 7.26 7 11 C6.34 11 5.68 11 5 11 C5 10.34 5 9.68 5 9 C4.34 9 3.68 9 3 9 C2.67 6.69 2.34 4.38 2 2 C1.34 2 0.68 2 0 2 C0 1.34 0 0.68 0 0 Z " fill="#D8A403" transform="translate(120,116)"/>
<path d="M0 0 C-0.33 3.96 -0.66 7.92 -1 12 C-4 10.25 -4 10.25 -7 8 C-7 4 -7 4 -5.1875 1.75 C-3 0 -3 0 0 0 Z " fill="#A27807" transform="translate(42,61)"/>
<path d="M0 0 C0.66 0.33 1.32 0.66 2 1 C2.4140625 3.72265625 2.4140625 3.72265625 2.625 7.0625 C2.69976562 8.16722656 2.77453125 9.27195312 2.8515625 10.41015625 C2.90054688 11.26480469 2.94953125 12.11945313 3 13 C2.01 13.33 1.02 13.66 0 14 C-2.61382886 10.07925671 -2.29386386 6.55488983 -2 2 C-1.34 1.34 -0.68 0.68 0 0 Z " fill="#FDFB02" transform="translate(116,54)"/>
<path d="M0 0 C1.98 0.66 3.96 1.32 6 2 C6 2.99 6 3.98 6 5 C5.01 5 4.02 5 3 5 C3 5.66 3 6.32 3 7 C3.99 7 4.98 7 6 7 C6 7.99 6 8.98 6 10 C4.02 10 2.04 10 0 10 C0 6.7 0 3.4 0 0 Z " fill="#DD8D17" transform="translate(127,127)"/>
<path d="M0 0 C2 2 2 2 2.1953125 4.1640625 C2.16050781 5.38222656 2.16050781 5.38222656 2.125 6.625 C2.10695312 7.44226563 2.08890625 8.25953125 2.0703125 9.1015625 C2.04710937 9.72804688 2.02390625 10.35453125 2 11 C5.96 11.99 5.96 11.99 10 13 C10 13.66 10 14.32 10 15 C8.52093108 15.02689216 7.04172517 15.04634621 5.5625 15.0625 C4.32693359 15.07990234 4.32693359 15.07990234 3.06640625 15.09765625 C1 15 1 15 0 14 C-0.07271741 11.64686445 -0.08370868 9.29166332 -0.0625 6.9375 C-0.05347656 5.64714844 -0.04445312 4.35679688 -0.03515625 3.02734375 C-0.02355469 2.02832031 -0.01195312 1.02929688 0 0 Z " fill="#B18809" transform="translate(138,112)"/>
<path d="M0 0 C2.64 0 5.28 0 8 0 C8 6.27 8 12.54 8 19 C7.34 18.67 6.68 18.34 6 18 C6 13.05 6 8.1 6 3 C4.68 3.33 3.36 3.66 2 4 C1.34 2.68 0.68 1.36 0 0 Z " fill="#A37425" transform="translate(138,106)"/>
<path d="M0 0 C0.66 0 1.32 0 2 0 C2.13559675 2.56428515 2.23433188 5.12135216 2.3125 7.6875 C2.3753418 8.7693457 2.3753418 8.7693457 2.43945312 9.87304688 C2.53529445 14.07089699 2.33594622 15.56501436 -0.33203125 19.01953125 C-3 21 -3 21 -6 21 C-5.175 20.5875 -4.35 20.175 -3.5 19.75 C-0.48176926 16.42994619 -0.68571185 15.4180223 -0.75 11.0625 C-0.80671875 10.04285156 -0.8634375 9.02320313 -0.921875 7.97265625 C-0.99677882 5.12256585 -0.67085809 2.75966621 0 0 Z " fill="#FCFDC0" transform="translate(102,40)"/>
<path d="M0 0 C1.5625 1.6875 1.5625 1.6875 3 4 C2.6875 6.75 2.6875 6.75 2 9 C-0.31 9.33 -2.62 9.66 -5 10 C-5 9.34 -5 8.68 -5 8 C-4.34 8 -3.68 8 -3 8 C-3 6.68 -3 5.36 -3 4 C-2.67 3.01 -2.34 2.02 -2 1 C-1.34 0.67 -0.68 0.34 0 0 Z " fill="#FBFE0B" transform="translate(111,76)"/>
<path d="M0 0 C0.66 1.32 1.32 2.64 2 4 C5.04199472 5.29231642 5.04199472 5.29231642 8 6 C8 6.66 8 7.32 8 8 C11.63 8 15.26 8 19 8 C19 8.33 19 8.66 19 9 C12.73 9 6.46 9 0 9 C0 6.03 0 3.06 0 0 Z " fill="#AB7A00" transform="translate(127,52)"/>
<path d="M0 0 C2.64 0 5.28 0 8 0 C8 2.64 8 5.28 8 8 C7.01 8 6.02 8 5 8 C5 7.34 5 6.68 5 6 C4.34 6 3.68 6 3 6 C3 5.34 3 4.68 3 4 C2.34 4 1.68 4 1 4 C0.67 2.68 0.34 1.36 0 0 Z " fill="#F5EA34" transform="translate(108,42)"/>
<path d="M0 0 C0.99 0 1.98 0 3 0 C3 0.66 3 1.32 3 2 C5.64 2 8.28 2 11 2 C11 2.99 11 3.98 11 5 C12.65 4.67 14.3 4.34 16 4 C16 4.66 16 5.32 16 6 C12.37 6 8.74 6 5 6 C5 5.34 5 4.68 5 4 C4.360625 3.896875 3.72125 3.79375 3.0625 3.6875 C2.381875 3.460625 1.70125 3.23375 1 3 C0.67 2.01 0.34 1.02 0 0 Z " fill="#B06909" transform="translate(107,127)"/>
<path d="M0 0 C0.66 0 1.32 0 2 0 C2 3.63 2 7.26 2 11 C-0.97 11 -3.94 11 -7 11 C-6.01 10.01 -5.02 9.02 -4 8 C-3.01 8 -2.02 8 -1 8 C-1.020625 7.05125 -1.04125 6.1025 -1.0625 5.125 C-1 2 -1 2 0 0 Z " fill="#D2821F" transform="translate(136,84)"/>
<path d="M0 0 C2.64 0.33 5.28 0.66 8 1 C8 1.66 8 2.32 8 3 C7.34 3 6.68 3 6 3 C6 4.32 6 5.64 6 7 C4.02 7.33 2.04 7.66 0 8 C0 5.36 0 2.72 0 0 Z " fill="#F3E01F" transform="translate(63,126)"/>
<path d="M0 0 C3.63 0 7.26 0 11 0 C11.19610428 3.49970716 11.38212946 6.99947547 11.5625 10.5 C11.61857422 11.48226562 11.67464844 12.46453125 11.73242188 13.4765625 C12.01593713 19.14686761 11.90129458 24.39194484 11 30 C10.67 30 10.34 30 10 30 C9.08700453 23.35204039 9.01061845 17.12531102 9.4375 10.4375 C9.48970703 9.52419922 9.54191406 8.61089844 9.59570312 7.66992188 C9.7237698 5.44621865 9.86092615 3.22304196 10 1 C6.7 1 3.4 1 0 1 C0 0.67 0 0.34 0 0 Z " fill="#DAB126" transform="translate(127,105)"/>
<path d="M0 0 C0.66 0 1.32 0 2 0 C2 2.64 2 5.28 2 8 C-1.13498292 9.85776765 -3.37471432 10.20140476 -7 10 C-6.67 8.02 -6.34 6.04 -6 4 C-5.01 4 -4.02 4 -3 4 C-3 4.99 -3 5.98 -3 7 C-1.68 6.67 -0.36 6.34 1 6 C0.67 4.02 0.34 2.04 0 0 Z " fill="#DB8A1B" transform="translate(157,63)"/>
<path d="M0 0 C0.66 0 1.32 0 2 0 C2.06058594 1.20398438 2.12117188 2.40796875 2.18359375 3.6484375 C2.26799732 5.22397077 2.35264541 6.79949096 2.4375 8.375 C2.47681641 9.1690625 2.51613281 9.963125 2.55664062 10.78125 C2.68893404 15.02601221 2.68893404 15.02601221 4 19 C2.68 19 1.36 19 0 19 C0 12.73 0 6.46 0 0 Z " fill="#A6713F" transform="translate(42,127)"/>
<path d="M0 0 C0.66 1.32 1.32 2.64 2 4 C2.66 4.33 3.32 4.66 4 5 C3.67 9.29 3.34 13.58 3 18 C2.01 18.33 1.02 18.66 0 19 C0 12.73 0 6.46 0 0 Z " fill="#9A6327" transform="translate(84,20)"/>
<path d="M0 0 C2.97 0 5.94 0 9 0 C9 0.33 9 0.66 9 1 C6.69 1 4.38 1 2 1 C2 3.31 2 5.62 2 8 C4.64 8.33 7.28 8.66 10 9 C10 9.33 10 9.66 10 10 C6.7 10 3.4 10 0 10 C0 6.7 0 3.4 0 0 Z " fill="#491D04" transform="translate(137,95)"/>
<path d="M0 0 C1.65 0 3.3 0 5 0 C5 2.31 5 4.62 5 7 C3.0625 7.5625 3.0625 7.5625 1 8 C0 7 0 7 -0.0625 3.4375 C-0.041875 2.303125 -0.02125 1.16875 0 0 Z " fill="#D9910B" transform="translate(84,116)"/>
<path d="M0 0 C0.99 0 1.98 0 3 0 C3 0.99 3 1.98 3 3 C2.34 3 1.68 3 1 3 C0.67 4.32 0.34 5.64 0 7 C-1.98 7 -3.96 7 -6 7 C-6 6.67 -6 6.34 -6 6 C-8.97 5.505 -8.97 5.505 -12 5 C-12 4.67 -12 4.34 -12 4 C-8.37 4 -4.74 4 -1 4 C-0.67 2.68 -0.34 1.36 0 0 Z " fill="#F0E82E" transform="translate(75,101)"/>
<path d="M0 0 C3.63 0 7.26 0 11 0 C11 2.97 11 5.94 11 9 C9.68 9 8.36 9 7 9 C7.33 6.36 7.66 3.72 8 1 C5.36 1 2.72 1 0 1 C0 0.67 0 0.34 0 0 Z " fill="#F8DC3D" transform="translate(116,52)"/>
<path d="M0 0 C0.99 0.495 0.99 0.495 2 1 C2 2.98 2 4.96 2 7 C3.98 7 5.96 7 8 7 C8 7.66 8 8.32 8 9 C8.66 9 9.32 9 10 9 C9.67 10.32 9.34 11.64 9 13 C8.67 12.34 8.34 11.68 8 11 C6.11235097 10.31527335 6.11235097 10.31527335 3.9375 9.875 C2.638125 9.58625 1.33875 9.2975 0 9 C0 6.03 0 3.06 0 0 Z " fill="#FAED64" transform="translate(95,20)"/>
<path d="M0 0 C6.6 0 13.2 0 20 0 C20 3.63 20 7.26 20 11 C18 7 18 7 17 2 C11.39 1.67 5.78 1.34 0 1 C0 0.67 0 0.34 0 0 Z " fill="#532004" transform="translate(107,137)"/>
<path d="M0 0 C1.45823212 -0.0270043 2.91660675 -0.04639787 4.375 -0.0625 C5.18710938 -0.07410156 5.99921875 -0.08570312 6.8359375 -0.09765625 C9 0 9 0 11 1 C11 1.66 11 2.32 11 3 C7.37 3 3.74 3 0 3 C0 3.66 0 4.32 0 5 C-0.66 5 -1.32 5 -2 5 C-2 4.01 -2 3.02 -2 2 C-1.34 2 -0.68 2 0 2 C0 1.34 0 0.68 0 0 Z " fill="#EEBF1D" transform="translate(95,103)"/>
<path d="M0 0 C-0.875 5.75 -0.875 5.75 -2 8 C-3.98 8 -5.96 8 -8 8 C-6.68 7.67 -5.36 7.34 -4 7 C-4 6.01 -4 5.02 -4 4 C-4.99 3.67 -5.98 3.34 -7 3 C-4.49955934 -0.00052879 -4.2621484 0 0 0 Z " fill="#E18624" transform="translate(148,76)"/>
<path d="M0 0 C0.66 0 1.32 0 2 0 C1.67 6.93 1.34 13.86 1 21 C-0.65 21 -2.3 21 -4 21 C-3.51917969 20.52046875 -3.03835937 20.0409375 -2.54296875 19.546875 C-0.31687822 15.8724167 -0.43506856 12.4733624 -0.3125 8.25 C-0.27833984 7.45722656 -0.24417969 6.66445313 -0.20898438 5.84765625 C-0.12680896 3.89892496 -0.06171955 1.94948638 0 0 Z " fill="#F2F75A" transform="translate(106,42)"/>
<path d="M0 0 C1.32 0 2.64 0 4 0 C3.67 2.31 3.34 4.62 3 7 C1.68 7.33 0.36 7.66 -1 8 C-1.66 7.01 -2.32 6.02 -3 5 C-2.67 4.01 -2.34 3.02 -2 2 C-1.34 2 -0.68 2 0 2 C0 1.34 0 0.68 0 0 Z " fill="#EEF646" transform="translate(89,42)"/>
<path d="M0 0 C0.99 0 1.98 0 3 0 C3 1.32 3 2.64 3 4 C3.66 4 4.32 4 5 4 C4.67 5.32 4.34 6.64 4 8 C2.02 7.34 0.04 6.68 -2 6 C-1.125 1.125 -1.125 1.125 0 0 Z " fill="#F9E218" transform="translate(111,105)"/>
<path d="M0 0 C0.33 0.99 0.66 1.98 1 3 C0.071875 3.4021875 0.071875 3.4021875 -0.875 3.8125 C-3.2995233 4.95556848 -3.2995233 4.95556848 -5 8 C-5.66 8 -6.32 8 -7 8 C-7 5.69 -7 3.38 -7 1 C-3.535 0.505 -3.535 0.505 0 0 Z " fill="#C26F02" transform="translate(155,72)"/>
<path d="M0 0 C0.66 0 1.32 0 2 0 C2 3.3 2 6.6 2 10 C-1.3 10 -4.6 10 -8 10 C-8 9.34 -8 8.68 -8 8 C-5.36 8 -2.72 8 0 8 C0 5.36 0 2.72 0 0 Z " fill="#C29911" transform="translate(82,42)"/>
<path d="M0 0 C4.29 0 8.58 0 13 0 C13 0.66 13 1.32 13 2 C10.36 2 7.72 2 5 2 C4.67 3.32 4.34 4.64 4 6 C3.34 6 2.68 6 2 6 C2 4.35 2 2.7 2 1 C1.34 0.67 0.68 0.34 0 0 Z " fill="#E29000" transform="translate(107,116)"/>
<path d="M0 0 C1.49251706 2.98503412 2.60987721 5.61234773 3.625 8.75 C3.88539062 9.54921875 4.14578125 10.3484375 4.4140625 11.171875 C4.60742188 11.77515625 4.80078125 12.3784375 5 13 C3.35 13.33 1.7 13.66 0 14 C0 9.38 0 4.76 0 0 Z " fill="#F2E20F" transform="translate(117,88)"/>
<path d="M0 0 C0.66 0.33 1.32 0.66 2 1 C2 3.97 2 6.94 2 10 C-1.3 10 -4.6 10 -8 10 C-8 9.34 -8 8.68 -8 8 C-5.36 8 -2.72 8 0 8 C0 5.36 0 2.72 0 0 Z " fill="#B79807" transform="translate(71,95)"/>
<path d="M0 0 C0.33 0 0.66 0 1 0 C1 3.63 1 7.26 1 11 C-2.63 11 -6.26 11 -10 11 C-7.4345406 8.4345406 -5.52313332 8.45953913 -2 8 C-1.34 5.36 -0.68 2.72 0 0 Z " fill="#472202" transform="translate(94,9)"/>
<path d="M0 0 C0.33 0 0.66 0 1 0 C1.02688151 1.64574566 1.04634123 3.29161413 1.0625 4.9375 C1.07410156 5.85402344 1.08570312 6.77054688 1.09765625 7.71484375 C1 10 1 10 0 11 C-1.56172745 11.08685603 -3.12729344 11.10702219 -4.69140625 11.09765625 C-5.63564453 11.09443359 -6.57988281 11.09121094 -7.55273438 11.08789062 C-8.54595703 11.07951172 -9.53917969 11.07113281 -10.5625 11.0625 C-11.55958984 11.05798828 -12.55667969 11.05347656 -13.58398438 11.04882812 C-16.05604849 11.03700007 -18.52799518 11.02051849 -21 11 C-21 10.67 -21 10.34 -21 10 C-20.42967041 9.97494385 -19.85934082 9.9498877 -19.27172852 9.92407227 C-16.70173843 9.80843451 -14.13214473 9.68556376 -11.5625 9.5625 C-10.66466797 9.52318359 -9.76683594 9.48386719 -8.84179688 9.44335938 C-7.56079102 9.38051758 -7.56079102 9.38051758 -6.25390625 9.31640625 C-5.46314697 9.27974854 -4.6723877 9.24309082 -3.85766602 9.20532227 C-1.98598559 9.19436743 -1.98598559 9.19436743 -1 8 C-0.76924918 6.65252916 -0.58846937 5.29622435 -0.4375 3.9375 C-0.293125 2.638125 -0.14875 1.33875 0 0 Z " fill="#C79809" transform="translate(73,127)"/>
<path d="M0 0 C0 0.66 0 1.32 0 2 C0.66 2.33 1.32 2.66 2 3 C-0.97851562 3.34179688 -0.97851562 3.34179688 -3.95703125 3.68359375 C-6.19396393 3.97170735 -6.19396393 3.97170735 -9 5 C-9 3.68 -9 2.36 -9 1 C-5.8035914 -0.06546953 -3.34252724 -0.07427838 0 0 Z " fill="#B66D12" transform="translate(46,55)"/>
<path d="M0 0 C0.99 0.495 0.99 0.495 2 1 C2 1.66 2 2.32 2 3 C3.32 3.33 4.64 3.66 6 4 C6 5.32 6 6.64 6 8 C4.02 8 2.04 8 0 8 C0 5.36 0 2.72 0 0 Z " fill="#A97402" transform="translate(106,22)"/>
<path d="M0 0 C0.78375 0.04125 1.5675 0.0825 2.375 0.125 C2.705 0.785 3.035 1.445 3.375 2.125 C2.055 2.455 0.735 2.785 -0.625 3.125 C-0.625 4.445 -0.625 5.765 -0.625 7.125 C-1.945 7.125 -3.265 7.125 -4.625 7.125 C-4.75 4.75 -4.75 4.75 -4.625 2.125 C-2.625 0.125 -2.625 0.125 0 0 Z " fill="#F5E915" transform="translate(86.625,104.875)"/>
<path d="M0 0 C0.33 0.99 0.66 1.98 1 3 C1.99 3.33 2.98 3.66 4 4 C3.67 4.66 3.34 5.32 3 6 C5.97 6.33 8.94 6.66 12 7 C12 7.33 12 7.66 12 8 C8.04 8 4.08 8 0 8 C0 5.36 0 2.72 0 0 Z " fill="#FBE639" transform="translate(52,74)"/>
<path d="M0 0 C-1.1875 2.4375 -1.1875 2.4375 -3 5 C-5.6875 5.8125 -5.6875 5.8125 -8 6 C-7.625 3.5625 -7.625 3.5625 -7 1 C-4.53721199 -0.231394 -2.7204945 -0.07159196 0 0 Z " fill="#F3E217" transform="translate(82,116)"/>
<path d="M0 0 C2.97 0 5.94 0 9 0 C9.33 0.66 9.66 1.32 10 2 C7.29120665 3.35439668 4.99066732 3.06501451 2 3 C1.67 4.65 1.34 6.3 1 8 C-0.0625 6.25 -0.0625 6.25 -1 4 C-0.67 2.68 -0.34 1.36 0 0 Z " fill="#EFE714" transform="translate(117,73)"/>
<path d="M0 0 C2.64 0 5.28 0 8 0 C8 1.98 8 3.96 8 6 C7.67 4.68 7.34 3.36 7 2 C5.35 2 3.7 2 2 2 C2 3.98 2 5.96 2 8 C1.34 8 0.68 8 0 8 C0 5.36 0 2.72 0 0 Z " fill="#9E783C" transform="translate(95,10)"/>
<path d="M0 0 C0.66 0 1.32 0 2 0 C2 3.3 2 6.6 2 10 C-1.63 10 -5.26 10 -9 10 C-6.23776722 7.23776722 -3.79293383 7.42143709 0 7 C0 4.69 0 2.38 0 0 Z " fill="#492402" transform="translate(61,95)"/>
<path d="M0 0 C0.33 0 0.66 0 1 0 C1 3.3 1 6.6 1 10 C-1.64 10 -4.28 10 -7 10 C-7 9.34 -7 8.68 -7 8 C-5.02 8 -3.04 8 -1 8 C-1.020625 6.865625 -1.04125 5.73125 -1.0625 4.5625 C-1 1 -1 1 0 0 Z " fill="#FBC031" transform="translate(147,63)"/>
<path d="M0 0 C2.31 0 4.62 0 7 0 C4 2 4 2 2 3 C1.67 8.61 1.34 14.22 1 20 C0.67 20 0.34 20 0 20 C0 13.4 0 6.8 0 0 Z " fill="#FEEB4C" transform="translate(63,106)"/>
<path d="M0 0 C2.475 0.99 2.475 0.99 5 2 C5 2.66 5 3.32 5 4 C4.04287109 4.07347656 4.04287109 4.07347656 3.06640625 4.1484375 C2.24011719 4.22320312 1.41382812 4.29796875 0.5625 4.375 C-0.26121094 4.44460937 -1.08492188 4.51421875 -1.93359375 4.5859375 C-2.95646484 4.79089844 -2.95646484 4.79089844 -4 5 C-4.33 5.66 -4.66 6.32 -5 7 C-5 5.68 -5 4.36 -5 3 C-3.68 3 -2.36 3 -1 3 C-0.67 2.01 -0.34 1.02 0 0 Z " fill="#F7E21E" transform="translate(100,96)"/>
<path d="M0 0 C1.98 0 3.96 0 6 0 C6 0.66 6 1.32 6 2 C4.68 2 3.36 2 2 2 C2 2.66 2 3.32 2 4 C-2.29 3.67 -6.58 3.34 -11 3 C-11 2.67 -11 2.34 -11 2 C-7.37 2 -3.74 2 0 2 C0 1.34 0 0.68 0 0 Z " fill="#F5DB17" transform="translate(125,112)"/>
<path d="M0 0 C1.98 0 3.96 0 6 0 C5.65120368 3.25543229 4.97866739 4.01873107 2.4375 6.25 C1.633125 6.8275 0.82875 7.405 0 8 C0 5.36 0 2.72 0 0 Z " fill="#BB6705" transform="translate(138,84)"/>
<path d="M0 0 C1.98 0 3.96 0 6 0 C5.34 1.32 4.68 2.64 4 4 C3.01 4 2.02 4 1 4 C1 6.64 1 9.28 1 12 C0.67 12 0.34 12 0 12 C0 8.04 0 4.08 0 0 Z " fill="#A66E3A" transform="translate(85,20)"/>
<path d="M0 0 C0.66 0 1.32 0 2 0 C2 2.64 2 5.28 2 8 C0.68 8 -0.64 8 -2 8 C-2 6.02 -2 4.04 -2 2 C-1.34 2 -0.68 2 0 2 C0 1.34 0 0.68 0 0 Z " fill="#F4D646" transform="translate(71,127)"/>
<path d="M0 0 C-0.33 1.32 -0.66 2.64 -1 4 C-1 3.34 -1 2.68 -1 2 C-4.3 2 -7.6 2 -11 2 C-8.74490247 -2.51019507 -4.15738698 -0.70597137 0 0 Z " fill="#B06D1D" transform="translate(106,123)"/>
<path d="M0 0 C0.99 0.33 1.98 0.66 3 1 C3 2.98 3 4.96 3 7 C0.03 7 -2.94 7 -6 7 C-4.68 6.34 -3.36 5.68 -2 5 C-0.71745356 2.46229997 -0.71745356 2.46229997 0 0 Z " fill="#FECE3C" transform="translate(92,107)"/>
<path d="M0 0 C0.33 0 0.66 0 1 0 C1 2.97 1 5.94 1 9 C-0.98 9 -2.96 9 -5 9 C-4.01 7.02 -3.02 5.04 -2 3 C-1.34 3 -0.68 3 0 3 C0 2.01 0 1.02 0 0 Z " fill="#FEEF2A" transform="translate(94,96)"/>
<path d="M0 0 C2.66666667 0.66666667 5.33333333 1.33333333 8 2 C8 2.99 8 3.98 8 5 C5.69 5 3.38 5 1 5 C0.67 3.35 0.34 1.7 0 0 Z " fill="#FCF427" transform="translate(76,111)"/>
<path d="M0 0 C0.33 1.32 0.66 2.64 1 4 C-1.97 4 -4.94 4 -8 4 C-8 4.66 -8 5.32 -8 6 C-8.66 6 -9.32 6 -10 6 C-9.67 4.68 -9.34 3.36 -9 2 C-6.94921875 1.77213542 -4.8984375 1.54427083 -2.84765625 1.31640625 C-0.98859771 1.18113386 -0.98859771 1.18113386 0 0 Z " fill="#B17534" transform="translate(156,78)"/>
<path d="M0 0 C2.64 0 5.28 0 8 0 C8 0.66 8 1.32 8 2 C6.576875 2.37125 6.576875 2.37125 5.125 2.75 C1.91306809 3.6857077 1.91306809 3.6857077 0.625 6.125 C0.41875 6.74375 0.2125 7.3625 0 8 C0 5.36 0 2.72 0 0 Z " fill="#FDE750" transform="translate(42,63)"/>
<path d="M0 0 C0.99 0 1.98 0 3 0 C3 1.65 3 3.3 3 5 C-0.3 5 -3.6 5 -7 5 C-7 4.34 -7 3.68 -7 3 C-4.36 3 -1.72 3 1 3 C0.67 2.01 0.34 1.02 0 0 Z " fill="#D1801F" transform="translate(92,122)"/>
<path d="M0 0 C2.29013653 3.4352048 2.17842973 4.985331 2 9 C2.66 9 3.32 9 4 9 C4 9.99 4 10.98 4 12 C2.68 11.67 1.36 11.34 0 11 C0 7.37 0 3.74 0 0 Z " fill="#FAE93F" transform="translate(123,96)"/>
<path d="M0 0 C1.37478516 0.01740234 1.37478516 0.01740234 2.77734375 0.03515625 C3.69644531 0.04417969 4.61554688 0.05320312 5.5625 0.0625 C6.27277344 0.07410156 6.98304688 0.08570312 7.71484375 0.09765625 C5.523165 1.21681135 3.39332275 2.22014044 1.08984375 3.09765625 C-1.41592392 3.97689266 -1.41592392 3.97689266 -3.28515625 6.09765625 C-3.32787725 4.4315372 -3.32579457 2.7638274 -3.28515625 1.09765625 C-2.28515625 0.09765625 -2.28515625 0.09765625 0 0 Z " fill="#DEA107" transform="translate(140.28515625,72.90234375)"/>
<path d="M0 0 C0.99 0 1.98 0 3 0 C4.23076923 5.41538462 4.23076923 5.41538462 3.0625 8.375 C2.711875 8.91125 2.36125 9.4475 2 10 C1.34 10 0.68 10 0 10 C0 6.7 0 3.4 0 0 Z " fill="#E29507" transform="translate(148,63)"/>
<path d="M0 0 C0.33 0 0.66 0 1 0 C1.33 1.98 1.66 3.96 2 6 C5.96 6.99 5.96 6.99 10 8 C10 8.33 10 8.66 10 9 C6.7 9 3.4 9 0 9 C0 6.03 0 3.06 0 0 Z " fill="#451C07" transform="translate(106,11)"/>
<path d="M0 0 C1.32 0.33 2.64 0.66 4 1 C4.33 2.98 4.66 4.96 5 7 C3.68 7 2.36 7 1 7 C0.67 4.69 0.34 2.38 0 0 Z " fill="#AF6B19" transform="translate(45,137)"/>
<path d="M0 0 C1.98 0 3.96 0 6 0 C6 2.64 6 5.28 6 8 C5.34 8 4.68 8 4 8 C4 6.02 4 4.04 4 2 C2.35 2 0.7 2 -1 2 C-0.67 1.34 -0.34 0.68 0 0 Z " fill="#995A1E" transform="translate(89,127)"/>
<path d="M0 0 C2.64 0 5.28 0 8 0 C8 1.65 8 3.3 8 5 C7.67 4.34 7.34 3.68 7 3 C6.01 3 5.02 3 4 3 C3.67 3.66 3.34 4.32 3 5 C2.01 3.35 1.02 1.7 0 0 Z " fill="#A37A02" transform="translate(42,74)"/>
<path d="M0 0 C1.32 0 2.64 0 4 0 C3.96744792 2.01822917 3.93489583 4.03645833 3.90234375 6.0546875 C3.87350758 8.08185404 3.87350758 8.08185404 5 10 C4.01 10 3.02 10 2 10 C1.34 6.7 0.68 3.4 0 0 Z " fill="#FCF781" transform="translate(50,63)"/>
<path d="M0 0 C2.64 0 5.28 0 8 0 C8 2.97 8 5.94 8 9 C7.34 9 6.68 9 6 9 C5.67 6.69 5.34 4.38 5 2 C3.35 1.67 1.7 1.34 0 1 C0 0.67 0 0.34 0 0 Z " fill="#F4D944" transform="translate(97,20)"/>
<path d="M0 0 C0 2.64 0 5.28 0 8 C-0.33 7.34 -0.66 6.68 -1 6 C-1.99 6 -2.98 6 -4 6 C-4 4.35 -4 2.7 -4 1 C-2 0 -2 0 0 0 Z " fill="#94662C" transform="translate(73,138)"/>
<path d="M0 0 C0 0.33 0 0.66 0 1 C-3.63 1 -7.26 1 -11 1 C-11 0.34 -11 -0.32 -11 -1 C-6.99799622 -2.60080151 -3.95443764 -1.29279692 0 0 Z " fill="#552E08" transform="translate(159,126)"/>
<path d="M0 0 C2.0625 0.4375 2.0625 0.4375 4 1 C3.67 1.99 3.34 2.98 3 4 C0.4375 5.1875 0.4375 5.1875 -2 6 C-1.125 1.125 -1.125 1.125 0 0 Z " fill="#EDF264" transform="translate(97,63)"/>
<path d="M0 0 C2.97 0 5.94 0 9 0 C8.01 0.66 7.02 1.32 6 2 C6.33 2.99 6.66 3.98 7 5 C6.01 5 5.02 5 4 5 C4 4.34 4 3.68 4 3 C2.68 2.67 1.36 2.34 0 2 C0 1.34 0 0.68 0 0 Z " fill="#99691D" transform="translate(116,41)"/>
<path d="M0 0 C0.33 0 0.66 0 1 0 C1.33 1.98 1.66 3.96 2 6 C3.98 6.66 5.96 7.32 8 8 C8 8.33 8 8.66 8 9 C5.36 9 2.72 9 0 9 C0 6.03 0 3.06 0 0 Z " fill="#E58D20" transform="translate(106,116)"/>
<path d="M0 0 C1.65 0 3.3 0 5 0 C5.33 1.32 5.66 2.64 6 4 C4.02 4 2.04 4 0 4 C0 2.68 0 1.36 0 0 Z " fill="#D98F10" transform="translate(97,108)"/>
<path d="M0 0 C1.32 0 2.64 0 4 0 C4 2.97 4 5.94 4 9 C3.34 9 2.68 9 2 9 C1.20046862 5.71303767 0.90341064 4.28976808 2 1 C1.34 0.67 0.68 0.34 0 0 Z " fill="#BC750B" transform="translate(59,84)"/>
<path d="M0 0 C2.64 0 5.28 0 8 0 C8 0.33 8 0.66 8 1 C6.35 1.33 4.7 1.66 3 2 C2.34 3.98 1.68 5.96 1 8 C0.67 8 0.34 8 0 8 C0 5.36 0 2.72 0 0 Z " fill="#A26D33" transform="translate(74,42)"/>
<path d="M0 0 C0 0.99 0 1.98 0 3 C-3.3 3 -6.6 3 -10 3 C-10 2.34 -10 1.68 -10 1 C-2.25 0 -2.25 0 0 0 Z " fill="#723D0E" transform="translate(84,39)"/>
<path d="M0 0 C2.64 0.33 5.28 0.66 8 1 C8 1.99 8 2.98 8 4 C5.36 4 2.72 4 0 4 C0 2.68 0 1.36 0 0 Z " fill="#FEF697" transform="translate(95,29)"/>
<path d="M0 0 C1.32 0 2.64 0 4 0 C4 0.66 4 1.32 4 2 C4.66 2 5.32 2 6 2 C5.67 3.32 5.34 4.64 5 6 C4.01 5.67 3.02 5.34 2 5 C0.8125 2.4375 0.8125 2.4375 0 0 Z " fill="#9D7120" transform="translate(106,20)"/>
<path d="M0 0 C2.64 0 5.28 0 8 0 C7.360625 0.28875 6.72125 0.5775 6.0625 0.875 C3.84793921 1.82823451 3.84793921 1.82823451 3 4 C1.68 4 0.36 4 -1 4 C-0.67 2.68 -0.34 1.36 0 0 Z " fill="#F0E502" transform="translate(96,95)"/>
<path d="M0 0 C2 1.3125 2 1.3125 4 3 C4 3.99 4 4.98 4 6 C3.01 6 2.02 6 1 6 C0.67 6.99 0.34 7.98 0 9 C0 6.03 0 3.06 0 0 Z " fill="#956C22" transform="translate(52,84)"/>
<path d="M0 0 C0.99 0.33 1.98 0.66 3 1 C3.6875 3.0625 3.6875 3.0625 4 5 C2.35 5 0.7 5 -1 5 C-0.67 3.35 -0.34 1.7 0 0 Z " fill="#FCF23C" transform="translate(44,66)"/>
<path d="M0 0 C2.125 0.375 2.125 0.375 4 1 C3.34 1 2.68 1 2 1 C1.731875 1.598125 1.46375 2.19625 1.1875 2.8125 C0.01506533 4.97224808 -1.19369282 6.35790256 -3 8 C-2.25 2.25 -2.25 2.25 0 0 Z " fill="#FBFEA9" transform="translate(87,52)"/>
<path d="M0 0 C-0.66 0.66 -1.32 1.32 -2 2 C-2.99 2 -3.98 2 -5 2 C-5 2.99 -5 3.98 -5 5 C-5.66 5 -6.32 5 -7 5 C-6.625 2.5625 -6.625 2.5625 -6 0 C-3.50907189 -1.24546405 -2.58919267 -0.7767578 0 0 Z " fill="#A0711D" transform="translate(61,107)"/>
<path d="M0 0 C0 0.66 0 1.32 0 2 C-0.99 2.495 -0.99 2.495 -2 3 C-2.65555119 5.52733235 -2.65555119 5.52733235 -3 8 C-3.66 7.67 -4.32 7.34 -5 7 C-5 5.02 -5 3.04 -5 1 C-3 0 -3 0 0 0 Z " fill="#F1D220" transform="translate(140,71)"/>
<path d="M0 0 C0.99 0 1.98 0 3 0 C3.33 1.98 3.66 3.96 4 6 C2.68 6 1.36 6 0 6 C0 4.02 0 2.04 0 0 Z " fill="#D29903" transform="translate(84,116)"/>
<path d="M0 0 C0 1.98 0 3.96 0 6 C-1.32 6 -2.64 6 -4 6 C-4 4.68 -4 3.36 -4 2 C-1 0 -1 0 0 0 Z " fill="#9E7106" transform="translate(133,97)"/>
<path d="M0 0 C2 3 2 3 2 5 C4.97 5.495 4.97 5.495 8 6 C8 6.33 8 6.66 8 7 C5.36 7 2.72 7 0 7 C0 4.69 0 2.38 0 0 Z " fill="#B19305" transform="translate(127,98)"/>
<path d="M0 0 C0.66 0 1.32 0 2 0 C4 3 4 3 4 6 C3.01 6 2.02 6 1 6 C0.67 6.66 0.34 7.32 0 8 C0 5.36 0 2.72 0 0 Z " fill="#AE6F1F" transform="translate(63,95)"/>
<path d="M0 0 C1.32 0 2.64 0 4 0 C4 0.99 4 1.98 4 3 C4.66 3.33 5.32 3.66 6 4 C4.02 4.33 2.04 4.66 0 5 C0 3.35 0 1.7 0 0 Z " fill="#E09317" transform="translate(129,88)"/>
<path d="M0 0 C0.66 0 1.32 0 2 0 C2 0.99 2 1.98 2 3 C3.32 3.66 4.64 4.32 6 5 C3.69 5.33 1.38 5.66 -1 6 C-0.67 4.02 -0.34 2.04 0 0 Z " fill="#DB870C" transform="translate(151,67)"/>
<path d="M0 0 C0.66 0 1.32 0 2 0 C2 1.98 2 3.96 2 6 C0.35 6 -1.3 6 -3 6 C-2.01 4.02 -1.02 2.04 0 0 Z " fill="#FED23C" transform="translate(144,65)"/>
<path d="M0 0 C2.64 0 5.28 0 8 0 C8 1.32 8 2.64 8 4 C7.01 4 6.02 4 5 4 C4.67 3.34 4.34 2.68 4 2 C2.68 2 1.36 2 0 2 C0 1.34 0 0.68 0 0 Z " fill="#F9E04A" transform="translate(108,42)"/>
<path d="M0 0 C1.65 0 3.3 0 5 0 C5 1.32 5 2.64 5 4 C3.68 4 2.36 4 1 4 C0.67 2.68 0.34 1.36 0 0 Z " fill="#A86F16" transform="translate(64,140)"/>
<path d="M0 0 C0.66 0 1.32 0 2 0 C2.33 0.66 2.66 1.32 3 2 C4.89533342 2.46523063 4.89533342 2.46523063 7.0625 2.625 C8.361875 2.74875 9.66125 2.8725 11 3 C11 3.33 11 3.66 11 4 C7.37 4 3.74 4 0 4 C0 2.68 0 1.36 0 0 Z " fill="#A47339" transform="translate(106,131)"/>
<path d="M0 0 C0.66 0 1.32 0 2 0 C3.4783226 2.95664519 3.06032783 5.74229737 3 9 C2.34 8.67 1.68 8.34 1 8 C0.40644386 5.35139573 0.25790731 2.70802678 0 0 Z " fill="#FEEC26" transform="translate(74,84)"/>
<path d="M0 0 C1.65 0 3.3 0 5 0 C5.33 1.65 5.66 3.3 6 5 C5.34 5 4.68 5 4 5 C4 4.34 4 3.68 4 3 C2.68 3 1.36 3 0 3 C0 2.01 0 1.02 0 0 Z " fill="#A97116" transform="translate(44,77)"/>
<path d="M0 0 C2.31 0 4.62 0 7 0 C7.33 0.99 7.66 1.98 8 3 C5.36 2.67 2.72 2.34 0 2 C0 1.34 0 0.68 0 0 Z " fill="#FCF419" transform="translate(55,78)"/>
<path d="M0 0 C1.32 0 2.64 0 4 0 C3.6875 1.875 3.6875 1.875 3 4 C2.01 4.66 1.02 5.32 0 6 C0 4.02 0 2.04 0 0 Z " fill="#F2E01C" transform="translate(129,73)"/>
<path d="M0 0 C1.32 0 2.64 0 4 0 C2.25 4.875 2.25 4.875 0 6 C0 4.02 0 2.04 0 0 Z " fill="#A47102" transform="translate(74,129)"/>
<path d="M0 0 C0.33 0 0.66 0 1 0 C1 3.3 1 6.6 1 10 C-0.65 10.33 -2.3 10.66 -4 11 C-3.525625 10.67 -3.05125 10.34 -2.5625 10 C-0.14208385 6.90186733 -0.31801083 3.87973208 0 0 Z " fill="#C49C2D" transform="translate(73,127)"/>
<path d="M0 0 C0.99 0.33 1.98 0.66 3 1 C2.67 2.98 2.34 4.96 2 7 C1.34 7 0.68 7 0 7 C0 4.69 0 2.38 0 0 Z " fill="#A47316" transform="translate(45,128)"/>
<path d="M0 0 C0.99 0 1.98 0 3 0 C3 1.65 3 3.3 3 5 C1.02 5.99 1.02 5.99 -1 7 C-0.67 4.69 -0.34 2.38 0 0 Z " fill="#A2711C" transform="translate(54,118)"/>
<path d="M0 0 C1.98 0 3.96 0 6 0 C5.01 0.495 5.01 0.495 4 1 C4 1.66 4 2.32 4 3 C2.02 3.99 2.02 3.99 0 5 C-0.33 4.01 -0.66 3.02 -1 2 C-0.67 1.34 -0.34 0.68 0 0 Z " fill="#F5F10F" transform="translate(73,114)"/>
<path d="M0 0 C0.33 0 0.66 0 1 0 C1 1.98 1 3.96 1 6 C-0.98 6 -2.96 6 -5 6 C-3.625 4.5 -3.625 4.5 -2 3 C-1.34 3 -0.68 3 0 3 C0 2.01 0 1.02 0 0 Z " fill="#A8732F" transform="translate(145,87)"/>
<path d="M0 0 C0.99 0 1.98 0 3 0 C3.33 1.32 3.66 2.64 4 4 C3.01 4.33 2.02 4.66 1 5 C0.67 4.34 0.34 3.68 0 3 C-0.66 2.67 -1.32 2.34 -2 2 C-1.34 1.34 -0.68 0.68 0 0 Z " fill="#DD8E03" transform="translate(132,86)"/>
<path d="M0 0 C0.99 0 1.98 0 3 0 C2.67 3.3 2.34 6.6 2 10 C1.67 10 1.34 10 1 10 C1 7.69 1 5.38 1 3 C0.34 3 -0.32 3 -1 3 C-0.67 2.01 -0.34 1.02 0 0 Z " fill="#B98A0A" transform="translate(39,61)"/>
</svg>
